<svg width="146" height="122" viewBox="0 0 146 122" fill="none" xmlns="http://www.w3.org/2000/svg">
<path d="M99.8828 77.012C130.006 67.5578 149.517 46.8766 130.006 44.1114C111.923 41.5487 -3.4625 41.2567 12.4829 29.5208C25.2392 20.132 55.9881 7.63482 69.7681 2.55981" stroke="url(#paint0_radial)" stroke-width="3.54534"/>
<path d="M17.2278 115.734L108.835 62.0476L105.784 100.09L17.2278 115.734Z" fill="#FFD66D"/>
<path d="M17.2281 115.734L108.331 68.1054L107.919 73.3637L17.2281 115.734Z" fill="#C68317"/>
<path fill-rule="evenodd" clip-rule="evenodd" d="M88.3722 38.2595L9.69097 119.739L145.2 104.33L115.17 69.4161L17.228 115.733L108.837 62.053L88.3722 38.2595Z" fill="#FFBF1C"/>
<g style="mix-blend-mode:soft-light" filter="url(#filter0_i)">
<path d="M115.17 69.4172L145.26 104.327L88.658 81.9613L115.17 69.4172Z" fill="#784100"/>
</g>
<g style="mix-blend-mode:soft-light" filter="url(#filter1_i)">
<path d="M88.3724 38.2599L108.803 62.0504L84.6132 76.2284L88.3724 38.2599Z" fill="#784100"/>
</g>
<defs>
<filter id="filter0_i" x="88.6581" y="68.5909" width="58.2547" height="35.7366" filterUnits="userSpaceOnUse" color-interpolation-filters="sRGB">
<feFlood flood-opacity="0" result="BackgroundImageFix"/>
<feBlend mode="normal" in="SourceGraphic" in2="BackgroundImageFix" result="shape"/>
<feColorMatrix in="SourceAlpha" type="matrix" values="0 0 0 0 0 0 0 0 0 0 0 0 0 0 0 0 0 0 127 0" result="hardAlpha"/>
<feOffset dx="1.65265" dy="-0.826325"/>
<feGaussianBlur stdDeviation="0.826325"/>
<feComposite in2="hardAlpha" operator="arithmetic" k2="-1" k3="1"/>
<feColorMatrix type="matrix" values="0 0 0 0 0 0 0 0 0 0 0 0 0 0 0 0 0 0 0.85 0"/>
<feBlend mode="normal" in2="shape" result="effect1_innerShadow"/>
</filter>
<filter id="filter1_i" x="84.6132" y="37.4336" width="25.8426" height="38.7949" filterUnits="userSpaceOnUse" color-interpolation-filters="sRGB">
<feFlood flood-opacity="0" result="BackgroundImageFix"/>
<feBlend mode="normal" in="SourceGraphic" in2="BackgroundImageFix" result="shape"/>
<feColorMatrix in="SourceAlpha" type="matrix" values="0 0 0 0 0 0 0 0 0 0 0 0 0 0 0 0 0 0 127 0" result="hardAlpha"/>
<feOffset dx="1.65265" dy="-0.826325"/>
<feGaussianBlur stdDeviation="0.826325"/>
<feComposite in2="hardAlpha" operator="arithmetic" k2="-1" k3="1"/>
<feColorMatrix type="matrix" values="0 0 0 0 0 0 0 0 0 0 0 0 0 0 0 0 0 0 0.85 0"/>
<feBlend mode="normal" in2="shape" result="effect1_innerShadow"/>
</filter>
<radialGradient id="paint0_radial" cx="0" cy="0" r="1" gradientUnits="userSpaceOnUse" gradientTransform="translate(58.5199 87.0571) rotate(-90.9022) scale(75.0524 132.074)">
<stop stop-opacity="0.26"/>
<stop offset="1" stop-opacity="0"/>
</radialGradient>
</defs>
</svg>
