<svg width="256" height="256" viewBox="0 0 256 256" fill="none" xmlns="http://www.w3.org/2000/svg">
<path fill-rule="evenodd" clip-rule="evenodd" d="M24 0C10.7452 0 0 10.7452 0 24V232C0 245.255 10.7452 256 24 256H232C245.255 256 256 245.255 256 232V24C256 10.7452 245.255 0 232 0H24ZM102.4 87.52C94.28 81.1733 84.06 78 71.74 78C62.22 78 53.8667 80.1467 46.68 84.44C39.4933 88.64 33.8933 94.5667 29.88 102.22C25.96 109.873 24 118.6 24 128.4C24 138.107 25.96 146.787 29.88 154.44C33.8933 162.093 39.4933 168.067 46.68 172.36C53.96 176.56 62.3133 178.66 71.74 178.66C84.06 178.66 94.28 175.487 102.4 169.14C110.52 162.793 115.887 154.16 118.5 143.24H97.78C95.6333 148.56 92.2733 152.76 87.7 155.84C83.22 158.92 77.8067 160.46 71.46 160.46C66.2333 160.46 61.52 159.153 57.32 156.54C53.12 153.927 49.8533 150.193 47.52 145.34C45.1867 140.487 44.02 134.84 44.02 128.4C44.02 121.867 45.1867 116.173 47.52 111.32C49.8533 106.467 53.12 102.733 57.32 100.12C61.52 97.5067 66.2333 96.2 71.46 96.2C77.8067 96.2 83.22 97.74 87.7 100.82C92.2733 103.9 95.6333 108.1 97.78 113.42H118.5C115.887 102.5 110.52 93.8667 102.4 87.52ZM231.45 177.82V80.1H207.65L178.53 153.6L148.85 80.1H124.91V177.82H144.65V109.92L169.71 177.82H186.79L211.85 109.64V177.82H231.45Z" fill="#9A9A9A"/>
</svg>
