<svg width="273" height="63" viewBox="0 0 273 63" fill="none" xmlns="http://www.w3.org/2000/svg">
<path d="M272.12 44.6596C272.12 45.4713 271.456 46.2831 270.496 46.2831C269.572 46.2831 268.873 45.5066 268.873 44.6596C268.873 43.4773 269.833 42.9973 270.496 42.9973C270.941 43.0008 272.12 43.2937 272.12 44.6596ZM271.901 44.6596C271.901 43.8478 271.312 43.2549 270.535 43.2549C269.798 43.2549 269.169 43.8443 269.169 44.6208C269.169 45.5454 269.981 45.9866 270.5 45.9866C271.273 46.029 271.901 45.4007 271.901 44.6596ZM271.308 45.5102H270.828L270.496 44.7725H270.274V45.5102H269.868V43.6996H270.571C270.902 43.6996 271.347 43.7737 271.347 44.2149C271.347 44.4725 271.199 44.6208 270.941 44.6949L271.308 45.5102ZM270.867 44.2537C270.867 44.0314 270.683 43.9961 270.422 43.9961H270.239V44.5502H270.422C270.68 44.5149 270.867 44.4761 270.867 44.2537Z" fill="#2E323B"/>
<path d="M92.6457 49.7107C92.9514 49.2578 93.3703 48.8899 93.9024 48.6068C94.4459 48.3238 95.0629 48.1823 95.7535 48.1823C96.5573 48.1823 97.2819 48.3804 97.9272 48.7766C98.5839 49.1729 99.099 49.739 99.4726 50.4749C99.8576 51.1995 100.05 52.0429 100.05 53.0052C100.05 53.9676 99.8576 54.8223 99.4726 55.5696C99.099 56.3055 98.5839 56.8772 97.9272 57.2848C97.2819 57.6924 96.5573 57.8961 95.7535 57.8961C95.0516 57.8961 94.4345 57.7603 93.9024 57.4886C93.3816 57.2055 92.9627 56.8432 92.6457 56.4017V57.7433H90.2682V45.1764H92.6457V49.7107ZM97.6216 53.0052C97.6216 52.4392 97.5027 51.9523 97.2649 51.5448C97.0385 51.1259 96.7328 50.8089 96.3479 50.5938C95.9743 50.3786 95.5667 50.2711 95.1252 50.2711C94.6949 50.2711 94.2874 50.3843 93.9024 50.6107C93.5288 50.8258 93.2231 51.1428 92.9854 51.5617C92.759 51.9806 92.6457 52.4731 92.6457 53.0392C92.6457 53.6053 92.759 54.0978 92.9854 54.5167C93.2231 54.9356 93.5288 55.2582 93.9024 55.4847C94.2874 55.6998 94.6949 55.8073 95.1252 55.8073C95.5667 55.8073 95.9743 55.6941 96.3479 55.4677C96.7328 55.2412 97.0385 54.9186 97.2649 54.4997C97.5027 54.0808 97.6216 53.5826 97.6216 53.0052ZM110.778 48.3351L104.953 62.1927H102.423L104.461 57.5055L100.691 48.3351H103.357L105.786 54.9073L108.248 48.3351H110.778ZM115.529 51.7995C115.529 50.6334 115.79 49.5918 116.31 48.6747C116.842 47.7464 117.561 47.0275 118.467 46.518C119.384 45.9972 120.409 45.7368 121.541 45.7368C122.865 45.7368 124.026 46.0765 125.022 46.7557C126.019 47.435 126.715 48.3747 127.111 49.5748H124.377C124.105 49.0087 123.72 48.5842 123.222 48.3011C122.735 48.0181 122.169 47.8766 121.524 47.8766C120.833 47.8766 120.216 48.0407 119.673 48.3691C119.141 48.6861 118.722 49.1389 118.416 49.7277C118.122 50.3164 117.975 51.007 117.975 51.7995C117.975 52.5807 118.122 53.2713 118.416 53.8713C118.722 54.4601 119.141 54.9186 119.673 55.2469C120.216 55.5639 120.833 55.7224 121.524 55.7224C122.169 55.7224 122.735 55.5809 123.222 55.2978C123.72 55.0035 124.105 54.5733 124.377 54.0072H127.111C126.715 55.2186 126.019 56.1639 125.022 56.8432C124.037 57.5112 122.877 57.8452 121.541 57.8452C120.409 57.8452 119.384 57.5905 118.467 57.081C117.561 56.5602 116.842 55.8413 116.31 54.9242C115.79 54.0072 115.529 52.9656 115.529 51.7995ZM133.319 57.8961C132.414 57.8961 131.599 57.698 130.874 57.3018C130.149 56.8942 129.578 56.3224 129.159 55.5865C128.751 54.8506 128.547 54.0015 128.547 53.0392C128.547 52.0769 128.757 51.2278 129.176 50.4919C129.606 49.756 130.189 49.1899 130.925 48.7936C131.661 48.3861 132.482 48.1823 133.387 48.1823C134.293 48.1823 135.114 48.3861 135.85 48.7936C136.586 49.1899 137.163 49.756 137.582 50.4919C138.012 51.2278 138.227 52.0769 138.227 53.0392C138.227 54.0015 138.007 54.8506 137.565 55.5865C137.135 56.3224 136.546 56.8942 135.799 57.3018C135.063 57.698 134.236 57.8961 133.319 57.8961ZM133.319 55.8243C133.75 55.8243 134.152 55.7224 134.525 55.5186C134.91 55.3035 135.216 54.9865 135.442 54.5676C135.669 54.1487 135.782 53.6392 135.782 53.0392C135.782 52.1448 135.544 51.4598 135.069 50.9843C134.604 50.4975 134.033 50.2541 133.353 50.2541C132.674 50.2541 132.102 50.4975 131.638 50.9843C131.185 51.4598 130.959 52.1448 130.959 53.0392C130.959 53.9336 131.18 54.6242 131.621 55.111C132.074 55.5865 132.64 55.8243 133.319 55.8243ZM145.185 48.1992C146.306 48.1992 147.211 48.5559 147.902 49.2691C148.593 49.9711 148.938 50.956 148.938 52.2241V57.7433H146.56V52.5467C146.56 51.7995 146.374 51.2278 146 50.8315C145.626 50.4239 145.117 50.2201 144.472 50.2201C143.815 50.2201 143.294 50.4239 142.909 50.8315C142.536 51.2278 142.349 51.7995 142.349 52.5467V57.7433H139.971V48.3351H142.349V49.5069C142.666 49.0993 143.068 48.7823 143.555 48.5559C144.053 48.3181 144.596 48.1992 145.185 48.1992ZM154.799 57.8961C154.029 57.8961 153.339 57.7603 152.727 57.4886C152.116 57.2055 151.629 56.8263 151.267 56.3508C150.916 55.8752 150.723 55.3488 150.689 54.7714H153.084C153.129 55.1337 153.305 55.4337 153.61 55.6715C153.927 55.9092 154.318 56.0281 154.782 56.0281C155.235 56.0281 155.586 55.9375 155.835 55.7564C156.095 55.5752 156.226 55.3431 156.226 55.0601C156.226 54.7544 156.067 54.528 155.75 54.3808C155.444 54.2223 154.952 54.0525 154.273 53.8713C153.571 53.7015 152.993 53.526 152.54 53.3449C152.099 53.1637 151.714 52.8864 151.386 52.5128C151.069 52.1391 150.91 51.6353 150.91 51.0013C150.91 50.4805 151.057 50.005 151.352 49.5748C151.657 49.1446 152.088 48.8049 152.642 48.5559C153.208 48.3068 153.871 48.1823 154.629 48.1823C155.75 48.1823 156.645 48.4653 157.313 49.0314C157.98 49.5861 158.348 50.339 158.416 51.29H156.141C156.107 50.9164 155.948 50.6221 155.665 50.4069C155.394 50.1805 155.026 50.0673 154.561 50.0673C154.131 50.0673 153.797 50.1465 153.559 50.3051C153.333 50.4636 153.22 50.6843 153.22 50.9674C153.22 51.2844 153.378 51.5278 153.695 51.6976C154.012 51.8561 154.505 52.0203 155.173 52.1901C155.852 52.3599 156.412 52.5354 156.854 52.7165C157.296 52.8977 157.675 53.1807 157.992 53.5657C158.32 53.9393 158.49 54.4374 158.501 55.0601C158.501 55.6035 158.348 56.0904 158.043 56.5206C157.748 56.9508 157.318 57.2904 156.752 57.5395C156.197 57.7773 155.546 57.8961 154.799 57.8961ZM163.221 50.2881V54.8393C163.221 55.1563 163.295 55.3884 163.442 55.5356C163.6 55.6715 163.861 55.7394 164.223 55.7394H165.327V57.7433H163.832C161.828 57.7433 160.827 56.7696 160.827 54.8223V50.2881H159.706V48.3351H160.827V46.0085H163.221V48.3351H165.327V50.2881H163.221ZM166.426 53.0052C166.426 52.0542 166.612 51.2108 166.986 50.4749C167.371 49.739 167.886 49.1729 168.531 48.7766C169.188 48.3804 169.918 48.1823 170.722 48.1823C171.424 48.1823 172.035 48.3238 172.556 48.6068C173.088 48.8899 173.513 49.2465 173.83 49.6767V48.3351H176.224V57.7433H173.83V56.3677C173.524 56.8093 173.1 57.1772 172.556 57.4716C172.024 57.7546 171.407 57.8961 170.705 57.8961C169.913 57.8961 169.188 57.6924 168.531 57.2848C167.886 56.8772 167.371 56.3055 166.986 55.5696C166.612 54.8223 166.426 53.9676 166.426 53.0052ZM173.83 53.0392C173.83 52.4618 173.717 51.9693 173.49 51.5617C173.264 51.1428 172.958 50.8258 172.573 50.6107C172.188 50.3843 171.775 50.2711 171.333 50.2711C170.892 50.2711 170.484 50.3786 170.111 50.5938C169.737 50.8089 169.431 51.1259 169.194 51.5448C168.967 51.9523 168.854 52.4392 168.854 53.0052C168.854 53.5713 168.967 54.0695 169.194 54.4997C169.431 54.9186 169.737 55.2412 170.111 55.4677C170.496 55.6941 170.903 55.8073 171.333 55.8073C171.775 55.8073 172.188 55.6998 172.573 55.4847C172.958 55.2582 173.264 54.9412 173.49 54.5336C173.717 54.1147 173.83 53.6166 173.83 53.0392ZM183.76 48.1992C184.881 48.1992 185.786 48.5559 186.477 49.2691C187.168 49.9711 187.513 50.956 187.513 52.2241V57.7433H185.135V52.5467C185.135 51.7995 184.949 51.2278 184.575 50.8315C184.201 50.4239 183.692 50.2201 183.047 50.2201C182.39 50.2201 181.869 50.4239 181.484 50.8315C181.111 51.2278 180.924 51.7995 180.924 52.5467V57.7433H178.546V48.3351H180.924V49.5069C181.241 49.0993 181.643 48.7823 182.13 48.5559C182.628 48.3181 183.171 48.1992 183.76 48.1992ZM192.542 50.2881V54.8393C192.542 55.1563 192.616 55.3884 192.763 55.5356C192.921 55.6715 193.182 55.7394 193.544 55.7394H194.648V57.7433H193.153C191.149 57.7433 190.148 56.7696 190.148 54.8223V50.2881H189.027V48.3351H190.148V46.0085H192.542V48.3351H194.648V50.2881H192.542ZM199.827 51.7995C199.827 50.6334 200.087 49.5918 200.608 48.6747C201.14 47.7464 201.859 47.0275 202.765 46.518C203.682 45.9972 204.707 45.7368 205.839 45.7368C207.163 45.7368 208.324 46.0765 209.32 46.7557C210.316 47.435 211.013 48.3747 211.409 49.5748H208.675C208.403 49.0087 208.018 48.5842 207.52 48.3011C207.033 48.0181 206.467 47.8766 205.822 47.8766C205.131 47.8766 204.514 48.0407 203.971 48.3691C203.439 48.6861 203.02 49.1389 202.714 49.7277C202.42 50.3164 202.272 51.007 202.272 51.7995C202.272 52.5807 202.42 53.2713 202.714 53.8713C203.02 54.4601 203.439 54.9186 203.971 55.2469C204.514 55.5639 205.131 55.7224 205.822 55.7224C206.467 55.7224 207.033 55.5809 207.52 55.2978C208.018 55.0035 208.403 54.5733 208.675 54.0072H211.409C211.013 55.2186 210.316 56.1639 209.32 56.8432C208.335 57.5112 207.175 57.8452 205.839 57.8452C204.707 57.8452 203.682 57.5905 202.765 57.081C201.859 56.5602 201.14 55.8413 200.608 54.9242C200.087 54.0072 199.827 52.9656 199.827 51.7995ZM217.617 57.8961C216.712 57.8961 215.896 57.698 215.172 57.3018C214.447 56.8942 213.876 56.3224 213.457 55.5865C213.049 54.8506 212.845 54.0015 212.845 53.0392C212.845 52.0769 213.055 51.2278 213.474 50.4919C213.904 49.756 214.487 49.1899 215.223 48.7936C215.959 48.3861 216.78 48.1823 217.685 48.1823C218.591 48.1823 219.412 48.3861 220.148 48.7936C220.884 49.1899 221.461 49.756 221.88 50.4919C222.31 51.2278 222.525 52.0769 222.525 53.0392C222.525 54.0015 222.304 54.8506 221.863 55.5865C221.433 56.3224 220.844 56.8942 220.097 57.3018C219.361 57.698 218.534 57.8961 217.617 57.8961ZM217.617 55.8243C218.048 55.8243 218.449 55.7224 218.823 55.5186C219.208 55.3035 219.514 54.9865 219.74 54.5676C219.967 54.1487 220.08 53.6392 220.08 53.0392C220.08 52.1448 219.842 51.4598 219.367 50.9843C218.902 50.4975 218.331 50.2541 217.651 50.2541C216.972 50.2541 216.4 50.4975 215.936 50.9843C215.483 51.4598 215.257 52.1448 215.257 53.0392C215.257 53.9336 215.478 54.6242 215.919 55.111C216.372 55.5865 216.938 55.8243 217.617 55.8243ZM229.483 48.1992C230.604 48.1992 231.509 48.5559 232.2 49.2691C232.891 49.9711 233.236 50.956 233.236 52.2241V57.7433H230.858V52.5467C230.858 51.7995 230.672 51.2278 230.298 50.8315C229.924 50.4239 229.415 50.2201 228.77 50.2201C228.113 50.2201 227.592 50.4239 227.207 50.8315C226.834 51.2278 226.647 51.7995 226.647 52.5467V57.7433H224.269V48.3351H226.647V49.5069C226.964 49.0993 227.366 48.7823 227.852 48.5559C228.351 48.3181 228.894 48.1992 229.483 48.1992ZM238.265 50.2881V54.8393C238.265 55.1563 238.338 55.3884 238.486 55.5356C238.644 55.6715 238.905 55.7394 239.267 55.7394H240.371V57.7433H238.876C236.872 57.7433 235.87 56.7696 235.87 54.8223V50.2881H234.75V48.3351H235.87V46.0085H238.265V48.3351H240.371V50.2881H238.265ZM241.469 53.0052C241.469 52.0542 241.656 51.2108 242.03 50.4749C242.415 49.739 242.93 49.1729 243.575 48.7766C244.232 48.3804 244.962 48.1823 245.766 48.1823C246.468 48.1823 247.079 48.3238 247.6 48.6068C248.132 48.8899 248.557 49.2465 248.874 49.6767V48.3351H251.268V57.7433H248.874V56.3677C248.568 56.8093 248.143 57.1772 247.6 57.4716C247.068 57.7546 246.451 57.8961 245.749 57.8961C244.956 57.8961 244.232 57.6924 243.575 57.2848C242.93 56.8772 242.415 56.3055 242.03 55.5696C241.656 54.8223 241.469 53.9676 241.469 53.0052ZM248.874 53.0392C248.874 52.4618 248.76 51.9693 248.534 51.5617C248.308 51.1428 248.002 50.8258 247.617 50.6107C247.232 50.3843 246.819 50.2711 246.377 50.2711C245.936 50.2711 245.528 50.3786 245.155 50.5938C244.781 50.8089 244.475 51.1259 244.237 51.5448C244.011 51.9523 243.898 52.4392 243.898 53.0052C243.898 53.5713 244.011 54.0695 244.237 54.4997C244.475 54.9186 244.781 55.2412 245.155 55.4677C245.539 55.6941 245.947 55.8073 246.377 55.8073C246.819 55.8073 247.232 55.6998 247.617 55.4847C248.002 55.2582 248.308 54.9412 248.534 54.5336C248.76 54.1147 248.874 53.6166 248.874 53.0392ZM252.979 53.0392C252.979 52.0656 253.177 51.2164 253.573 50.4919C253.97 49.756 254.519 49.1899 255.221 48.7936C255.922 48.3861 256.726 48.1823 257.632 48.1823C258.798 48.1823 259.76 48.4766 260.519 49.0653C261.289 49.6427 261.804 50.4579 262.064 51.5108H259.5C259.364 51.1032 259.132 50.7862 258.804 50.5598C258.487 50.322 258.091 50.2032 257.615 50.2032C256.936 50.2032 256.398 50.4522 256.002 50.9504C255.605 51.4372 255.407 52.1335 255.407 53.0392C255.407 53.9336 255.605 54.6299 256.002 55.128C256.398 55.6149 256.936 55.8583 257.615 55.8583C258.577 55.8583 259.206 55.428 259.5 54.5676H262.064C261.804 55.5865 261.289 56.396 260.519 56.9961C259.749 57.5961 258.787 57.8961 257.632 57.8961C256.726 57.8961 255.922 57.698 255.221 57.3018C254.519 56.8942 253.97 56.3281 253.573 55.6035C253.177 54.8676 252.979 54.0129 252.979 53.0392ZM266.574 50.2881V54.8393C266.574 55.1563 266.648 55.3884 266.795 55.5356C266.954 55.6715 267.214 55.7394 267.576 55.7394H268.68V57.7433H267.186C265.182 57.7433 264.18 56.7696 264.18 54.8223V50.2881H263.059V48.3351H264.18V46.0085H266.574V48.3351H268.68V50.2881H266.574Z" fill="#F6F6F6"/>
<path d="M0.5 18.5618C0.5 15.6872 1.1419 13.1196 2.4257 10.859C3.73741 8.5705 5.50961 6.79829 7.74231 5.5424C10.0029 4.2586 12.5286 3.6167 15.3195 3.6167C18.5848 3.6167 21.4455 4.45397 23.9014 6.12849C26.3574 7.80301 28.0738 10.1194 29.0506 13.0778H22.3106C21.6408 11.6823 20.6919 10.6357 19.464 9.93802C18.2639 9.24031 16.8685 8.89145 15.2777 8.89145C13.5752 8.89145 12.0542 9.29612 10.7146 10.1055C9.40287 10.8869 8.37025 12.0033 7.61672 13.4545C6.89109 14.9058 6.52828 16.6082 6.52828 18.5618C6.52828 20.4875 6.89109 22.1899 7.61672 23.6691C8.37025 25.1204 9.40287 26.2507 10.7146 27.06C12.0542 27.8415 13.5752 28.2322 15.2777 28.2322C16.8685 28.2322 18.2639 27.8833 19.464 27.1856C20.6919 26.46 21.6408 25.3994 22.3106 24.004H29.0506C28.0738 26.9902 26.3574 29.3206 23.9014 30.9951C21.4734 32.6418 18.6127 33.4651 15.3195 33.4651C12.5286 33.4651 10.0029 32.8371 7.74231 31.5812C5.50961 30.2974 3.73741 28.5252 2.4257 26.2646C1.1419 24.004 0.5 21.4364 0.5 18.5618Z" fill="white"/>
<path d="M39.9173 13.622C40.6709 12.394 41.6477 11.4311 42.8477 10.7334C44.0757 10.0357 45.4712 9.68684 47.034 9.68684V15.8407H45.4851C43.6431 15.8407 42.2477 16.2733 41.2988 17.1385C40.3778 18.0036 39.9173 19.5107 39.9173 21.6597V33.2139H34.0565V10.0218H39.9173V13.622Z" fill="white"/>
<path d="M72.5411 21.1155C72.5411 21.9527 72.4853 22.7063 72.3736 23.3761H55.4191C55.5586 25.0506 56.1447 26.3623 57.1773 27.3112C58.21 28.2601 59.4798 28.7345 60.9869 28.7345C63.1638 28.7345 64.7127 27.7996 65.6337 25.9297H71.955C71.2852 28.1624 70.0014 30.0044 68.1036 31.4556C66.2058 32.879 63.8754 33.5906 61.1125 33.5906C58.8798 33.5906 56.8703 33.1022 55.0842 32.1254C53.3259 31.1207 51.9445 29.7113 50.9397 27.8973C49.9629 26.0832 49.4745 23.9901 49.4745 21.6178C49.4745 19.2177 49.9629 17.1106 50.9397 15.2965C51.9165 13.4824 53.2841 12.087 55.0423 11.1102C56.8006 10.1334 58.8239 9.64498 61.1125 9.64498C63.3172 9.64498 65.2848 10.1194 67.0151 11.0683C68.7734 12.0172 70.127 13.3708 71.0759 15.129C72.0527 16.8594 72.5411 18.8549 72.5411 21.1155ZM66.4709 19.4409C66.443 17.9339 65.8988 16.7338 64.8383 15.8407C63.7777 14.9197 62.48 14.4592 60.945 14.4592C59.4938 14.4592 58.2658 14.9058 57.2611 15.7989C56.2843 16.664 55.6842 17.878 55.4609 19.4409H66.4709Z" fill="white"/>
<path d="M75.3119 21.5341C75.3119 19.1898 75.7724 17.1106 76.6934 15.2965C77.6423 13.4824 78.9121 12.087 80.5029 11.1102C82.1216 10.1334 83.9217 9.64498 85.9032 9.64498C87.6336 9.64498 89.1406 9.99384 90.4244 10.6916C91.7361 11.3893 92.7827 12.2684 93.5642 13.3289V10.0218H99.4669V33.2139H93.5642V29.823C92.8106 30.9114 91.7641 31.8184 90.4244 32.5441C89.1127 33.2418 87.5917 33.5906 85.8614 33.5906C83.9078 33.5906 82.1216 33.0883 80.5029 32.0836C78.9121 31.0789 77.6423 29.6695 76.6934 27.8554C75.7724 26.0134 75.3119 23.9063 75.3119 21.5341ZM93.5642 21.6178C93.5642 20.1945 93.2851 18.9804 92.7269 17.9757C92.1687 16.9431 91.4152 16.1617 90.4663 15.6314C89.5174 15.0732 88.4987 14.7941 87.4103 14.7941C86.3219 14.7941 85.3171 15.0593 84.3962 15.5895C83.4752 16.1198 82.7216 16.9012 82.1356 17.9339C81.5774 18.9386 81.2983 20.1387 81.2983 21.5341C81.2983 22.9295 81.5774 24.1575 82.1356 25.218C82.7216 26.2507 83.4752 27.0461 84.3962 27.6042C85.3451 28.1624 86.3498 28.4415 87.4103 28.4415C88.4987 28.4415 89.5174 28.1764 90.4663 27.6461C91.4152 27.0879 92.1687 26.3065 92.7269 25.3018C93.2851 24.2691 93.5642 23.0412 93.5642 21.6178Z" fill="white"/>
<path d="M112.015 14.836V26.0553C112.015 26.8367 112.196 27.4089 112.559 27.7717C112.95 28.1066 113.591 28.274 114.485 28.274H117.206V33.2139H113.522C108.582 33.2139 106.112 30.8137 106.112 26.0134V14.836H103.349V10.0218H106.112V4.28651H112.015V10.0218H117.206V14.836H112.015Z" fill="white"/>
<path d="M124.393 7.25879C123.361 7.25879 122.496 6.93784 121.798 6.29594C121.128 5.62613 120.793 4.80282 120.793 3.82602C120.793 2.84921 121.128 2.03986 121.798 1.39796C122.496 0.728154 123.361 0.39325 124.393 0.39325C125.426 0.39325 126.277 0.728154 126.947 1.39796C127.645 2.03986 127.994 2.84921 127.994 3.82602C127.994 4.80282 127.645 5.62613 126.947 6.29594C126.277 6.93784 125.426 7.25879 124.393 7.25879ZM127.282 10.0218V33.2139H121.421V10.0218H127.282Z" fill="white"/>
<path d="M142.743 27.8135L148.604 10.0218H154.841L146.259 33.2139H139.143L130.602 10.0218H136.882L142.743 27.8135Z" fill="white"/>
<path d="M184.925 21.1155C184.925 21.9527 184.87 22.7063 184.758 23.3761H167.803C167.943 25.0506 168.529 26.3623 169.562 27.3112C170.594 28.2601 171.864 28.7345 173.371 28.7345C175.548 28.7345 177.097 27.7996 178.018 25.9297H184.339C183.669 28.1624 182.386 30.0044 180.488 31.4556C178.59 32.879 176.26 33.5906 173.497 33.5906C171.264 33.5906 169.255 33.1022 167.468 32.1254C165.71 31.1207 164.329 29.7113 163.324 27.8973C162.347 26.0832 161.859 23.9901 161.859 21.6178C161.859 19.2177 162.347 17.1106 163.324 15.2965C164.301 13.4824 165.668 12.087 167.427 11.1102C169.185 10.1334 171.208 9.64498 173.497 9.64498C175.702 9.64498 177.669 10.1194 179.399 11.0683C181.158 12.0172 182.511 13.3708 183.46 15.129C184.437 16.8594 184.925 18.8549 184.925 21.1155ZM178.855 19.4409C178.827 17.9339 178.283 16.7338 177.223 15.8407C176.162 14.9197 174.864 14.4592 173.329 14.4592C171.878 14.4592 170.65 14.9058 169.645 15.7989C168.669 16.664 168.069 17.878 167.845 19.4409H178.855Z" fill="white"/>
<path d="M154.346 32.4164C155.043 33.0583 155.909 33.3793 156.941 33.3793C157.974 33.3793 158.825 33.0583 159.495 32.4164C160.193 31.7466 160.541 30.9233 160.541 29.9465C160.541 28.9697 160.193 28.1603 159.495 27.5184C158.825 26.8486 157.974 26.5137 156.941 26.5137C155.909 26.5137 155.043 26.8486 154.346 27.5184C153.676 28.1603 153.341 28.9697 153.341 29.9465C153.341 30.9233 153.676 31.7466 154.346 32.4164Z" fill="#E5CCFE"/>
<path d="M221.061 3.99247V33.2129H215.2V14.207L207.372 33.2129H202.935L195.064 14.207V33.2129H189.203V3.99247H195.86L205.153 25.7194L214.447 3.99247H221.061Z" fill="#E5CCFE"/>
<path d="M225.349 21.5331C225.349 19.1888 225.809 17.1096 226.73 15.2955C227.679 13.4814 228.949 12.086 230.54 11.1092C232.158 10.1324 233.958 9.64398 235.94 9.64398C237.67 9.64398 239.177 9.99284 240.461 10.6906C241.773 11.3883 242.819 12.2674 243.601 13.3279V10.0207H249.504V33.2129H243.601V29.822C242.847 30.9104 241.801 31.8174 240.461 32.5431C239.149 33.2408 237.628 33.5896 235.898 33.5896C233.944 33.5896 232.158 33.0873 230.54 32.0826C228.949 31.0779 227.679 29.6685 226.73 27.8544C225.809 26.0124 225.349 23.9053 225.349 21.5331ZM243.601 21.6168C243.601 20.1935 243.322 18.9794 242.764 17.9747C242.205 16.9421 241.452 16.1607 240.503 15.6304C239.554 15.0722 238.535 14.7931 237.447 14.7931C236.359 14.7931 235.354 15.0583 234.433 15.5885C233.512 16.1188 232.758 16.9002 232.172 17.9329C231.614 18.9376 231.335 20.1376 231.335 21.5331C231.335 22.9285 231.614 24.1565 232.172 25.217C232.758 26.2497 233.512 27.045 234.433 27.6032C235.382 28.1614 236.386 28.4405 237.447 28.4405C238.535 28.4405 239.554 28.1754 240.503 27.6451C241.452 27.0869 242.205 26.3055 242.764 25.3008C243.322 24.2681 243.601 23.0402 243.601 21.6168Z" fill="#E5CCFE"/>
<path d="M261.088 10.0207V33.2129H255.228V10.0207H261.088Z" fill="#E5CCFE"/>
<path d="M272.74 2.23422V33.2129H266.879V2.23422H272.74Z" fill="#E5CCFE"/>
<path d="M255.531 6.23539C256.229 6.87729 257.094 7.19824 258.127 7.19824C259.159 7.19824 260.01 6.87729 260.68 6.23539C261.378 5.56558 261.727 4.74228 261.727 3.76547C261.727 2.78867 261.378 1.97931 260.68 1.33741C260.01 0.667606 259.159 0.332703 258.127 0.332703C257.094 0.332703 256.229 0.667606 255.531 1.33741C254.861 1.97931 254.526 2.78867 254.526 3.76547C254.526 4.74228 254.861 5.56558 255.531 6.23539Z" fill="white"/>
</svg>
