<svg width="702" height="179" viewBox="0 0 702 179" fill="none" xmlns="http://www.w3.org/2000/svg">
<g clip-path="url(#clip0)">
<rect width="702" height="179" fill="#FFF3B7"/>
<path d="M399.629 8.90036C402.321 3.07262 404.376 -3.97582 404.737 -8.61646C404.86 -10.2016 404.353 -12.6036 403.609 -13.9543C402.475 -16.0202 401.86 -16.4019 399.742 -16.3554C396.561 -16.2859 393.09 -14.7324 391.035 -12.4584C390.178 -11.5103 388.308 -8.92474 386.879 -6.71335C385.45 -4.5016 381.488 1.23275 378.075 6.02926C363.115 27.0577 333.034 78.0613 334.152 80.5057C334.851 82.034 340.219 77.9332 353.888 65.4303C373.077 47.8792 392.994 23.2631 399.629 8.90036Z" fill="#FFD772"/>
<path d="M362.034 -36.132C363.661 -49.6875 363.234 -62.3229 360.775 -73.4031C359.398 -79.6081 355.769 -87.2294 351.446 -92.9943C335.698 -114 323.989 -123.729 310.27 -127.213C303.328 -128.976 294.081 -128.175 287.587 -125.249C285.87 -124.475 283.501 -124.347 276.604 -124.652C233.773 -126.548 189.062 -119.941 142.983 -104.904C69.202 -80.8283 11.0655 -42.6964 -17.4686 0.336426C-34.297 25.7159 -40.454 51.4994 -36.0962 78.347C-34.697 86.9679 -25.3101 107.455 -19.4093 114.765C-2.00389 136.327 19.6921 149.256 52.0584 157.352C70.7171 162.019 87.0672 163.585 107.743 162.684C128.408 161.784 147.726 158.485 168.775 152.26C214.335 138.787 260.194 112.554 296.156 79.3912C304.791 71.4288 319.616 55.2237 326.218 46.5306C346.356 20.017 358.719 -8.51806 362.034 -36.132Z" fill="#FFD772"/>
<path d="M162.428 174.45C164.326 173.584 165.538 172.727 166.218 171.769C168.106 169.113 166.56 168.9 157.099 170.515C146.498 172.324 136.204 176.138 135.374 178.563C134.941 179.83 140.015 180.669 144.172 180.019C148.405 179.356 158.266 176.348 162.428 174.45Z" fill="#FFD772"/>
<path d="M-62.5825 73.352C-58.0509 61.391 -55.4887 40.9316 -56.5605 25.2676C-57.362 13.5501 -61.2893 10.8294 -69.4275 16.3553C-75.598 20.5453 -85.799 34.5518 -91.887 47.1942C-96.2035 56.157 -97.1766 59.5668 -98.7663 71.2945C-100.125 81.3148 -99.4354 85.9892 -95.245 95.165C-92.1 102.05 -90.1648 104.052 -85.4965 105.241C-81.8175 106.179 -79.5783 105.924 -77.5894 104.341C-75.3291 102.541 -70.1582 95.4141 -69.4361 93.1022C-67.6217 87.2926 -64.9771 79.6732 -62.5825 73.352Z" fill="#FFD772"/>
<rect x="207.723" y="87.9922" width="17" height="168" transform="rotate(-1.3294 207.723 87.9922)" fill="#B76E3A"/>
<rect x="217.721" y="87.7603" width="7" height="168" transform="rotate(-1.3294 217.721 87.7603)" fill="#854B21"/>
<ellipse cx="220.447" cy="162.217" rx="2" ry="5.5" transform="rotate(-1.3294 220.447 162.217)" fill="#B76E3A"/>
<ellipse cx="215.032" cy="144.338" rx="1" ry="3.5" transform="rotate(-1.3294 215.032 144.338)" fill="#854B21"/>
<path d="M219.02 143.745L208.908 139.022L208.678 129.112L218.579 124.75L219.02 143.745Z" fill="#854B21"/>
<path d="M281.838 112.679L204.327 135.584L170.759 46.8387L253.092 37.0728C268.317 35.2668 281.791 46.9604 282.147 62.2886L283.271 110.715C283.292 111.618 282.705 112.423 281.838 112.679Z" fill="#C4C4C4"/>
<path fill-rule="evenodd" clip-rule="evenodd" d="M210.785 133.675L204.328 135.583L171.804 49.5994C171.831 49.5946 171.857 49.5898 171.883 49.585C191.215 46.1032 209.091 60.6985 209.547 80.3359L210.785 133.675Z" fill="#7D7D7D"/>
<path fill-rule="evenodd" clip-rule="evenodd" d="M277.29 47.7405L189.114 61.9169L171.884 46.7052L253.092 37.0727C262.895 35.9099 271.973 40.3436 277.29 47.7405Z" fill="#E0E0E0"/>
<path d="M143.494 78.8679C143.129 63.1064 154.297 49.4269 169.814 46.6323V46.6323C189.145 43.1505 207.021 57.7457 207.477 77.3831L208.778 133.418C208.799 134.336 208.193 135.15 207.308 135.393L201.583 136.966C201.107 137.097 200.61 137.139 200.119 137.089L146.472 131.644C145.468 131.542 144.697 130.709 144.674 129.7L143.494 78.8679Z" fill="#F1F1F1"/>
<path d="M137.496 79.0076C137.131 63.246 148.299 49.5665 163.815 46.7719V46.7719C183.147 43.2901 201.023 57.8854 201.479 77.5228L202.822 135.371C202.849 136.567 201.827 137.52 200.635 137.409L140.488 131.771C139.478 131.677 138.699 130.841 138.676 129.826L137.496 79.0076Z" fill="#C4C4C4"/>
<path fill-rule="evenodd" clip-rule="evenodd" d="M163.389 50.2004C149.313 52.7203 139.175 65.1239 139.507 79.4194L140.628 127.74C140.647 128.545 141.141 129.236 141.847 129.535C141.728 129.286 141.658 129.009 141.651 128.717L140.53 80.396C140.198 66.1006 150.336 53.6969 164.412 51.1771C173.723 49.5102 182.657 52.4688 189.045 58.2789C182.609 51.8289 173.208 48.4425 163.389 50.2004Z" fill="#7D7D7D"/>
<ellipse rx="5.98969" ry="6.25283" transform="matrix(-0.997373 -0.0724384 0.0519504 0.99865 183.673 88.2373)" fill="#4D4D4D"/>
<path d="M156.189 103.342C156.459 108.518 162.695 113.152 170.118 113.691C177.542 114.23 183.342 110.471 183.072 105.295C182.803 100.119 176.932 102.515 169.509 101.976C162.086 101.437 155.92 98.1664 156.189 103.342Z" fill="#4D4D4D"/>
<path fill-rule="evenodd" clip-rule="evenodd" d="M181.992 109.199C177.279 107.029 169.092 105.516 161.309 110.839C163.723 112.394 166.799 113.449 170.111 113.69C175.484 114.08 180.006 112.219 181.992 109.199Z" fill="#F1F1F1"/>
<ellipse rx="5.98969" ry="6.25283" transform="matrix(-0.997373 -0.0724384 0.0519504 0.99865 153.806 86.0649)" fill="#4D4D4D"/>
<path d="M217.221 66.266C216.598 73.8825 216.209 94.4638 216.092 103.802L218.987 99.2339C219.65 91.8832 221.125 74.9778 221.72 66.1616C222.316 57.3454 209.275 47.1119 202.68 43.0971L196.693 43.7362C203.796 48.0726 217.845 58.6495 217.221 66.266Z" fill="#C4C4C4"/>
<path fill-rule="evenodd" clip-rule="evenodd" d="M198.901 43.5004L196.694 43.736C196.706 43.7433 196.718 43.7506 196.73 43.758L198.901 43.5004ZM213.721 57.9604C215.993 60.8305 217.431 63.7143 217.222 66.2658C216.598 73.8823 216.209 94.4636 216.093 103.802L218.987 99.2337C219.65 91.8831 221.125 74.9776 221.721 66.1614C221.919 63.2328 220.612 60.1478 218.536 57.1863L213.721 57.9604Z" fill="#625D5D"/>
<path fill-rule="evenodd" clip-rule="evenodd" d="M216.246 102.244L219.899 30.7008C219.927 30.1457 220.403 29.7202 220.958 29.7536L242.406 31.045C242.961 31.0784 243.382 31.5574 243.344 32.1116L242.354 46.5302C242.318 47.0458 241.896 47.4495 241.379 47.4615L223.162 47.8843L219.973 96.8482C220.281 96.7507 220.6 96.696 220.928 96.6883C223.689 96.6243 226.005 99.9293 226.101 104.07C226.197 108.211 224.037 111.62 221.276 111.684C218.627 111.746 216.388 108.706 216.126 104.802L216.115 104.802L216.12 104.706C216.112 104.572 216.107 104.438 216.104 104.302C216.087 103.59 216.137 102.899 216.246 102.244Z" fill="#7A5CBD"/>
<ellipse cx="221.103" cy="104.186" rx="1" ry="2.5" transform="rotate(-1.3294 221.103 104.186)" fill="#625D5D"/>
<path d="M247.823 103.717L247.793 102.447L253.709 100.881L253.739 102.169L250.012 115.788L248.9 116.082L252.722 102.42L247.823 103.717Z" fill="#625D5D" fill-opacity="0.47"/>
<path d="M254.806 110.841C254.781 109.757 255.129 108.724 255.852 107.742C256.204 107.263 256.586 106.861 256.997 106.538C256.444 106.427 255.988 106.149 255.627 105.705C255.267 105.261 255.079 104.686 255.062 103.979C255.046 103.267 255.171 102.605 255.439 101.995C255.711 101.384 256.072 100.877 256.522 100.476C256.976 100.068 257.472 99.7928 258.009 99.6505C258.827 99.434 259.533 99.5751 260.126 100.074C260.719 100.573 261.027 101.3 261.049 102.256C261.074 103.304 260.663 104.326 259.818 105.322C259.593 105.584 259.35 105.829 259.092 106.057L259.56 106.218C260.394 106.512 260.956 106.964 261.248 107.573C261.457 107.995 261.569 108.487 261.582 109.047C261.595 109.602 261.514 110.141 261.34 110.665C261.17 111.182 260.938 111.639 260.642 112.036C260.008 112.896 259.266 113.439 258.416 113.664C257.811 113.824 257.239 113.829 256.699 113.677C256.163 113.525 255.717 113.205 255.361 112.717C255.008 112.222 254.823 111.597 254.806 110.841ZM258.04 106.823C257.426 107.206 256.895 107.751 256.448 108.457C256.005 109.163 255.791 109.833 255.806 110.466C255.821 111.094 255.955 111.579 256.208 111.923C256.696 112.584 257.417 112.789 258.37 112.536C258.745 112.437 259.077 112.254 259.366 111.987C259.66 111.72 259.888 111.466 260.051 111.227C260.42 110.676 260.596 110.029 260.578 109.285C260.562 108.567 260.347 108.026 259.934 107.663C259.586 107.363 259.128 107.132 258.561 106.97L258.04 106.823ZM256.898 105.24C257.147 105.401 257.389 105.524 257.623 105.609C257.857 105.694 257.983 105.741 258.001 105.748C258.688 105.18 259.146 104.758 259.376 104.483C259.84 103.925 260.064 103.293 260.048 102.586C260.032 101.879 259.817 101.369 259.406 101.055C258.994 100.741 258.521 100.655 257.988 100.796C257.455 100.937 256.997 101.282 256.615 101.831C256.232 102.38 256.049 103.001 256.065 103.696C256.081 104.384 256.359 104.899 256.898 105.24Z" fill="#625D5D" fill-opacity="0.47"/>
<path d="M262.852 102.965C262.832 102.1 262.978 101.243 263.29 100.394C263.637 99.4631 264.124 98.7455 264.754 98.2419C265.093 97.9682 265.466 97.7776 265.872 97.6699C266.884 97.402 267.692 97.7458 268.296 98.7014C268.904 99.6497 269.231 101.117 269.278 103.103C269.334 105.527 269.021 107.501 268.338 109.024C267.655 110.547 266.686 111.474 265.43 111.807C265.114 111.891 264.768 111.884 264.393 111.787C264.018 111.69 263.76 111.547 263.619 111.358L263.99 110.276C264.535 110.647 265.049 110.768 265.532 110.64C266.359 110.421 267.036 109.724 267.563 108.548C268.09 107.373 268.362 105.84 268.377 103.948C268.372 103.955 268.344 104.018 268.292 104.136C268.245 104.252 268.202 104.35 268.163 104.427C268.128 104.504 268.07 104.614 267.987 104.759C267.908 104.902 267.829 105.031 267.75 105.143C267.671 105.25 267.569 105.372 267.445 105.509C267.325 105.645 267.201 105.764 267.071 105.866C266.759 106.102 266.424 106.267 266.067 106.361C265.15 106.604 264.391 106.419 263.791 105.806C263.194 105.185 262.882 104.238 262.852 102.965ZM263.855 102.709C263.877 103.659 264.087 104.36 264.483 104.813C264.88 105.26 265.399 105.398 266.041 105.228C266.741 105.043 267.293 104.544 267.697 103.733C267.936 103.253 268.108 102.637 268.213 101.886C268.07 100.048 267.546 99.0163 266.641 98.7901C266.404 98.7305 266.172 98.7306 265.946 98.7904C265.72 98.8502 265.513 98.9418 265.325 99.0651C265.137 99.1884 264.95 99.3605 264.764 99.5813C264.583 99.8009 264.423 100.052 264.284 100.334C263.976 100.967 263.833 101.758 263.855 102.709Z" fill="#625D5D" fill-opacity="0.47"/>
<path d="M271.159 107.21C270.982 106.644 270.853 106.059 270.771 105.456C270.693 104.851 270.646 104.205 270.63 103.517C270.614 102.822 270.63 102.147 270.679 101.49C270.727 100.828 270.825 100.159 270.973 99.482C271.121 98.7993 271.311 98.1942 271.544 97.6666C271.782 97.1379 272.096 96.6778 272.487 96.2862C272.883 95.8874 273.329 95.6222 273.826 95.4906C274.323 95.359 274.764 95.3862 275.15 95.572C275.536 95.7578 275.852 96.0511 276.098 96.4519C276.348 96.8515 276.559 97.3471 276.732 97.9387C277.034 99.0049 277.203 100.287 277.237 101.786C277.316 105.179 276.727 107.495 275.469 108.735C275.092 109.111 274.654 109.365 274.157 109.496C273.665 109.627 273.217 109.607 272.813 109.438C272.414 109.268 272.082 108.998 271.819 108.626C271.56 108.247 271.34 107.775 271.159 107.21ZM271.634 103.269C271.683 105.408 271.958 106.876 272.458 107.675C272.855 108.324 273.417 108.552 274.145 108.36C274.944 108.148 275.502 107.584 275.817 106.667C276.017 106.087 276.137 105.494 276.178 104.889C276.239 103.984 276.26 103.148 276.242 102.38C276.224 101.613 276.199 101.003 276.166 100.553C276.132 100.102 276.081 99.6464 276.011 99.1869C275.946 98.7261 275.853 98.3309 275.732 98.0014C275.615 97.6707 275.474 97.3832 275.309 97.1387C274.97 96.6279 274.491 96.4544 273.872 96.6182C272.287 97.0381 271.54 99.2551 271.634 103.269Z" fill="#625D5D" fill-opacity="0.47"/>
<rect x="307.723" y="97.9922" width="17" height="168" transform="rotate(-1.3294 307.723 97.9922)" fill="#B76E3A"/>
<rect x="317.721" y="97.7603" width="7" height="168" transform="rotate(-1.3294 317.721 97.7603)" fill="#854B21"/>
<ellipse cx="320.447" cy="172.217" rx="2" ry="5.5" transform="rotate(-1.3294 320.447 172.217)" fill="#B76E3A"/>
<ellipse cx="315.032" cy="154.338" rx="1" ry="3.5" transform="rotate(-1.3294 315.032 154.338)" fill="#854B21"/>
<path d="M319.02 153.745L308.908 149.022L308.678 139.112L318.579 134.75L319.02 153.745Z" fill="#854B21"/>
<path d="M381.838 122.679L304.327 145.584L270.759 56.8387L353.092 47.0728C368.317 45.2668 381.791 56.9604 382.147 72.2886L383.271 120.715C383.292 121.618 382.705 122.423 381.838 122.679Z" fill="#C4C4C4"/>
<path fill-rule="evenodd" clip-rule="evenodd" d="M310.785 143.675L304.328 145.583L271.804 59.5994C271.831 59.5946 271.857 59.5898 271.883 59.585C291.215 56.1032 309.091 70.6985 309.547 90.3359L310.785 143.675Z" fill="#7D7D7D"/>
<path fill-rule="evenodd" clip-rule="evenodd" d="M377.29 57.7405L289.114 71.9169L271.884 56.7052L353.092 47.0727C362.895 45.9099 371.973 50.3436 377.29 57.7405Z" fill="#E0E0E0"/>
<path d="M243.494 88.8679C243.129 73.1064 254.297 59.4269 269.814 56.6323V56.6323C289.145 53.1505 307.021 67.7457 307.477 87.3831L308.778 143.418C308.799 144.336 308.193 145.15 307.308 145.393L301.583 146.966C301.107 147.097 300.61 147.139 300.119 147.089L246.472 141.644C245.468 141.542 244.697 140.709 244.674 139.7L243.494 88.8679Z" fill="#F1F1F1"/>
<path d="M237.496 89.0076C237.131 73.246 248.299 59.5665 263.815 56.7719V56.7719C283.147 53.2901 301.023 67.8854 301.479 87.5228L302.822 145.371C302.849 146.567 301.827 147.52 300.635 147.409L240.488 141.771C239.478 141.677 238.699 140.841 238.676 139.826L237.496 89.0076Z" fill="#C4C4C4"/>
<path fill-rule="evenodd" clip-rule="evenodd" d="M263.389 60.2004C249.313 62.7203 239.175 75.1239 239.507 89.4194L240.628 137.74C240.647 138.545 241.141 139.236 241.847 139.535C241.728 139.286 241.658 139.009 241.651 138.717L240.53 90.396C240.198 76.1006 250.336 63.6969 264.412 61.1771C273.723 59.5102 282.657 62.4688 289.045 68.2789C282.609 61.8289 273.208 58.4425 263.389 60.2004Z" fill="#7D7D7D"/>
<ellipse rx="5.98969" ry="6.25283" transform="matrix(-0.997373 -0.0724384 0.0519504 0.99865 283.673 98.2373)" fill="#4D4D4D"/>
<path d="M256.189 113.342C256.459 118.518 262.695 123.152 270.118 123.691C277.542 124.23 283.342 120.471 283.072 115.295C282.803 110.119 276.932 112.515 269.509 111.976C262.086 111.437 255.92 108.166 256.189 113.342Z" fill="#4D4D4D"/>
<path fill-rule="evenodd" clip-rule="evenodd" d="M281.992 119.199C277.279 117.029 269.092 115.516 261.309 120.839C263.723 122.394 266.799 123.449 270.111 123.69C275.484 124.08 280.006 122.219 281.992 119.199Z" fill="#F1F1F1"/>
<ellipse rx="5.98969" ry="6.25283" transform="matrix(-0.997373 -0.0724384 0.0519504 0.99865 253.806 96.0649)" fill="#4D4D4D"/>
<path d="M317.221 76.266C316.598 83.8825 316.209 104.464 316.092 113.802L318.987 109.234C319.65 101.883 321.125 84.9778 321.72 76.1616C322.316 67.3454 309.275 57.1119 302.68 53.0971L296.693 53.7362C303.796 58.0726 317.845 68.6495 317.221 76.266Z" fill="#C4C4C4"/>
<path fill-rule="evenodd" clip-rule="evenodd" d="M298.901 53.5004L296.694 53.736C296.706 53.7433 296.718 53.7506 296.73 53.758L298.901 53.5004ZM313.721 67.9604C315.993 70.8305 317.431 73.7143 317.222 76.2658C316.598 83.8823 316.209 104.464 316.093 113.802L318.987 109.234C319.65 101.883 321.125 84.9776 321.721 76.1614C321.919 73.2328 320.612 70.1478 318.536 67.1863L313.721 67.9604Z" fill="#625D5D"/>
<path fill-rule="evenodd" clip-rule="evenodd" d="M316.246 112.244L319.899 40.7008C319.927 40.1457 320.403 39.7202 320.958 39.7536L342.406 41.045C342.961 41.0784 343.382 41.5574 343.344 42.1116L342.354 56.5302C342.318 57.0458 341.896 57.4495 341.379 57.4615L323.162 57.8843L319.973 106.848C320.281 106.751 320.6 106.696 320.928 106.688C323.689 106.624 326.005 109.929 326.101 114.07C326.197 118.211 324.037 121.62 321.276 121.684C318.627 121.746 316.388 118.706 316.126 114.802L316.115 114.802L316.12 114.706C316.112 114.572 316.107 114.438 316.104 114.302C316.087 113.59 316.137 112.899 316.246 112.244Z" fill="#FFB800"/>
<ellipse cx="321.103" cy="114.186" rx="1" ry="2.5" transform="rotate(-1.3294 321.103 114.186)" fill="#625D5D"/>
<path d="M347.823 113.717L347.793 112.447L353.709 110.881L353.739 112.169L350.012 125.788L348.9 126.082L352.722 112.42L347.823 113.717Z" fill="#625D5D" fill-opacity="0.47"/>
<path d="M354.806 120.841C354.781 119.757 355.129 118.724 355.852 117.742C356.204 117.263 356.586 116.861 356.997 116.538C356.444 116.427 355.988 116.149 355.627 115.705C355.267 115.261 355.079 114.686 355.062 113.979C355.046 113.267 355.171 112.605 355.439 111.995C355.711 111.384 356.072 110.877 356.522 110.476C356.976 110.068 357.472 109.793 358.009 109.651C358.827 109.434 359.533 109.575 360.126 110.074C360.719 110.573 361.027 111.3 361.049 112.256C361.074 113.304 360.663 114.326 359.818 115.322C359.593 115.584 359.35 115.829 359.092 116.057L359.56 116.218C360.394 116.512 360.956 116.964 361.248 117.573C361.457 117.995 361.569 118.487 361.582 119.047C361.595 119.602 361.514 120.141 361.34 120.665C361.17 121.182 360.938 121.639 360.642 122.036C360.008 122.896 359.266 123.439 358.416 123.664C357.811 123.824 357.239 123.829 356.699 123.677C356.163 123.525 355.717 123.205 355.361 122.717C355.008 122.222 354.823 121.597 354.806 120.841ZM358.04 116.823C357.426 117.206 356.895 117.751 356.448 118.457C356.005 119.163 355.791 119.833 355.806 120.466C355.821 121.094 355.955 121.579 356.208 121.923C356.696 122.584 357.417 122.789 358.37 122.536C358.745 122.437 359.077 122.254 359.366 121.987C359.66 121.72 359.888 121.466 360.051 121.227C360.42 120.676 360.596 120.029 360.578 119.285C360.562 118.567 360.347 118.026 359.934 117.663C359.586 117.363 359.128 117.132 358.561 116.97L358.04 116.823ZM356.898 115.24C357.147 115.401 357.389 115.524 357.623 115.609C357.857 115.694 357.983 115.741 358.001 115.748C358.688 115.18 359.146 114.758 359.376 114.483C359.84 113.925 360.064 113.293 360.048 112.586C360.032 111.879 359.817 111.369 359.406 111.055C358.994 110.741 358.521 110.655 357.988 110.796C357.455 110.937 356.997 111.282 356.615 111.831C356.232 112.38 356.049 113.001 356.065 113.696C356.081 114.384 356.359 114.899 356.898 115.24Z" fill="#625D5D" fill-opacity="0.47"/>
<path d="M362.852 112.965C362.832 112.1 362.978 111.243 363.29 110.394C363.637 109.463 364.124 108.746 364.754 108.242C365.093 107.968 365.466 107.778 365.872 107.67C366.884 107.402 367.692 107.746 368.296 108.701C368.904 109.65 369.231 111.117 369.278 113.103C369.334 115.527 369.021 117.501 368.338 119.024C367.655 120.547 366.686 121.474 365.43 121.807C365.114 121.891 364.768 121.884 364.393 121.787C364.018 121.69 363.76 121.547 363.619 121.358L363.99 120.276C364.535 120.647 365.049 120.768 365.532 120.64C366.359 120.421 367.036 119.724 367.563 118.548C368.09 117.373 368.362 115.84 368.377 113.948C368.372 113.955 368.344 114.018 368.292 114.136C368.245 114.252 368.202 114.35 368.163 114.427C368.128 114.504 368.07 114.614 367.987 114.759C367.908 114.902 367.829 115.031 367.75 115.143C367.671 115.25 367.569 115.372 367.445 115.509C367.325 115.645 367.201 115.764 367.071 115.866C366.759 116.102 366.424 116.267 366.067 116.361C365.15 116.604 364.391 116.419 363.791 115.806C363.194 115.185 362.882 114.238 362.852 112.965ZM363.855 112.709C363.877 113.659 364.087 114.36 364.483 114.813C364.88 115.26 365.399 115.398 366.041 115.228C366.741 115.043 367.293 114.544 367.697 113.733C367.936 113.253 368.108 112.637 368.213 111.886C368.07 110.048 367.546 109.016 366.641 108.79C366.404 108.731 366.172 108.731 365.946 108.79C365.72 108.85 365.513 108.942 365.325 109.065C365.137 109.188 364.95 109.36 364.764 109.581C364.583 109.801 364.423 110.052 364.284 110.334C363.976 110.967 363.833 111.758 363.855 112.709Z" fill="#625D5D" fill-opacity="0.47"/>
<path d="M371.159 117.21C370.982 116.644 370.853 116.059 370.771 115.456C370.693 114.851 370.646 114.205 370.63 113.517C370.614 112.822 370.63 112.147 370.679 111.49C370.727 110.828 370.825 110.159 370.973 109.482C371.121 108.799 371.311 108.194 371.544 107.667C371.782 107.138 372.096 106.678 372.487 106.286C372.883 105.887 373.329 105.622 373.826 105.491C374.323 105.359 374.764 105.386 375.15 105.572C375.536 105.758 375.852 106.051 376.098 106.452C376.348 106.851 376.559 107.347 376.732 107.939C377.034 109.005 377.203 110.287 377.237 111.786C377.316 115.179 376.727 117.495 375.469 118.735C375.092 119.111 374.654 119.365 374.157 119.496C373.665 119.627 373.217 119.607 372.813 119.438C372.414 119.268 372.082 118.998 371.819 118.626C371.56 118.247 371.34 117.775 371.159 117.21ZM371.634 113.269C371.683 115.408 371.958 116.876 372.458 117.675C372.855 118.324 373.417 118.552 374.145 118.36C374.944 118.148 375.502 117.584 375.817 116.667C376.017 116.087 376.137 115.494 376.178 114.889C376.239 113.984 376.26 113.148 376.242 112.38C376.224 111.613 376.199 111.003 376.166 110.553C376.132 110.102 376.081 109.646 376.011 109.187C375.946 108.726 375.853 108.331 375.732 108.001C375.615 107.671 375.474 107.383 375.309 107.139C374.97 106.628 374.491 106.454 373.872 106.618C372.287 107.038 371.54 109.255 371.634 113.269Z" fill="#625D5D" fill-opacity="0.47"/>
<rect x="397.723" y="107.992" width="17" height="168" transform="rotate(-1.3294 397.723 107.992)" fill="#B76E3A"/>
<rect x="407.721" y="107.76" width="7" height="168" transform="rotate(-1.3294 407.721 107.76)" fill="#854B21"/>
<ellipse cx="410.447" cy="182.217" rx="2" ry="5.5" transform="rotate(-1.3294 410.447 182.217)" fill="#B76E3A"/>
<ellipse cx="405.032" cy="164.338" rx="1" ry="3.5" transform="rotate(-1.3294 405.032 164.338)" fill="#854B21"/>
<path d="M409.02 163.745L398.908 159.022L398.678 149.112L408.579 144.75L409.02 163.745Z" fill="#854B21"/>
<path d="M471.838 132.679L394.327 155.584L360.759 66.8387L443.092 57.0728C458.317 55.2668 471.791 66.9604 472.147 82.2886L473.271 130.715C473.292 131.618 472.705 132.423 471.838 132.679Z" fill="#C4C4C4"/>
<path fill-rule="evenodd" clip-rule="evenodd" d="M400.785 153.675L394.328 155.583L361.804 69.5994C361.831 69.5946 361.857 69.5898 361.883 69.585C381.215 66.1032 399.091 80.6985 399.547 100.336L400.785 153.675Z" fill="#7D7D7D"/>
<path fill-rule="evenodd" clip-rule="evenodd" d="M467.29 67.7405L379.114 81.9169L361.884 66.7052L443.092 57.0727C452.895 55.9099 461.973 60.3436 467.29 67.7405Z" fill="#E0E0E0"/>
<path d="M333.494 98.8679C333.129 83.1064 344.297 69.4269 359.814 66.6323V66.6323C379.145 63.1505 397.021 77.7457 397.477 97.3831L398.778 153.418C398.799 154.336 398.193 155.15 397.308 155.393L391.583 156.966C391.107 157.097 390.61 157.139 390.119 157.089L336.472 151.644C335.468 151.542 334.697 150.709 334.674 149.7L333.494 98.8679Z" fill="#F1F1F1"/>
<path d="M327.496 99.0076C327.131 83.246 338.299 69.5665 353.815 66.7719V66.7719C373.147 63.2901 391.023 77.8854 391.479 97.5228L392.822 155.371C392.849 156.567 391.827 157.52 390.635 157.409L330.488 151.771C329.478 151.677 328.699 150.841 328.676 149.826L327.496 99.0076Z" fill="#C4C4C4"/>
<path fill-rule="evenodd" clip-rule="evenodd" d="M353.389 70.2004C339.313 72.7203 329.175 85.1239 329.507 99.4194L330.628 147.74C330.647 148.545 331.141 149.236 331.847 149.535C331.728 149.286 331.658 149.009 331.651 148.717L330.53 100.396C330.198 86.1006 340.336 73.6969 354.412 71.1771C363.723 69.5102 372.657 72.4688 379.045 78.2789C372.609 71.8289 363.208 68.4425 353.389 70.2004Z" fill="#7D7D7D"/>
<ellipse rx="5.98969" ry="6.25283" transform="matrix(-0.997373 -0.0724384 0.0519504 0.99865 373.673 108.237)" fill="#4D4D4D"/>
<path d="M346.189 123.342C346.459 128.518 352.695 133.152 360.118 133.691C367.542 134.23 373.342 130.471 373.072 125.295C372.803 120.119 366.932 122.515 359.509 121.976C352.086 121.437 345.92 118.166 346.189 123.342Z" fill="#4D4D4D"/>
<path fill-rule="evenodd" clip-rule="evenodd" d="M371.992 129.199C367.279 127.029 359.092 125.516 351.309 130.839C353.723 132.394 356.799 133.449 360.111 133.69C365.484 134.08 370.006 132.219 371.992 129.199Z" fill="#F1F1F1"/>
<ellipse rx="5.98969" ry="6.25283" transform="matrix(-0.997373 -0.0724384 0.0519504 0.99865 343.806 106.065)" fill="#4D4D4D"/>
<path d="M407.221 86.266C406.598 93.8825 406.209 114.464 406.092 123.802L408.987 119.234C409.65 111.883 411.125 94.9778 411.72 86.1616C412.316 77.3454 399.275 67.1119 392.68 63.0971L386.693 63.7362C393.796 68.0726 407.845 78.6495 407.221 86.266Z" fill="#C4C4C4"/>
<path fill-rule="evenodd" clip-rule="evenodd" d="M388.901 63.5004L386.694 63.736C386.706 63.7433 386.718 63.7506 386.73 63.758L388.901 63.5004ZM403.721 77.9604C405.993 80.8305 407.431 83.7143 407.222 86.2658C406.598 93.8823 406.209 114.464 406.093 123.802L408.987 119.234C409.65 111.883 411.125 94.9776 411.721 86.1614C411.919 83.2328 410.612 80.1478 408.536 77.1863L403.721 77.9604Z" fill="#625D5D"/>
<path fill-rule="evenodd" clip-rule="evenodd" d="M406.246 122.244L409.899 50.7008C409.927 50.1457 410.403 49.7202 410.958 49.7536L432.406 51.045C432.961 51.0784 433.382 51.5574 433.344 52.1116L432.354 66.5302C432.318 67.0458 431.896 67.4495 431.379 67.4615L413.162 67.8843L409.973 116.848C410.281 116.751 410.6 116.696 410.928 116.688C413.689 116.624 416.005 119.929 416.101 124.07C416.197 128.211 414.037 131.62 411.276 131.684C408.627 131.746 406.388 128.706 406.126 124.802L406.115 124.802L406.12 124.706C406.112 124.572 406.107 124.438 406.104 124.302C406.087 123.59 406.137 122.899 406.246 122.244Z" fill="#00CABD"/>
<ellipse cx="411.103" cy="124.186" rx="1" ry="2.5" transform="rotate(-1.3294 411.103 124.186)" fill="#625D5D"/>
<path d="M437.823 123.717L437.793 122.447L443.709 120.881L443.739 122.169L440.012 135.788L438.9 136.082L442.722 122.42L437.823 123.717Z" fill="#625D5D" fill-opacity="0.47"/>
<path d="M444.806 130.841C444.781 129.757 445.129 128.724 445.852 127.742C446.204 127.263 446.586 126.861 446.997 126.538C446.444 126.427 445.988 126.149 445.627 125.705C445.267 125.261 445.079 124.686 445.062 123.979C445.046 123.267 445.171 122.605 445.439 121.995C445.711 121.384 446.072 120.877 446.522 120.476C446.976 120.068 447.472 119.793 448.009 119.651C448.827 119.434 449.533 119.575 450.126 120.074C450.719 120.573 451.027 121.3 451.049 122.256C451.074 123.304 450.663 124.326 449.818 125.322C449.593 125.584 449.35 125.829 449.092 126.057L449.56 126.218C450.394 126.512 450.956 126.964 451.248 127.573C451.457 127.995 451.569 128.487 451.582 129.047C451.595 129.602 451.514 130.141 451.34 130.665C451.17 131.182 450.938 131.639 450.642 132.036C450.008 132.896 449.266 133.439 448.416 133.664C447.811 133.824 447.239 133.829 446.699 133.677C446.163 133.525 445.717 133.205 445.361 132.717C445.008 132.222 444.823 131.597 444.806 130.841ZM448.04 126.823C447.426 127.206 446.895 127.751 446.448 128.457C446.005 129.163 445.791 129.833 445.806 130.466C445.821 131.094 445.955 131.579 446.208 131.923C446.696 132.584 447.417 132.789 448.37 132.536C448.745 132.437 449.077 132.254 449.366 131.987C449.66 131.72 449.888 131.466 450.051 131.227C450.42 130.676 450.596 130.029 450.578 129.285C450.562 128.567 450.347 128.026 449.934 127.663C449.586 127.363 449.128 127.132 448.561 126.97L448.04 126.823ZM446.898 125.24C447.147 125.401 447.389 125.524 447.623 125.609C447.857 125.694 447.983 125.741 448.001 125.748C448.688 125.18 449.146 124.758 449.376 124.483C449.84 123.925 450.064 123.293 450.048 122.586C450.032 121.879 449.817 121.369 449.406 121.055C448.994 120.741 448.521 120.655 447.988 120.796C447.455 120.937 446.997 121.282 446.615 121.831C446.232 122.38 446.049 123.001 446.065 123.696C446.081 124.384 446.359 124.899 446.898 125.24Z" fill="#625D5D" fill-opacity="0.47"/>
<path d="M452.852 122.965C452.832 122.1 452.978 121.243 453.29 120.394C453.637 119.463 454.124 118.746 454.754 118.242C455.093 117.968 455.466 117.778 455.872 117.67C456.884 117.402 457.692 117.746 458.296 118.701C458.904 119.65 459.231 121.117 459.278 123.103C459.334 125.527 459.021 127.501 458.338 129.024C457.655 130.547 456.686 131.474 455.43 131.807C455.114 131.891 454.768 131.884 454.393 131.787C454.018 131.69 453.76 131.547 453.619 131.358L453.99 130.276C454.535 130.647 455.049 130.768 455.532 130.64C456.359 130.421 457.036 129.724 457.563 128.548C458.09 127.373 458.362 125.84 458.377 123.948C458.372 123.955 458.344 124.018 458.292 124.136C458.245 124.252 458.202 124.35 458.163 124.427C458.128 124.504 458.07 124.614 457.987 124.759C457.908 124.902 457.829 125.031 457.75 125.143C457.671 125.25 457.569 125.372 457.445 125.509C457.325 125.645 457.201 125.764 457.071 125.866C456.759 126.102 456.424 126.267 456.067 126.361C455.15 126.604 454.391 126.419 453.791 125.806C453.194 125.185 452.882 124.238 452.852 122.965ZM453.855 122.709C453.877 123.659 454.087 124.36 454.483 124.813C454.88 125.26 455.399 125.398 456.041 125.228C456.741 125.043 457.293 124.544 457.697 123.733C457.936 123.253 458.108 122.637 458.213 121.886C458.07 120.048 457.546 119.016 456.641 118.79C456.404 118.731 456.172 118.731 455.946 118.79C455.72 118.85 455.513 118.942 455.325 119.065C455.137 119.188 454.95 119.36 454.764 119.581C454.583 119.801 454.423 120.052 454.284 120.334C453.976 120.967 453.833 121.758 453.855 122.709Z" fill="#625D5D" fill-opacity="0.47"/>
<path d="M461.159 127.21C460.982 126.644 460.853 126.059 460.771 125.456C460.693 124.851 460.646 124.205 460.63 123.517C460.614 122.822 460.63 122.147 460.679 121.49C460.727 120.828 460.825 120.159 460.973 119.482C461.121 118.799 461.311 118.194 461.544 117.667C461.782 117.138 462.096 116.678 462.487 116.286C462.883 115.887 463.329 115.622 463.826 115.491C464.323 115.359 464.764 115.386 465.15 115.572C465.536 115.758 465.852 116.051 466.098 116.452C466.348 116.851 466.559 117.347 466.732 117.939C467.034 119.005 467.203 120.287 467.237 121.786C467.316 125.179 466.727 127.495 465.469 128.735C465.092 129.111 464.654 129.365 464.157 129.496C463.665 129.627 463.217 129.607 462.813 129.438C462.414 129.268 462.082 128.998 461.819 128.626C461.56 128.247 461.34 127.775 461.159 127.21ZM461.634 123.269C461.683 125.408 461.958 126.876 462.458 127.675C462.855 128.324 463.417 128.552 464.145 128.36C464.944 128.148 465.502 127.584 465.817 126.667C466.017 126.087 466.137 125.494 466.178 124.889C466.239 123.984 466.26 123.148 466.242 122.38C466.224 121.613 466.199 121.003 466.166 120.553C466.132 120.102 466.081 119.646 466.011 119.187C465.946 118.726 465.853 118.331 465.732 118.001C465.615 117.671 465.474 117.383 465.309 117.139C464.97 116.628 464.491 116.454 463.872 116.618C462.287 117.038 461.54 119.255 461.634 123.269Z" fill="#625D5D" fill-opacity="0.47"/>
<rect x="490.723" y="117.992" width="17" height="168" transform="rotate(-1.3294 490.723 117.992)" fill="#B76E3A"/>
<rect x="500.721" y="117.76" width="7" height="168" transform="rotate(-1.3294 500.721 117.76)" fill="#854B21"/>
<ellipse cx="498.032" cy="174.338" rx="1" ry="3.5" transform="rotate(-1.3294 498.032 174.338)" fill="#854B21"/>
<path d="M502.02 173.745L491.908 169.022L491.678 159.112L501.579 154.75L502.02 173.745Z" fill="#854B21"/>
<path d="M564.838 142.679L487.327 165.584L453.759 76.8387L536.092 67.0728C551.317 65.2668 564.791 76.9604 565.147 92.2886L566.271 140.715C566.292 141.618 565.705 142.423 564.838 142.679Z" fill="#C4C4C4"/>
<path fill-rule="evenodd" clip-rule="evenodd" d="M493.785 163.675L487.328 165.583L454.804 79.5994C454.831 79.5946 454.857 79.5898 454.883 79.585C474.215 76.1032 492.091 90.6985 492.547 110.336L493.785 163.675Z" fill="#7D7D7D"/>
<path fill-rule="evenodd" clip-rule="evenodd" d="M560.29 77.7405L472.114 91.9169L454.884 76.7052L536.092 67.0727C545.895 65.9099 554.973 70.3436 560.29 77.7405Z" fill="#E0E0E0"/>
<path d="M426.494 108.868C426.129 93.1064 437.297 79.4269 452.814 76.6323V76.6323C472.145 73.1505 490.021 87.7457 490.477 107.383L491.778 163.418C491.799 164.336 491.193 165.15 490.308 165.393L484.583 166.966C484.107 167.097 483.61 167.139 483.119 167.089L429.472 161.644C428.468 161.542 427.697 160.709 427.674 159.7L426.494 108.868Z" fill="#F1F1F1"/>
<path d="M420.496 109.008C420.131 93.246 431.299 79.5665 446.815 76.7719V76.7719C466.147 73.2901 484.023 87.8854 484.479 107.523L485.822 165.371C485.849 166.567 484.827 167.52 483.635 167.409L423.488 161.771C422.478 161.677 421.699 160.841 421.676 159.826L420.496 109.008Z" fill="#C4C4C4"/>
<path fill-rule="evenodd" clip-rule="evenodd" d="M446.389 80.2004C432.313 82.7203 422.175 95.1239 422.507 109.419L423.628 157.74C423.647 158.545 424.141 159.236 424.847 159.535C424.728 159.286 424.658 159.009 424.651 158.717L423.53 110.396C423.198 96.1006 433.336 83.6969 447.412 81.1771C456.723 79.5102 465.657 82.4688 472.045 88.2789C465.609 81.8289 456.208 78.4425 446.389 80.2004Z" fill="#7D7D7D"/>
<ellipse rx="5.98969" ry="6.25283" transform="matrix(-0.997373 -0.0724384 0.0519504 0.99865 466.673 118.237)" fill="#4D4D4D"/>
<path d="M439.189 133.342C439.459 138.518 445.695 143.152 453.118 143.691C460.542 144.23 466.342 140.471 466.072 135.295C465.803 130.119 459.932 132.515 452.509 131.976C445.086 131.437 438.92 128.166 439.189 133.342Z" fill="#4D4D4D"/>
<path fill-rule="evenodd" clip-rule="evenodd" d="M464.992 139.199C460.279 137.029 452.092 135.516 444.309 140.839C446.723 142.394 449.799 143.449 453.111 143.69C458.484 144.08 463.006 142.219 464.992 139.199Z" fill="#F1F1F1"/>
<ellipse rx="5.98969" ry="6.25283" transform="matrix(-0.997373 -0.0724384 0.0519504 0.99865 436.806 116.065)" fill="#4D4D4D"/>
<path d="M500.221 96.266C499.598 103.883 499.209 124.464 499.092 133.802L501.987 129.234C502.65 121.883 504.125 104.978 504.72 96.1616C505.316 87.3454 492.275 77.1119 485.68 73.0971L479.693 73.7362C486.796 78.0726 500.845 88.6495 500.221 96.266Z" fill="#C4C4C4"/>
<path fill-rule="evenodd" clip-rule="evenodd" d="M481.901 73.5004L479.694 73.736C479.706 73.7433 479.718 73.7506 479.73 73.758L481.901 73.5004ZM496.721 87.9604C498.993 90.8305 500.431 93.7143 500.222 96.2658C499.598 103.882 499.209 124.464 499.093 133.802L501.987 129.234C502.65 121.883 504.125 104.978 504.721 96.1614C504.919 93.2328 503.612 90.1478 501.536 87.1863L496.721 87.9604Z" fill="#625D5D"/>
<path fill-rule="evenodd" clip-rule="evenodd" d="M499.246 132.244L502.899 60.7008C502.927 60.1457 503.403 59.7202 503.958 59.7536L525.406 61.045C525.961 61.0784 526.382 61.5574 526.344 62.1116L525.354 76.5302C525.318 77.0458 524.896 77.4495 524.379 77.4615L506.162 77.8843L502.973 126.848C503.281 126.751 503.6 126.696 503.928 126.688C506.689 126.624 509.005 129.929 509.101 134.07C509.197 138.211 507.037 141.62 504.276 141.684C501.627 141.746 499.388 138.706 499.126 134.802L499.115 134.802L499.12 134.706C499.112 134.572 499.107 134.438 499.104 134.302C499.087 133.59 499.137 132.899 499.246 132.244Z" fill="#D42424"/>
<ellipse cx="504.103" cy="134.186" rx="1" ry="2.5" transform="rotate(-1.3294 504.103 134.186)" fill="#625D5D"/>
<path d="M530.823 133.717L530.793 132.447L536.709 130.881L536.739 132.169L533.012 145.788L531.9 146.082L535.722 132.42L530.823 133.717Z" fill="#625D5D" fill-opacity="0.47"/>
<path d="M537.806 140.841C537.781 139.757 538.129 138.724 538.852 137.742C539.204 137.263 539.586 136.861 539.997 136.538C539.444 136.427 538.988 136.149 538.627 135.705C538.267 135.261 538.079 134.686 538.062 133.979C538.046 133.267 538.171 132.605 538.439 131.995C538.711 131.384 539.072 130.877 539.522 130.476C539.976 130.068 540.472 129.793 541.009 129.651C541.827 129.434 542.533 129.575 543.126 130.074C543.719 130.573 544.027 131.3 544.049 132.256C544.074 133.304 543.663 134.326 542.818 135.322C542.593 135.584 542.35 135.829 542.092 136.057L542.56 136.218C543.394 136.512 543.956 136.964 544.248 137.573C544.457 137.995 544.569 138.487 544.582 139.047C544.595 139.602 544.514 140.141 544.34 140.665C544.17 141.182 543.938 141.639 543.642 142.036C543.008 142.896 542.266 143.439 541.416 143.664C540.811 143.824 540.239 143.829 539.699 143.677C539.163 143.525 538.717 143.205 538.361 142.717C538.008 142.222 537.823 141.597 537.806 140.841ZM541.04 136.823C540.426 137.206 539.895 137.751 539.448 138.457C539.005 139.163 538.791 139.833 538.806 140.466C538.821 141.094 538.955 141.579 539.208 141.923C539.696 142.584 540.417 142.789 541.37 142.536C541.745 142.437 542.077 142.254 542.366 141.987C542.66 141.72 542.888 141.466 543.051 141.227C543.42 140.676 543.596 140.029 543.578 139.285C543.562 138.567 543.347 138.026 542.934 137.663C542.586 137.363 542.128 137.132 541.561 136.97L541.04 136.823ZM539.898 135.24C540.147 135.401 540.389 135.524 540.623 135.609C540.857 135.694 540.983 135.741 541.001 135.748C541.688 135.18 542.146 134.758 542.376 134.483C542.84 133.925 543.064 133.293 543.048 132.586C543.032 131.879 542.817 131.369 542.406 131.055C541.994 130.741 541.521 130.655 540.988 130.796C540.455 130.937 539.997 131.282 539.615 131.831C539.232 132.38 539.049 133.001 539.065 133.696C539.081 134.384 539.359 134.899 539.898 135.24Z" fill="#625D5D" fill-opacity="0.47"/>
<path d="M545.852 132.965C545.832 132.1 545.978 131.243 546.29 130.394C546.637 129.463 547.124 128.746 547.754 128.242C548.093 127.968 548.466 127.778 548.872 127.67C549.884 127.402 550.692 127.746 551.296 128.701C551.904 129.65 552.231 131.117 552.278 133.103C552.334 135.527 552.021 137.501 551.338 139.024C550.655 140.547 549.686 141.474 548.43 141.807C548.114 141.891 547.768 141.884 547.393 141.787C547.018 141.69 546.76 141.547 546.619 141.358L546.99 140.276C547.535 140.647 548.049 140.768 548.532 140.64C549.359 140.421 550.036 139.724 550.563 138.548C551.09 137.373 551.362 135.84 551.377 133.948C551.372 133.955 551.344 134.018 551.292 134.136C551.245 134.252 551.202 134.35 551.163 134.427C551.128 134.504 551.07 134.614 550.987 134.759C550.908 134.902 550.829 135.031 550.75 135.143C550.671 135.25 550.569 135.372 550.445 135.509C550.325 135.645 550.201 135.764 550.071 135.866C549.759 136.102 549.424 136.267 549.067 136.361C548.15 136.604 547.391 136.419 546.791 135.806C546.194 135.185 545.882 134.238 545.852 132.965ZM546.855 132.709C546.877 133.659 547.087 134.36 547.483 134.813C547.88 135.26 548.399 135.398 549.041 135.228C549.741 135.043 550.293 134.544 550.697 133.733C550.936 133.253 551.108 132.637 551.213 131.886C551.07 130.048 550.546 129.016 549.641 128.79C549.404 128.731 549.172 128.731 548.946 128.79C548.72 128.85 548.513 128.942 548.325 129.065C548.137 129.188 547.95 129.36 547.764 129.581C547.583 129.801 547.423 130.052 547.284 130.334C546.976 130.967 546.833 131.758 546.855 132.709Z" fill="#625D5D" fill-opacity="0.47"/>
<path d="M554.159 137.21C553.982 136.644 553.853 136.059 553.771 135.456C553.693 134.851 553.646 134.205 553.63 133.517C553.614 132.822 553.63 132.147 553.679 131.49C553.727 130.828 553.825 130.159 553.973 129.482C554.121 128.799 554.311 128.194 554.544 127.667C554.782 127.138 555.096 126.678 555.487 126.286C555.883 125.887 556.329 125.622 556.826 125.491C557.323 125.359 557.764 125.386 558.15 125.572C558.536 125.758 558.852 126.051 559.098 126.452C559.348 126.851 559.559 127.347 559.732 127.939C560.034 129.005 560.203 130.287 560.237 131.786C560.316 135.179 559.727 137.495 558.469 138.735C558.092 139.111 557.654 139.365 557.157 139.496C556.665 139.627 556.217 139.607 555.813 139.438C555.414 139.268 555.082 138.998 554.819 138.626C554.56 138.247 554.34 137.775 554.159 137.21ZM554.634 133.269C554.683 135.408 554.958 136.876 555.458 137.675C555.855 138.324 556.417 138.552 557.145 138.36C557.944 138.148 558.502 137.584 558.817 136.667C559.017 136.087 559.137 135.494 559.178 134.889C559.239 133.984 559.26 133.148 559.242 132.38C559.224 131.613 559.199 131.003 559.166 130.553C559.132 130.102 559.081 129.646 559.011 129.187C558.946 128.726 558.853 128.331 558.732 128.001C558.615 127.671 558.474 127.383 558.309 127.139C557.97 126.628 557.491 126.454 556.872 126.618C555.287 127.038 554.54 129.255 554.634 133.269Z" fill="#625D5D" fill-opacity="0.47"/>
</g>
<defs>
<clipPath id="clip0">
<rect width="702" height="179" fill="white"/>
</clipPath>
</defs>
</svg>
