<svg width="4671" height="574" viewBox="0 0 4671 574" fill="none" xmlns="http://www.w3.org/2000/svg">
<path d="M0 0H4670V574C4670 574 3898.96 432.126 3604.5 446.168C3310.04 460.21 3080.61 389.094 2746 420.5C2411.39 451.906 2209.75 536.08 1358 561.5C506.254 586.92 0 505.856 0 505.856V0Z" fill="#E8E1F8"/>
<path d="M5.5 0.5L4670.5 0.500009V529.5C4670.5 529.5 4142.5 428.5 3612.5 442C3082.5 455.5 2892.72 409.644 2236 467C1579.28 524.357 1210.89 461.412 767 499.5C323.107 537.588 5.5 550 5.5 550V0.5Z" fill="#7D64B4"/>
</svg>
