<svg width="181" height="105" viewBox="0 0 181 105" fill="none" xmlns="http://www.w3.org/2000/svg">
<path opacity="0.4" d="M124.352 4.52742C96.0436 5.10848 95.3976 8.31459 75.5391 15.6795C69.03 18.0983 51.3193 10.8968 41.3438 10.8968C24.3035 10.8968 4.28103 25.4375 0.496157 41.4709C-1.69343 50.8737 9.40841 56.2116 11.1701 66.6458C11.1701 83.0587 23.9235 90.0317 36.3344 90.0317C48.3975 88.2515 52.3479 81.082 63.3009 80.2178C71.7845 79.5274 79.1223 83.8706 86.0273 88.2515C95.2846 94.1012 104.852 99.8521 115.479 102.828C119.967 104.082 124.576 104.809 129.348 104.809C134.456 104.809 139.754 103.977 145.298 102.077C151.433 99.9741 156.839 96.5557 161.465 92.194C166.395 87.5448 170.437 81.8306 173.525 75.5044C189.029 43.7488 169.807 43.2419 149.216 29.0253C138.74 21.7946 147.753 8.54945 124.352 4.52742Z" fill="white"/>
<path d="M147.37 13.7951L149.22 14.8704C149.483 15.0256 149.695 15.2551 149.828 15.5302C149.962 15.8054 150.012 16.1139 149.971 16.4171C149.849 17.3494 149.821 18.2916 149.888 19.2294C149.91 19.5436 149.837 19.8569 149.677 20.1285C149.518 20.4001 149.281 20.6172 148.997 20.7514L147.221 21.5785C146.868 21.7386 146.588 22.0251 146.435 22.3817C146.282 22.7383 146.268 23.1392 146.395 23.5057L147.138 25.5736C147.267 25.9398 147.529 26.2435 147.873 26.4231C148.216 26.6028 148.615 26.6451 148.988 26.5413L151.061 25.9954C151.361 25.9103 151.679 25.9186 151.974 26.019C152.269 26.1195 152.527 26.3074 152.713 26.5579C153.287 27.3044 153.935 27.9916 154.645 28.6092C154.889 28.8122 155.064 29.086 155.145 29.3928C155.226 29.6995 155.21 30.024 155.099 30.3214L154.356 32.1576C154.22 32.5188 154.225 32.918 154.371 33.2754C154.516 33.6328 154.791 33.9219 155.141 34.0849L157.123 35.0361C157.473 35.2008 157.872 35.2285 158.242 35.1137C158.612 34.999 158.925 34.75 159.121 34.4157L160.187 32.5629C160.341 32.297 160.572 32.0833 160.848 31.9492C161.125 31.8152 161.435 31.7668 161.739 31.8102C162.67 31.9341 163.611 31.9591 164.547 31.8847C164.864 31.859 165.182 31.9318 165.457 32.093C165.732 32.2543 165.95 32.4963 166.083 32.7863L166.909 34.5646C167.066 34.9187 167.35 35.2006 167.705 35.354C168.06 35.5073 168.46 35.5208 168.825 35.3917L170.906 34.6556C171.268 34.5255 171.569 34.2637 171.748 33.922C171.927 33.5804 171.971 33.1839 171.872 32.8111L171.327 30.7349C171.243 30.4346 171.252 30.116 171.352 29.8208C171.452 29.5256 171.639 29.2676 171.889 29.0807C172.633 28.5104 173.317 27.8646 173.928 27.1534C174.134 26.9107 174.409 26.7369 174.716 26.6555C175.023 26.5742 175.348 26.5892 175.646 26.6985L177.479 27.3685C177.84 27.5037 178.239 27.4989 178.596 27.3551C178.954 27.2112 179.245 26.9387 179.412 26.591L180.353 24.5976C180.521 24.2485 180.551 23.8486 180.436 23.4786C180.321 23.1087 180.07 22.7961 179.734 22.6042L177.876 21.5785C177.612 21.422 177.4 21.191 177.266 20.9144C177.133 20.6378 177.083 20.328 177.124 20.0235C177.247 19.0913 177.274 18.149 177.207 17.2112C177.181 16.8942 177.252 16.5767 177.412 16.3016C177.571 16.0265 177.811 15.807 178.099 15.6727L179.874 14.8456C180.229 14.687 180.51 14.4007 180.663 14.0436C180.816 13.6865 180.829 13.2848 180.7 12.9183L179.957 10.8257C179.827 10.4621 179.566 10.1603 179.225 9.97974C178.884 9.79913 178.489 9.75273 178.115 9.84965L176.051 10.4038C175.751 10.4854 175.433 10.4755 175.139 10.3753C174.845 10.2751 174.587 10.0892 174.399 9.84138C173.846 9.10269 173.218 8.42355 172.524 7.81489C172.281 7.60985 172.107 7.33457 172.026 7.02664C171.944 6.71871 171.96 6.39315 172.07 6.09443L172.756 4.26645C172.893 3.90515 172.889 3.50544 172.745 3.14682C172.601 2.7882 172.328 2.49693 171.979 2.33095L169.989 1.38801C169.64 1.2218 169.242 1.19335 168.873 1.30832C168.504 1.42329 168.192 1.67324 167.999 2.00836L166.925 3.86116C166.77 4.12488 166.541 4.33696 166.267 4.47085C165.992 4.60474 165.684 4.65449 165.381 4.61385C164.448 4.49144 163.504 4.46373 162.565 4.53114C162.237 4.57592 161.904 4.51306 161.615 4.35198C161.326 4.1909 161.097 3.94031 160.963 3.63783L160.137 1.8512C159.98 1.49515 159.695 1.21185 159.337 1.05836C158.98 0.90488 158.579 0.892625 158.213 1.02406L156.148 1.76022C155.783 1.89042 155.481 2.15315 155.3 2.49632C155.12 2.83949 155.075 3.23805 155.174 3.61301L155.727 5.68914C155.812 5.98938 155.804 6.30841 155.704 6.60387C155.603 6.89933 155.416 7.15726 155.166 7.34342C154.42 7.91868 153.734 8.56706 153.117 9.27892C152.914 9.52197 152.641 9.69613 152.335 9.77757C152.029 9.859 151.705 9.84373 151.408 9.73385L149.575 9.03905C149.213 8.90243 148.813 8.90745 148.455 9.0531C148.097 9.19875 147.806 9.47433 147.642 9.82484L146.701 11.8182C146.544 12.1716 146.525 12.5713 146.649 12.9377C146.773 13.304 147.03 13.6102 147.37 13.7951V13.7951ZM157.544 15.3584C158.11 14.1824 159.01 13.2002 160.132 12.5355C161.254 11.8708 162.546 11.5533 163.848 11.6229C165.149 11.6925 166.401 12.1461 167.446 12.9266C168.491 13.7071 169.282 14.7797 169.719 16.0094C170.157 17.2391 170.221 18.5709 169.905 19.8373C169.588 21.1036 168.905 22.2479 167.941 23.1262C166.976 24.0045 165.774 24.5774 164.486 24.773C163.197 24.9686 161.879 24.7781 160.699 24.2254C159.907 23.8547 159.196 23.3302 158.608 22.6825C158.02 22.0347 157.566 21.2765 157.272 20.4517C156.979 19.627 156.852 18.7521 156.899 17.8778C156.945 17.0035 157.164 16.1472 157.544 15.3584V15.3584Z" fill="#D0B8B8"/>
<path d="M157.511 15.9142L157.508 15.9217C156.052 19.1728 157.503 22.9905 160.749 24.4489L160.756 24.4523C164.002 25.9106 167.814 24.4574 169.27 21.2063L169.273 21.1987C170.729 17.9477 169.278 14.1299 166.032 12.6716L166.025 12.6682C162.779 11.2098 158.967 12.6631 157.511 15.9142Z" stroke="#917D65" stroke-width="1.81066" stroke-linecap="round" stroke-linejoin="round"/>
<path d="M38.2014 80.8846L39.4564 81.6141C39.635 81.7194 39.7787 81.8751 39.8694 82.0617C39.9601 82.2484 39.9938 82.4577 39.9662 82.6635C39.8834 83.2959 39.8646 83.9352 39.9102 84.5714C39.9249 84.7845 39.875 84.9971 39.767 85.1814C39.6591 85.3656 39.4981 85.5129 39.3051 85.604L38.1005 86.1651C37.8611 86.2738 37.6709 86.4681 37.5672 86.71C37.4635 86.952 37.4539 87.224 37.5402 87.4726L38.0445 88.8756C38.1316 89.124 38.3096 89.33 38.5426 89.4519C38.7756 89.5738 39.0462 89.6025 39.2995 89.5321L40.7058 89.1617C40.9092 89.104 41.1253 89.1096 41.3254 89.1778C41.5256 89.2459 41.7003 89.3734 41.8264 89.5433C42.216 90.0498 42.6552 90.516 43.1374 90.935C43.3027 91.0727 43.4212 91.2585 43.4764 91.4666C43.5316 91.6748 43.5208 91.8949 43.4456 92.0966L42.9413 93.3424C42.849 93.5874 42.8526 93.8583 42.9513 94.1008C43.05 94.3432 43.2366 94.5394 43.4736 94.6499L44.8182 95.2953C45.0559 95.407 45.3268 95.4258 45.5776 95.348C45.8284 95.2701 46.0412 95.1012 46.1741 94.8744L46.8969 93.6174C47.0018 93.437 47.1581 93.292 47.3457 93.201C47.5333 93.1101 47.7438 93.0772 47.9502 93.1067C48.5816 93.1908 49.2201 93.2077 49.8551 93.1572C50.0705 93.1398 50.286 93.1892 50.4724 93.2986C50.6588 93.408 50.8071 93.5722 50.8972 93.7689L51.4575 94.9754C51.5638 95.2157 51.7567 95.4069 51.9977 95.5109C52.2387 95.615 52.5099 95.6241 52.7573 95.5366L54.1692 95.0371C54.4153 94.9489 54.6192 94.7712 54.7406 94.5395C54.862 94.3077 54.8921 94.0387 54.8248 93.7857L54.455 92.3772C54.3981 92.1735 54.4041 91.9573 54.4721 91.757C54.5401 91.5567 54.6669 91.3817 54.836 91.2549C55.3411 90.868 55.8048 90.4299 56.2198 89.9474C56.3592 89.7827 56.5457 89.6648 56.7541 89.6096C56.9625 89.5544 57.1828 89.5646 57.3852 89.6387L58.629 90.0933C58.8739 90.185 59.1441 90.1818 59.3867 90.0842C59.6293 89.9866 59.8266 89.8017 59.9401 89.5658L60.5788 88.2134C60.6927 87.9766 60.7127 87.7053 60.6347 87.4543C60.5567 87.2032 60.3866 86.9912 60.1586 86.861L58.898 86.1651C58.7189 86.0589 58.575 85.9022 58.4843 85.7146C58.3936 85.5269 58.3602 85.3167 58.3881 85.1101C58.4711 84.4777 58.4899 83.8384 58.4441 83.2022C58.4263 82.9871 58.4747 82.7717 58.583 82.5851C58.6912 82.3984 58.8539 82.2495 59.0492 82.1584L60.2538 81.5972C60.4941 81.4896 60.6852 81.2954 60.789 81.0531C60.8928 80.8108 60.9018 80.5383 60.8141 80.2897L60.3099 78.87C60.2217 78.6233 60.0447 78.4186 59.8135 78.2961C59.5823 78.1735 59.3137 78.1421 59.0605 78.2078L57.6598 78.5838C57.4563 78.6392 57.2409 78.6324 57.0413 78.5644C56.8416 78.4964 56.6668 78.3703 56.5392 78.2022C56.1639 77.701 55.7377 77.2403 55.2674 76.8273C55.1023 76.6882 54.9841 76.5015 54.9289 76.2926C54.8738 76.0837 54.8844 75.8628 54.9592 75.6601L55.4243 74.4199C55.5172 74.1748 55.5146 73.9036 55.417 73.6603C55.3194 73.417 55.134 73.2194 54.8976 73.1068L53.5473 72.4671C53.3107 72.3543 53.0403 72.335 52.79 72.413C52.5398 72.491 52.3281 72.6606 52.1971 72.888L51.4687 74.145C51.3636 74.3239 51.2081 74.4678 51.0218 74.5586C50.8354 74.6495 50.6264 74.6832 50.421 74.6556C49.7877 74.5726 49.1476 74.5538 48.5105 74.5995C48.2882 74.6299 48.0621 74.5873 47.8661 74.478C47.6701 74.3687 47.5148 74.1987 47.4235 73.9935L46.8632 72.7813C46.7569 72.5398 46.563 72.3476 46.3208 72.2435C46.0785 72.1393 45.8059 72.131 45.5578 72.2202L44.1571 72.7196C43.9096 72.808 43.7043 72.9862 43.5819 73.219C43.4594 73.4518 43.4288 73.7222 43.496 73.9766L43.8714 75.3852C43.929 75.5889 43.9234 75.8053 43.8554 76.0057C43.7873 76.2062 43.66 76.3812 43.4904 76.5075C42.9847 76.8978 42.5192 77.3377 42.1009 77.8206C41.9629 77.9855 41.7774 78.1037 41.5698 78.1589C41.3622 78.2142 41.1426 78.2038 40.9411 78.1292L39.6973 77.6579C39.4519 77.5652 39.1806 77.5686 38.9376 77.6674C38.6946 77.7662 38.4977 77.9532 38.3863 78.191L37.7476 79.5434C37.641 79.7831 37.6285 80.0543 37.7126 80.3029C37.7967 80.5514 37.9712 80.7591 38.2014 80.8846V80.8846ZM45.104 81.9452C45.4878 81.1473 46.0986 80.481 46.8597 80.03C47.6207 79.579 48.4979 79.3636 49.3809 79.4108C50.2639 79.458 51.1132 79.7658 51.822 80.2953C52.5307 80.8249 53.0673 81.5526 53.3641 82.3868C53.6609 83.2211 53.7047 84.1247 53.49 84.9838C53.2753 85.8429 52.8117 86.6193 52.1575 87.2151C51.5033 87.811 50.6878 88.1997 49.8135 88.3324C48.9392 88.4651 48.0453 88.3358 47.2442 87.9609C46.7069 87.7094 46.2248 87.3536 45.8258 86.9141C45.4268 86.4746 45.1189 85.9602 44.9198 85.4007C44.7207 84.8411 44.6345 84.2476 44.6661 83.6544C44.6977 83.0613 44.8466 82.4803 45.104 81.9452V81.9452Z" fill="#E6CEA0"/>
<path d="M45.0818 82.3222L45.0795 82.3273C44.0917 84.533 45.0761 87.1231 47.2782 88.1125L47.2834 88.1148C49.4855 89.1042 52.0715 88.1182 53.0594 85.9126L53.0616 85.9075C54.0495 83.7018 53.0651 81.1117 50.8629 80.1223L50.8578 80.12C48.6557 79.1306 46.0697 80.1166 45.0818 82.3222Z" stroke="#DCB98F" stroke-width="1.6" stroke-linecap="round" stroke-linejoin="round"/>
<path d="M127.893 81.2649C153.956 73.0853 170.836 55.1923 153.956 52.7999C138.311 50.5826 38.4808 50.3301 52.2765 40.1763C63.313 32.0533 89.9165 21.2409 101.839 16.8501" stroke="url(#paint0_linear)" stroke-width="3.54534"/>
<rect x="60.823" y="14.1854" width="71.6292" height="69.7442" rx="6.45214" fill="#EFBA56"/>
<path d="M60.823 14.6376H134.337V34.123C134.337 37.6864 131.448 40.5751 127.885 40.5751H67.2751C63.7117 40.5751 60.823 37.6864 60.823 34.123V14.6376Z" fill="#BBA15E"/>
<path d="M58.938 12.3004H134.337V32.238C134.337 35.8014 131.448 38.6902 127.885 38.6902H65.3901C61.8267 38.6902 58.938 35.8014 58.938 32.238V12.3004Z" fill="#DFD4B7"/>
<path d="M59.938 13.3004H133.321V32.238C133.321 35.2491 130.88 37.6902 127.869 37.6902H65.3901C62.379 37.6902 59.938 35.2491 59.938 32.238V13.3004Z" fill="#FFBF1C" stroke="white" stroke-width="2"/>
<line x1="64.5917" y1="17.3908" x2="92.8602" y2="17.3908" stroke="white" stroke-width="1.12912"/>
<line x1="96.6293" y1="17.3908" x2="104.168" y2="17.3908" stroke="white" stroke-width="1.12912"/>
<line x1="106.052" y1="17.3908" x2="109.821" y2="17.3908" stroke="white" stroke-width="1.12912"/>
<line x1="111.706" y1="17.3908" x2="115.475" y2="17.3908" stroke="white" stroke-width="1.12912"/>
<line x1="97.4747" y1="80.1597" x2="97.4747" y2="40.5751" stroke="#AA875F" stroke-width="3"/>
<rect x="77.2307" y="29.9674" width="38.8137" height="17.4456" rx="2" fill="#FDFDFD"/>
<rect x="81.5706" y="33.0756" width="30.6608" height="3.21605" rx="0.552276" fill="#C4C4C4"/>
<rect x="81.5706" y="37.2884" width="24.2826" height="3.21605" rx="0.552276" fill="#C4C4C4"/>
<rect x="81.5706" y="41.5012" width="26.8184" height="3.21605" rx="0.552276" fill="#C4C4C4"/>
<path d="M36.6023 26.8136V31.8675" stroke="#D8BEE0" stroke-width="1.5" stroke-miterlimit="10"/>
<path d="M36.6023 45.7496V50.8035" stroke="#D8BEE0" stroke-width="1.5" stroke-miterlimit="10"/>
<path d="M31.8683 30.588L33.1478 32.7631" stroke="#D8BEE0" stroke-width="1.5" stroke-miterlimit="10"/>
<path d="M40.0569 44.79L41.3363 47.0291" stroke="#D8BEE0" stroke-width="1.5" stroke-miterlimit="10"/>
<path d="M27.1343 38.7765H29.6292" stroke="#D8BEE0" stroke-width="1.5" stroke-miterlimit="10"/>
<path d="M43.5115 38.7765H46.0704" stroke="#D8BEE0" stroke-width="1.5" stroke-miterlimit="10"/>
<path d="M31.8683 47.0291L33.1478 44.79" stroke="#D8BEE0" stroke-width="1.5" stroke-miterlimit="10"/>
<path d="M40.0569 32.7631L41.3363 30.588" stroke="#D8BEE0" stroke-width="1.5" stroke-miterlimit="10"/>
<path d="M26.2386 32.827L30.5888 35.322" stroke="#D8BEE0" stroke-width="1.5" stroke-miterlimit="10"/>
<path d="M42.6158 42.2951L46.966 44.79" stroke="#D8BEE0" stroke-width="1.5" stroke-miterlimit="10"/>
<path d="M26.2386 44.79L30.5888 42.2951" stroke="#D8BEE0" stroke-width="1.5" stroke-miterlimit="10"/>
<path d="M42.6158 35.322L46.966 32.827" stroke="#D8BEE0" stroke-width="1.5" stroke-miterlimit="10"/>
<path d="M59.1438 8.07382V11.0359" stroke="#B79BD2" stroke-width="2.04273" stroke-miterlimit="10"/>
<path d="M59.1438 19.3123V22.3615" stroke="#B79BD2" stroke-width="2.04273" stroke-miterlimit="10"/>
<path d="M52.9583 11.6457L55.5718 13.1268" stroke="#B79BD2" stroke-width="2.04273" stroke-miterlimit="10"/>
<path d="M62.7156 17.2214L65.3292 18.7896" stroke="#B79BD2" stroke-width="2.04273" stroke-miterlimit="10"/>
<path d="M52.9583 18.7896L55.5718 17.2214" stroke="#B79BD2" stroke-width="2.04273" stroke-miterlimit="10"/>
<path d="M62.7156 13.1268L65.3292 11.6457" stroke="#B79BD2" stroke-width="2.04273" stroke-miterlimit="10"/>
<path d="M99.2777 93.7295L139.055 70.4182L137.73 86.9367L99.2777 93.7295Z" fill="#714D95"/>
<path d="M99.2781 93.7296L138.836 73.0486L138.658 75.3319L99.2781 93.7296Z" fill="#714D95"/>
<path fill-rule="evenodd" clip-rule="evenodd" d="M130.17 60.089L96.0051 95.4687L154.845 88.7779L141.806 73.6178L99.278 93.7291L139.056 70.4206L130.17 60.089Z" fill="#8F72CE"/>
<g style="mix-blend-mode:soft-light" opacity="0.5">
<path d="M141.806 73.6182L154.872 88.7768L130.294 79.0651L141.806 73.6182Z" fill="#D1B3EE"/>
</g>
<g style="mix-blend-mode:soft-light" opacity="0.5">
<path d="M130.17 60.0892L139.041 70.4194L128.538 76.5758L130.17 60.0892Z" fill="#D1B3EE"/>
</g>
<defs>
<linearGradient id="paint0_linear" x1="105.853" y1="93.2141" x2="96.1289" y2="30.8143" gradientUnits="userSpaceOnUse">
<stop stop-color="#8F72CE"/>
<stop offset="1" stop-color="#8F72CE" stop-opacity="0"/>
</linearGradient>
</defs>
</svg>
