<svg width="211" height="127" viewBox="0 0 211 127" fill="none" xmlns="http://www.w3.org/2000/svg">
<path opacity="0.4" d="M111.193 0.0487671C81.3934 0.51759 81.2927 18.755 54.724 18.755C16.4396 14.3535 -2.70237 52.1327 16.4397 75.974C30.3179 84.0434 15.5963 115.242 34.1463 114.12C75.2092 111.559 75.7647 121.539 90.4384 124.689C102.563 127.286 142.2 125.864 156.189 122.189C172.723 117.845 166.554 99.9365 174.362 87.6744C194.59 55.9187 197.864 50.6985 170.998 36.4819C157.331 29.2512 141.725 4.0708 111.193 0.0487671Z" fill="white"/>
<path d="M57.9282 66.6556C57.9282 66.6556 67.1495 64.9237 76.3509 72.5735C85.5522 80.2234 84.5329 81.5509 99.6348 75.5896" stroke="url(#paint0_linear)" stroke-width="2.70675"/>
<path d="M105.431 72.5783L107.892 74.009C108.243 74.2155 108.524 74.5209 108.702 74.887C108.88 75.2531 108.946 75.6636 108.892 76.0672C108.73 77.3076 108.693 78.5613 108.782 79.8092C108.811 80.2272 108.713 80.6441 108.501 81.0055C108.29 81.3668 107.974 81.6557 107.596 81.8343L105.233 82.9348C104.763 83.1479 104.39 83.5291 104.187 84.0036C103.984 84.4781 103.965 85.0115 104.134 85.4992L105.123 88.2507C105.294 88.738 105.643 89.142 106.1 89.3811C106.557 89.6202 107.088 89.6764 107.585 89.5384L110.343 88.812C110.742 88.6988 111.165 88.7097 111.558 88.8434C111.95 88.9771 112.293 89.2271 112.54 89.5604C113.305 90.5537 114.166 91.4681 115.112 92.2899C115.436 92.5599 115.668 92.9243 115.776 93.3325C115.885 93.7407 115.864 94.1725 115.716 94.5681L114.727 97.0114C114.546 97.4919 114.553 98.0232 114.747 98.4987C114.94 98.9743 115.306 99.359 115.771 99.5758L118.408 100.841C118.874 101.061 119.406 101.097 119.897 100.945C120.389 100.792 120.807 100.461 121.067 100.016L122.485 97.5507C122.691 97.1969 122.997 96.9125 123.365 96.7341C123.733 96.5557 124.146 96.4913 124.551 96.5492C125.789 96.714 127.041 96.7472 128.287 96.6482C128.709 96.6141 129.132 96.7109 129.497 96.9255C129.863 97.1401 130.154 97.4621 130.331 97.8479L131.43 100.214C131.638 100.685 132.016 101.06 132.489 101.264C132.962 101.468 133.494 101.486 133.979 101.315L136.748 100.335C137.23 100.162 137.63 99.8137 137.869 99.3591C138.107 98.9045 138.166 98.3769 138.034 97.8809L137.308 95.1184C137.197 94.7188 137.209 94.2948 137.342 93.902C137.475 93.5092 137.724 93.1659 138.056 92.9172C139.046 92.1585 139.956 91.2991 140.77 90.3528C141.043 90.0298 141.409 89.7986 141.818 89.6903C142.226 89.5821 142.658 89.602 143.055 89.7475L145.495 90.639C145.975 90.8189 146.505 90.8125 146.981 90.6211C147.456 90.4297 147.844 90.0671 148.066 89.6044L149.319 86.952C149.542 86.4875 149.581 85.9555 149.428 85.4632C149.276 84.9709 148.942 84.555 148.495 84.2996L146.022 82.9348C145.671 82.7266 145.389 82.4192 145.211 82.0512C145.033 81.6832 144.968 81.2709 145.022 80.8657C145.185 79.6253 145.222 78.3716 145.132 77.1237C145.097 76.7019 145.192 76.2795 145.404 75.9134C145.617 75.5473 145.936 75.2553 146.319 75.0766L148.681 73.976C149.153 73.765 149.527 73.384 149.731 72.9089C149.935 72.4337 149.952 71.8992 149.78 71.4117L148.791 68.6272C148.618 68.1434 148.271 67.7419 147.818 67.5015C147.364 67.2612 146.838 67.1995 146.341 67.3285L143.594 68.0659C143.195 68.1744 142.772 68.1612 142.381 68.0279C141.989 67.8945 141.646 67.6472 141.396 67.3174C140.66 66.3345 139.824 65.4309 138.902 64.621C138.578 64.3482 138.346 63.9819 138.238 63.5722C138.13 63.1624 138.15 62.7292 138.297 62.3318L139.209 59.8995C139.392 59.4187 139.387 58.8869 139.195 58.4097C139.004 57.9325 138.64 57.5449 138.176 57.3241L135.528 56.0694C135.064 55.8483 134.534 55.8104 134.043 55.9634C133.552 56.1164 133.137 56.4489 132.88 56.8948L131.452 59.3602C131.245 59.7111 130.94 59.9933 130.575 60.1714C130.209 60.3496 129.8 60.4158 129.397 60.3617C128.155 60.1988 126.899 60.162 125.65 60.2517C125.214 60.3112 124.77 60.2276 124.386 60.0133C124.001 59.7989 123.697 59.4655 123.518 59.063L122.419 56.6857C122.21 56.212 121.83 55.835 121.355 55.6308C120.88 55.4266 120.345 55.4102 119.859 55.5851L117.112 56.5647C116.626 56.7379 116.223 57.0875 115.983 57.5441C115.743 58.0007 115.683 58.5311 115.815 59.03L116.551 61.7925C116.664 62.192 116.653 62.6165 116.52 63.0096C116.386 63.4028 116.137 63.746 115.804 63.9937C114.812 64.7591 113.899 65.6218 113.079 66.569C112.808 66.8924 112.444 67.1242 112.037 67.2325C111.63 67.3409 111.199 67.3206 110.804 67.1744L108.365 66.2499C107.883 66.0681 107.351 66.0748 106.875 66.2686C106.398 66.4624 106.012 66.8291 105.793 67.2954L104.541 69.9479C104.332 70.4181 104.307 70.9499 104.472 71.4374C104.637 71.9248 104.979 72.3322 105.431 72.5783ZM118.969 74.6584C119.721 73.0936 120.919 71.7867 122.412 70.9022C123.905 70.0178 125.625 69.5953 127.357 69.6879C129.089 69.7805 130.754 70.3841 132.144 71.4226C133.534 72.4612 134.587 73.8884 135.169 75.5246C135.751 77.1608 135.837 78.9329 135.416 80.618C134.995 82.303 134.085 83.8256 132.802 84.9942C131.519 86.1628 129.92 86.9252 128.205 87.1855C126.491 87.4457 124.737 87.1922 123.166 86.4567C122.112 85.9635 121.167 85.2657 120.384 84.4038C119.602 83.5419 118.998 82.533 118.607 81.4356C118.217 80.3382 118.048 79.1741 118.11 78.0107C118.172 76.8474 118.464 75.7079 118.969 74.6584Z" fill="#D0B8B8"/>
<path d="M118.925 75.398L118.921 75.408C116.983 79.7339 118.914 84.8137 123.233 86.7542L123.243 86.7587C127.562 88.6992 132.634 86.7655 134.571 82.4397L134.576 82.4296C136.513 78.1037 134.582 73.0239 130.263 71.0834L130.253 71.0789C125.934 69.1384 120.863 71.0721 118.925 75.398Z" stroke="#917D65" stroke-width="2.94298" stroke-linecap="round" stroke-linejoin="round"/>
<mask id="path-5-inside-1" fill="white">
<path d="M65.3533 40.5602L67.8858 42.0322C68.2462 42.2446 68.5361 42.5589 68.7191 42.9355C68.9021 43.3122 68.9701 43.7345 68.9146 44.1497C68.7474 45.4259 68.7095 46.7158 68.8015 47.9997C68.8312 48.4297 68.7305 48.8587 68.5126 49.2305C68.2947 49.6023 67.9699 49.8995 67.5805 50.0832L65.1498 51.2155C64.6667 51.4347 64.2828 51.8269 64.0737 52.3151C63.8645 52.8033 63.8451 53.3521 64.0193 53.8539L65.0368 56.6848C65.2125 57.1861 65.5718 57.6018 66.0419 57.8478C66.5121 58.0937 67.0581 58.1516 67.5692 58.0096L70.4069 57.2623C70.8173 57.1458 71.2533 57.157 71.6572 57.2946C72.061 57.4321 72.4136 57.6894 72.668 58.0323C73.4543 59.0542 74.3405 59.995 75.3135 60.8405C75.6471 61.1183 75.8861 61.4932 75.9975 61.9132C76.1089 62.3331 76.0872 62.7774 75.9353 63.1844L74.9178 65.6982C74.7316 66.1926 74.7388 66.7392 74.938 67.2285C75.1372 67.7177 75.5136 68.1135 75.9918 68.3366L78.7052 69.6388C79.1848 69.8643 79.7313 69.9022 80.2374 69.7451C80.7435 69.588 81.1728 69.2472 81.4411 68.7895L82.8995 66.2531C83.1112 65.889 83.4266 65.5965 83.8052 65.4129C84.1838 65.2294 84.6085 65.1631 85.0249 65.2226C86.299 65.3923 87.5875 65.4264 88.8688 65.3246C89.3034 65.2894 89.7382 65.389 90.1144 65.6098C90.4906 65.8306 90.7898 66.1619 90.9716 66.5588L92.1022 68.9934C92.3167 69.4782 92.706 69.864 93.1922 70.074C93.6784 70.2839 94.2258 70.3023 94.7251 70.1257L97.574 69.1179C98.0705 68.9398 98.482 68.5814 98.727 68.1137C98.972 67.646 99.0326 67.1031 98.8968 66.5928L98.1506 63.7506C98.0359 63.3395 98.048 62.9033 98.1852 62.4991C98.3224 62.095 98.5783 61.7418 98.9194 61.4859C99.9386 60.7053 100.874 59.8211 101.712 58.8475C101.993 58.5152 102.369 58.2773 102.79 58.1659C103.21 58.0546 103.655 58.0751 104.063 58.2248L106.573 59.142C107.067 59.3271 107.613 59.3205 108.102 59.1236C108.592 58.9266 108.99 58.5535 109.219 58.0775L110.508 55.3486C110.737 54.8707 110.778 54.3233 110.62 53.8168C110.463 53.3103 110.12 52.8825 109.66 52.6196L107.116 51.2155C106.755 51.0012 106.464 50.685 106.281 50.3064C106.098 49.9278 106.031 49.5036 106.087 49.0867C106.255 47.8105 106.292 46.5206 106.2 45.2368C106.164 44.8028 106.262 44.3681 106.48 43.9915C106.699 43.6149 107.027 43.3144 107.421 43.1306L109.852 41.9983C110.337 41.7811 110.722 41.3891 110.932 40.9003C111.141 40.4114 111.159 39.8615 110.982 39.3599L109.965 36.4951C109.787 35.9973 109.43 35.5842 108.963 35.337C108.497 35.0897 107.955 35.0262 107.444 35.1589L104.617 35.9176C104.207 36.0293 103.772 36.0157 103.369 35.8785C102.967 35.7413 102.614 35.4868 102.356 35.1476C101.599 34.1363 100.739 33.2066 99.7899 32.3733C99.4568 32.0926 99.2183 31.7158 99.107 31.2942C98.9957 30.8727 99.017 30.427 99.1681 30.018L100.106 27.5156C100.294 27.0209 100.289 26.4738 100.092 25.9828C99.895 25.4919 99.5208 25.0931 99.0438 24.8659L96.3191 23.575C95.8416 23.3475 95.296 23.3085 94.791 23.4659C94.286 23.6233 93.8588 23.9655 93.5945 24.4243L92.1248 26.9607C91.9127 27.3217 91.599 27.6121 91.2229 27.7954C90.8469 27.9787 90.4252 28.0468 90.0107 27.9911C88.7327 27.8236 87.4411 27.7856 86.1555 27.8779C85.707 27.9392 85.2508 27.8532 84.8553 27.6326C84.4598 27.4121 84.1464 27.0691 83.9622 26.655L82.8317 24.2091C82.617 23.7217 82.2259 23.3338 81.7371 23.1237C81.2483 22.9136 80.6981 22.8968 80.1975 23.0768L77.3711 24.0846C76.8717 24.2628 76.4574 24.6225 76.2103 25.0923C75.9632 25.5621 75.9014 26.1077 76.0371 26.621L76.7945 29.4632C76.9108 29.8742 76.8996 30.311 76.7623 30.7155C76.625 31.1199 76.3681 31.473 76.0257 31.7279C75.0054 32.5154 74.0661 33.403 73.222 34.3776C72.9435 34.7103 72.5693 34.9487 72.1503 35.0602C71.7314 35.1717 71.2883 35.1508 70.8817 35.0004L68.3719 34.0492C67.8767 33.8622 67.3293 33.869 66.8389 34.0684C66.3486 34.2678 65.9513 34.6451 65.7264 35.1249L64.4376 37.8539C64.2226 38.3377 64.1974 38.8848 64.3671 39.3864C64.5369 39.8879 64.889 40.307 65.3533 40.5602ZM79.2817 42.7003C80.0562 41.0903 81.2888 39.7458 82.8244 38.8358C84.3601 37.9258 86.1302 37.4911 87.9119 37.5864C89.6936 37.6817 91.4074 38.3027 92.8376 39.3712C94.2678 40.4398 95.3505 41.9081 95.9494 43.5915C96.5483 45.2749 96.6367 47.0982 96.2035 48.8318C95.7702 50.5654 94.8347 52.132 93.5147 53.3343C92.1946 54.5366 90.5489 55.321 88.7848 55.5888C87.0207 55.8565 85.2169 55.5957 83.6004 54.839C82.5163 54.3316 81.5434 53.6136 80.7383 52.7269C79.9332 51.8401 79.3118 50.8021 78.9101 49.673C78.5084 48.5439 78.3344 47.3463 78.3982 46.1494C78.462 44.9524 78.7623 43.7801 79.2817 42.7003Z"/>
</mask>
<path d="M65.3533 40.5602L67.8858 42.0322C68.2462 42.2446 68.5361 42.5589 68.7191 42.9355C68.9021 43.3122 68.9701 43.7345 68.9146 44.1497C68.7474 45.4259 68.7095 46.7158 68.8015 47.9997C68.8312 48.4297 68.7305 48.8587 68.5126 49.2305C68.2947 49.6023 67.9699 49.8995 67.5805 50.0832L65.1498 51.2155C64.6667 51.4347 64.2828 51.8269 64.0737 52.3151C63.8645 52.8033 63.8451 53.3521 64.0193 53.8539L65.0368 56.6848C65.2125 57.1861 65.5718 57.6018 66.0419 57.8478C66.5121 58.0937 67.0581 58.1516 67.5692 58.0096L70.4069 57.2623C70.8173 57.1458 71.2533 57.157 71.6572 57.2946C72.061 57.4321 72.4136 57.6894 72.668 58.0323C73.4543 59.0542 74.3405 59.995 75.3135 60.8405C75.6471 61.1183 75.8861 61.4932 75.9975 61.9132C76.1089 62.3331 76.0872 62.7774 75.9353 63.1844L74.9178 65.6982C74.7316 66.1926 74.7388 66.7392 74.938 67.2285C75.1372 67.7177 75.5136 68.1135 75.9918 68.3366L78.7052 69.6388C79.1848 69.8643 79.7313 69.9022 80.2374 69.7451C80.7435 69.588 81.1728 69.2472 81.4411 68.7895L82.8995 66.2531C83.1112 65.889 83.4266 65.5965 83.8052 65.4129C84.1838 65.2294 84.6085 65.1631 85.0249 65.2226C86.299 65.3923 87.5875 65.4264 88.8688 65.3246C89.3034 65.2894 89.7382 65.389 90.1144 65.6098C90.4906 65.8306 90.7898 66.1619 90.9716 66.5588L92.1022 68.9934C92.3167 69.4782 92.706 69.864 93.1922 70.074C93.6784 70.2839 94.2258 70.3023 94.7251 70.1257L97.574 69.1179C98.0705 68.9398 98.482 68.5814 98.727 68.1137C98.972 67.646 99.0326 67.1031 98.8968 66.5928L98.1506 63.7506C98.0359 63.3395 98.048 62.9033 98.1852 62.4991C98.3224 62.095 98.5783 61.7418 98.9194 61.4859C99.9386 60.7053 100.874 59.8211 101.712 58.8475C101.993 58.5152 102.369 58.2773 102.79 58.1659C103.21 58.0546 103.655 58.0751 104.063 58.2248L106.573 59.142C107.067 59.3271 107.613 59.3205 108.102 59.1236C108.592 58.9266 108.99 58.5535 109.219 58.0775L110.508 55.3486C110.737 54.8707 110.778 54.3233 110.62 53.8168C110.463 53.3103 110.12 52.8825 109.66 52.6196L107.116 51.2155C106.755 51.0012 106.464 50.685 106.281 50.3064C106.098 49.9278 106.031 49.5036 106.087 49.0867C106.255 47.8105 106.292 46.5206 106.2 45.2368C106.164 44.8028 106.262 44.3681 106.48 43.9915C106.699 43.6149 107.027 43.3144 107.421 43.1306L109.852 41.9983C110.337 41.7811 110.722 41.3891 110.932 40.9003C111.141 40.4114 111.159 39.8615 110.982 39.3599L109.965 36.4951C109.787 35.9973 109.43 35.5842 108.963 35.337C108.497 35.0897 107.955 35.0262 107.444 35.1589L104.617 35.9176C104.207 36.0293 103.772 36.0157 103.369 35.8785C102.967 35.7413 102.614 35.4868 102.356 35.1476C101.599 34.1363 100.739 33.2066 99.7899 32.3733C99.4568 32.0926 99.2183 31.7158 99.107 31.2942C98.9957 30.8727 99.017 30.427 99.1681 30.018L100.106 27.5156C100.294 27.0209 100.289 26.4738 100.092 25.9828C99.895 25.4919 99.5208 25.0931 99.0438 24.8659L96.3191 23.575C95.8416 23.3475 95.296 23.3085 94.791 23.4659C94.286 23.6233 93.8588 23.9655 93.5945 24.4243L92.1248 26.9607C91.9127 27.3217 91.599 27.6121 91.2229 27.7954C90.8469 27.9787 90.4252 28.0468 90.0107 27.9911C88.7327 27.8236 87.4411 27.7856 86.1555 27.8779C85.707 27.9392 85.2508 27.8532 84.8553 27.6326C84.4598 27.4121 84.1464 27.0691 83.9622 26.655L82.8317 24.2091C82.617 23.7217 82.2259 23.3338 81.7371 23.1237C81.2483 22.9136 80.6981 22.8968 80.1975 23.0768L77.3711 24.0846C76.8717 24.2628 76.4574 24.6225 76.2103 25.0923C75.9632 25.5621 75.9014 26.1077 76.0371 26.621L76.7945 29.4632C76.9108 29.8742 76.8996 30.311 76.7623 30.7155C76.625 31.1199 76.3681 31.473 76.0257 31.7279C75.0054 32.5154 74.0661 33.403 73.222 34.3776C72.9435 34.7103 72.5693 34.9487 72.1503 35.0602C71.7314 35.1717 71.2883 35.1508 70.8817 35.0004L68.3719 34.0492C67.8767 33.8622 67.3293 33.869 66.8389 34.0684C66.3486 34.2678 65.9513 34.6451 65.7264 35.1249L64.4376 37.8539C64.2226 38.3377 64.1974 38.8848 64.3671 39.3864C64.5369 39.8879 64.889 40.307 65.3533 40.5602ZM79.2817 42.7003C80.0562 41.0903 81.2888 39.7458 82.8244 38.8358C84.3601 37.9258 86.1302 37.4911 87.9119 37.5864C89.6936 37.6817 91.4074 38.3027 92.8376 39.3712C94.2678 40.4398 95.3505 41.9081 95.9494 43.5915C96.5483 45.2749 96.6367 47.0982 96.2035 48.8318C95.7702 50.5654 94.8347 52.132 93.5147 53.3343C92.1946 54.5366 90.5489 55.321 88.7848 55.5888C87.0207 55.8565 85.2169 55.5957 83.6004 54.839C82.5163 54.3316 81.5434 53.6136 80.7383 52.7269C79.9332 51.8401 79.3118 50.8021 78.9101 49.673C78.5084 48.5439 78.3344 47.3463 78.3982 46.1494C78.462 44.9524 78.7623 43.7801 79.2817 42.7003Z" fill="white" stroke="#DFDEDE" stroke-width="2.94298" mask="url(#path-5-inside-1)"/>
<path d="M79.2369 43.4611L79.2322 43.4715C77.2389 47.9221 79.2253 53.1486 83.6689 55.145L83.6792 55.1497C88.1228 57.1461 93.341 55.1566 95.3343 50.706L95.3389 50.6956C97.3322 46.245 95.3459 41.0185 90.9023 39.0221L90.892 39.0174C86.4484 37.0209 81.2302 39.0105 79.2369 43.4611Z" stroke="#DCB98F" stroke-width="2.60058" stroke-linecap="round" stroke-linejoin="round"/>
<mask id="path-7-inside-2" fill="white">
<path d="M51.4474 86.0602L53.4872 87.2459C53.7776 87.417 54.0111 87.6701 54.1585 87.9735C54.3059 88.2769 54.3607 88.6171 54.3159 88.9515C54.1813 89.9795 54.1508 91.0185 54.2249 92.0527C54.2488 92.3991 54.1677 92.7446 53.9922 93.0441C53.8167 93.3435 53.555 93.5829 53.2414 93.7309L51.2835 94.643C50.8943 94.8196 50.5851 95.1355 50.4166 95.5287C50.2481 95.9219 50.2325 96.364 50.3728 96.7682L51.1924 99.0485C51.3339 99.4523 51.6233 99.7871 52.0021 99.9852C52.3808 100.183 52.8205 100.23 53.2323 100.116L55.518 99.5136C55.8486 99.4198 56.1998 99.4289 56.5251 99.5396C56.8504 99.6504 57.1344 99.8577 57.3393 100.134C57.9726 100.957 58.6865 101.715 59.4702 102.396C59.7389 102.62 59.9315 102.922 60.0212 103.26C60.1109 103.598 60.0934 103.956 59.9711 104.284L59.1515 106.309C59.0015 106.707 59.0074 107.147 59.1678 107.541C59.3282 107.935 59.6314 108.254 60.0166 108.434L62.2022 109.483C62.5886 109.664 63.0287 109.695 63.4364 109.568C63.8441 109.442 64.1899 109.167 64.406 108.799L65.5807 106.756C65.7513 106.462 66.0053 106.227 66.3103 106.079C66.6152 105.931 66.9573 105.878 67.2928 105.926C68.3191 106.062 69.3569 106.09 70.389 106.008C70.739 105.979 71.0893 106.06 71.3923 106.238C71.6953 106.415 71.9364 106.682 72.0828 107.002L72.9934 108.963C73.1663 109.353 73.4798 109.664 73.8715 109.833C74.2631 110.002 74.704 110.017 75.1062 109.875L77.401 109.063C77.8009 108.92 78.1323 108.631 78.3297 108.254C78.527 107.878 78.5759 107.44 78.4665 107.029L77.8654 104.74C77.7731 104.409 77.7828 104.057 77.8933 103.732C78.0038 103.406 78.2099 103.122 78.4847 102.916C79.3056 102.287 80.0594 101.575 80.734 100.791C80.9605 100.523 81.2636 100.331 81.6024 100.242C81.9411 100.152 82.2991 100.168 82.6282 100.289L84.6498 101.028C85.0478 101.177 85.487 101.172 85.8813 101.013C86.2755 100.854 86.5964 100.554 86.7807 100.17L87.8189 97.9722C88.0041 97.5873 88.0365 97.1463 87.9098 96.7383C87.783 96.3303 87.5064 95.9857 87.1359 95.774L85.0869 94.643C84.7958 94.4704 84.562 94.2157 84.4146 93.9107C84.2672 93.6057 84.2128 93.264 84.2582 92.9283C84.3931 91.9003 84.4236 90.8613 84.3493 89.8271C84.3203 89.4776 84.399 89.1275 84.5749 88.8241C84.7508 88.5207 85.0153 88.2787 85.3328 88.1306L87.2907 87.2185C87.6813 87.0436 87.9918 86.7279 88.1606 86.3341C88.3293 85.9404 88.3438 85.4974 88.2014 85.0934L87.3818 82.7857C87.2385 82.3848 86.9507 82.0521 86.5749 81.8529C86.1991 81.6538 85.7626 81.6026 85.351 81.7095L83.0744 82.3206C82.7436 82.4106 82.3936 82.3996 82.0691 82.2891C81.7446 82.1786 81.4605 81.9736 81.2531 81.7003C80.6431 80.8858 79.9503 80.1369 79.1859 79.4657C78.9175 79.2396 78.7254 78.9361 78.6358 78.5965C78.5461 78.2569 78.5633 77.8979 78.685 77.5685L79.4409 75.5528C79.5919 75.1544 79.5877 74.7136 79.4291 74.3182C79.2705 73.9227 78.9691 73.6015 78.5849 73.4185L76.3902 72.3787C76.0055 72.1954 75.566 72.1641 75.1593 72.2908C74.7525 72.4176 74.4084 72.6932 74.1955 73.0628L73.0117 75.1059C72.8408 75.3967 72.5881 75.6306 72.2852 75.7782C71.9823 75.9258 71.6426 75.9807 71.3087 75.9359C70.2793 75.8009 69.2389 75.7703 68.2034 75.8447C67.8422 75.8941 67.4747 75.8247 67.1561 75.6471C66.8376 75.4695 66.5851 75.1932 66.4367 74.8596L65.5261 72.8895C65.3532 72.4969 65.0381 72.1844 64.6444 72.0152C64.2507 71.846 63.8075 71.8324 63.4043 71.9774L61.1276 72.7891C60.7254 72.9327 60.3917 73.2224 60.1926 73.6009C59.9936 73.9793 59.9438 74.4188 60.0531 74.8322L60.6632 77.1216C60.7569 77.4527 60.7478 77.8045 60.6372 78.1303C60.5266 78.4561 60.3197 78.7405 60.044 78.9458C59.2221 79.5802 58.4655 80.2951 57.7855 81.0801C57.5613 81.3481 57.2598 81.5402 56.9223 81.63C56.5849 81.7198 56.228 81.7029 55.9005 81.5818L53.8788 80.8156C53.48 80.665 53.039 80.6705 52.644 80.8311C52.249 80.9917 51.9291 81.2956 51.7479 81.6821L50.7098 83.8803C50.5366 84.27 50.5163 84.7107 50.653 85.1147C50.7897 85.5187 51.0733 85.8562 51.4474 86.0602ZM62.6666 87.784C63.2905 86.4872 64.2833 85.4042 65.5203 84.6712C66.7572 83.9382 68.183 83.5881 69.6182 83.6648C71.0534 83.7416 72.4338 84.2418 73.5858 85.1025C74.7378 85.9632 75.6099 87.1459 76.0924 88.5019C76.5748 89.8579 76.646 91.3265 76.297 92.7229C75.9481 94.1194 75.1945 95.3812 74.1312 96.3497C73.0679 97.3181 71.7423 97.95 70.3213 98.1656C68.9003 98.3813 67.4474 98.1712 66.1453 97.5617C65.272 97.153 64.4884 96.5747 63.8399 95.8604C63.1914 95.1461 62.6908 94.31 62.3673 93.4005C62.0437 92.4911 61.9036 91.5263 61.9549 90.5622C62.0063 89.5981 62.2482 88.6538 62.6666 87.784Z"/>
</mask>
<path d="M51.4474 86.0602L53.4872 87.2459C53.7776 87.417 54.0111 87.6701 54.1585 87.9735C54.3059 88.2769 54.3607 88.6171 54.3159 88.9515C54.1813 89.9795 54.1508 91.0185 54.2249 92.0527C54.2488 92.3991 54.1677 92.7446 53.9922 93.0441C53.8167 93.3435 53.555 93.5829 53.2414 93.7309L51.2835 94.643C50.8943 94.8196 50.5851 95.1355 50.4166 95.5287C50.2481 95.9219 50.2325 96.364 50.3728 96.7682L51.1924 99.0485C51.3339 99.4523 51.6233 99.7871 52.0021 99.9852C52.3808 100.183 52.8205 100.23 53.2323 100.116L55.518 99.5136C55.8486 99.4198 56.1998 99.4289 56.5251 99.5396C56.8504 99.6504 57.1344 99.8577 57.3393 100.134C57.9726 100.957 58.6865 101.715 59.4702 102.396C59.7389 102.62 59.9315 102.922 60.0212 103.26C60.1109 103.598 60.0934 103.956 59.9711 104.284L59.1515 106.309C59.0015 106.707 59.0074 107.147 59.1678 107.541C59.3282 107.935 59.6314 108.254 60.0166 108.434L62.2022 109.483C62.5886 109.664 63.0287 109.695 63.4364 109.568C63.8441 109.442 64.1899 109.167 64.406 108.799L65.5807 106.756C65.7513 106.462 66.0053 106.227 66.3103 106.079C66.6152 105.931 66.9573 105.878 67.2928 105.926C68.3191 106.062 69.3569 106.09 70.389 106.008C70.739 105.979 71.0893 106.06 71.3923 106.238C71.6953 106.415 71.9364 106.682 72.0828 107.002L72.9934 108.963C73.1663 109.353 73.4798 109.664 73.8715 109.833C74.2631 110.002 74.704 110.017 75.1062 109.875L77.401 109.063C77.8009 108.92 78.1323 108.631 78.3297 108.254C78.527 107.878 78.5759 107.44 78.4665 107.029L77.8654 104.74C77.7731 104.409 77.7828 104.057 77.8933 103.732C78.0038 103.406 78.2099 103.122 78.4847 102.916C79.3056 102.287 80.0594 101.575 80.734 100.791C80.9605 100.523 81.2636 100.331 81.6024 100.242C81.9411 100.152 82.2991 100.168 82.6282 100.289L84.6498 101.028C85.0478 101.177 85.487 101.172 85.8813 101.013C86.2755 100.854 86.5964 100.554 86.7807 100.17L87.8189 97.9722C88.0041 97.5873 88.0365 97.1463 87.9098 96.7383C87.783 96.3303 87.5064 95.9857 87.1359 95.774L85.0869 94.643C84.7958 94.4704 84.562 94.2157 84.4146 93.9107C84.2672 93.6057 84.2128 93.264 84.2582 92.9283C84.3931 91.9003 84.4236 90.8613 84.3493 89.8271C84.3203 89.4776 84.399 89.1275 84.5749 88.8241C84.7508 88.5207 85.0153 88.2787 85.3328 88.1306L87.2907 87.2185C87.6813 87.0436 87.9918 86.7279 88.1606 86.3341C88.3293 85.9404 88.3438 85.4974 88.2014 85.0934L87.3818 82.7857C87.2385 82.3848 86.9507 82.0521 86.5749 81.8529C86.1991 81.6538 85.7626 81.6026 85.351 81.7095L83.0744 82.3206C82.7436 82.4106 82.3936 82.3996 82.0691 82.2891C81.7446 82.1786 81.4605 81.9736 81.2531 81.7003C80.6431 80.8858 79.9503 80.1369 79.1859 79.4657C78.9175 79.2396 78.7254 78.9361 78.6358 78.5965C78.5461 78.2569 78.5633 77.8979 78.685 77.5685L79.4409 75.5528C79.5919 75.1544 79.5877 74.7136 79.4291 74.3182C79.2705 73.9227 78.9691 73.6015 78.5849 73.4185L76.3902 72.3787C76.0055 72.1954 75.566 72.1641 75.1593 72.2908C74.7525 72.4176 74.4084 72.6932 74.1955 73.0628L73.0117 75.1059C72.8408 75.3967 72.5881 75.6306 72.2852 75.7782C71.9823 75.9258 71.6426 75.9807 71.3087 75.9359C70.2793 75.8009 69.2389 75.7703 68.2034 75.8447C67.8422 75.8941 67.4747 75.8247 67.1561 75.6471C66.8376 75.4695 66.5851 75.1932 66.4367 74.8596L65.5261 72.8895C65.3532 72.4969 65.0381 72.1844 64.6444 72.0152C64.2507 71.846 63.8075 71.8324 63.4043 71.9774L61.1276 72.7891C60.7254 72.9327 60.3917 73.2224 60.1926 73.6009C59.9936 73.9793 59.9438 74.4188 60.0531 74.8322L60.6632 77.1216C60.7569 77.4527 60.7478 77.8045 60.6372 78.1303C60.5266 78.4561 60.3197 78.7405 60.044 78.9458C59.2221 79.5802 58.4655 80.2951 57.7855 81.0801C57.5613 81.3481 57.2598 81.5402 56.9223 81.63C56.5849 81.7198 56.228 81.7029 55.9005 81.5818L53.8788 80.8156C53.48 80.665 53.039 80.6705 52.644 80.8311C52.249 80.9917 51.9291 81.2956 51.7479 81.6821L50.7098 83.8803C50.5366 84.27 50.5163 84.7107 50.653 85.1147C50.7897 85.5187 51.0733 85.8562 51.4474 86.0602ZM62.6666 87.784C63.2905 86.4872 64.2833 85.4042 65.5203 84.6712C66.7572 83.9382 68.183 83.5881 69.6182 83.6648C71.0534 83.7416 72.4338 84.2418 73.5858 85.1025C74.7378 85.9632 75.6099 87.1459 76.0924 88.5019C76.5748 89.8579 76.646 91.3265 76.297 92.7229C75.9481 94.1194 75.1945 95.3812 74.1312 96.3497C73.0679 97.3181 71.7423 97.95 70.3213 98.1656C68.9003 98.3813 67.4474 98.1712 66.1453 97.5617C65.272 97.153 64.4884 96.5747 63.8399 95.8604C63.1914 95.1461 62.6908 94.31 62.3673 93.4005C62.0437 92.4911 61.9036 91.5263 61.9549 90.5622C62.0063 89.5981 62.2482 88.6538 62.6666 87.784Z" fill="#FFBD3E" stroke="#784100" stroke-opacity="0.1" stroke-width="4" mask="url(#path-7-inside-2)"/>
<path d="M62.6307 88.3969L62.6269 88.4052C61.0213 91.9902 62.6213 96.2001 66.2006 97.8082L66.2089 97.812C69.7882 99.4201 73.9914 97.8176 75.597 94.2326L75.6008 94.2243C77.2064 90.6393 75.6064 86.4294 72.0271 84.8213L72.0188 84.8175C68.4395 83.2094 64.2363 84.8119 62.6307 88.3969Z" stroke="#DCB98F" stroke-width="2.60058" stroke-linecap="round" stroke-linejoin="round"/>
<path d="M28.5801 94.7139V100.149" stroke="#FFBF1C" stroke-width="1.61328" stroke-miterlimit="10"/>
<path d="M28.5801 115.08V120.515" stroke="#FFBF1C" stroke-width="1.61328" stroke-miterlimit="10"/>
<path d="M23.4883 98.7733L24.8644 101.113" stroke="#FFBF1C" stroke-width="1.61328" stroke-miterlimit="10"/>
<path d="M32.2954 114.048L33.6715 116.456" stroke="#FFBF1C" stroke-width="1.61328" stroke-miterlimit="10"/>
<path d="M18.397 107.58H21.0803" stroke="#FFBF1C" stroke-width="1.61328" stroke-miterlimit="10"/>
<path d="M36.0107 107.58H38.7629" stroke="#FFBF1C" stroke-width="1.61328" stroke-miterlimit="10"/>
<path d="M23.4883 116.456L24.8644 114.048" stroke="#FFBF1C" stroke-width="1.61328" stroke-miterlimit="10"/>
<path d="M32.2954 101.113L33.6715 98.7733" stroke="#FFBF1C" stroke-width="1.61328" stroke-miterlimit="10"/>
<path d="M17.4336 101.181L22.1123 103.865" stroke="#FFBF1C" stroke-width="1.61328" stroke-miterlimit="10"/>
<path d="M35.0474 111.365L39.7261 114.048" stroke="#FFBF1C" stroke-width="1.61328" stroke-miterlimit="10"/>
<path d="M17.4336 114.048L22.1123 111.365" stroke="#FFBF1C" stroke-width="1.61328" stroke-miterlimit="10"/>
<path d="M35.0474 103.865L39.7261 101.181" stroke="#FFBF1C" stroke-width="1.61328" stroke-miterlimit="10"/>
<path d="M124.595 15.54V18.7258" stroke="#B79BD2" stroke-width="2.19699" stroke-miterlimit="10"/>
<path d="M124.595 27.6272V30.9067" stroke="#B79BD2" stroke-width="2.19699" stroke-miterlimit="10"/>
<path d="M117.942 19.3817L120.753 20.9745" stroke="#B79BD2" stroke-width="2.19699" stroke-miterlimit="10"/>
<path d="M128.436 25.3784L131.247 27.065" stroke="#B79BD2" stroke-width="2.19699" stroke-miterlimit="10"/>
<path d="M117.942 27.065L120.753 25.3784" stroke="#B79BD2" stroke-width="2.19699" stroke-miterlimit="10"/>
<path d="M128.436 20.9745L131.247 19.3817" stroke="#B79BD2" stroke-width="2.19699" stroke-miterlimit="10"/>
<path d="M31.1475 15.0028V18.6443" stroke="#ACE1E4" stroke-width="2.16451" stroke-miterlimit="10"/>
<path d="M31.1475 28.8188V32.5674" stroke="#ACE1E4" stroke-width="2.16451" stroke-miterlimit="10"/>
<path d="M23.5317 19.394L26.7496 21.2147" stroke="#ACE1E4" stroke-width="2.16451" stroke-miterlimit="10"/>
<path d="M35.5449 26.2486L38.7627 28.1765" stroke="#ACE1E4" stroke-width="2.16451" stroke-miterlimit="10"/>
<path d="M23.5317 28.1765L26.7496 26.2486" stroke="#ACE1E4" stroke-width="2.16451" stroke-miterlimit="10"/>
<path d="M35.5449 21.2147L38.7627 19.394" stroke="#ACE1E4" stroke-width="2.16451" stroke-miterlimit="10"/>
<path d="M9.01411 78.9569L58.6812 60.3524L57.0271 81.125L9.01411 78.9569Z" fill="#714D95"/>
<path d="M9.01445 78.957L58.408 63.658L58.1847 66.5305L9.01445 78.957Z" fill="#714D95"/>
<path fill-rule="evenodd" clip-rule="evenodd" d="M47.5869 44.6186L4.92795 80.2587L78.3973 88.3176L62.1161 65.2257L9.0143 78.9564L58.6825 60.3557L47.5869 44.6186Z" fill="#8F72CE"/>
<g style="mix-blend-mode:soft-light" opacity="0.5">
<path d="M62.1162 65.2261L78.43 88.3235L47.7419 68.9466L62.1162 65.2261Z" fill="#D1B3EE"/>
</g>
<g style="mix-blend-mode:soft-light" opacity="0.5">
<path d="M47.5869 44.6187L58.6639 60.3499L45.5487 65.2636L47.5869 44.6187Z" fill="#D1B3EE"/>
</g>
<path d="M205.257 87.6892L173.972 67.324L177.777 80.5649L205.257 87.6892Z" fill="#714D95"/>
<path d="M205.257 87.6892L174.583 69.4329L175.106 71.2629L205.257 87.6892Z" fill="#714D95"/>
<path fill-rule="evenodd" clip-rule="evenodd" d="M178.234 59.4746L207.8 89.222L166.399 81.2761L172.653 69.7557L205.256 87.6888L173.971 67.3261L178.234 59.4746Z" fill="#8F72CE"/>
<g style="mix-blend-mode:soft-light" opacity="0.5">
<path d="M172.653 69.756L166.381 81.2742L181.479 74.6127L172.653 69.756Z" fill="#D1B3EE"/>
</g>
<g style="mix-blend-mode:soft-light" opacity="0.5">
<path d="M178.234 59.4747L173.982 67.3255L182.243 72.7037L178.234 59.4747Z" fill="#D1B3EE"/>
</g>
<path d="M171.119 72.2389C171.119 72.2389 170.826 71.9028 157.573 69.7627C144.319 67.6227 156.71 52.4054 150.118 43.8751C143.525 35.3447 130.435 38.2602 118.664 34.0915C106.894 29.9227 98.9951 29.8745 98.9951 29.8745" stroke="url(#paint1_linear)" stroke-width="2.70675"/>
<defs>
<linearGradient id="paint0_linear" x1="60.0228" y1="65.231" x2="106.639" y2="85.6424" gradientUnits="userSpaceOnUse">
<stop stop-color="#7A5CBD" stop-opacity="0.73"/>
<stop offset="1" stop-color="#7A5CBD" stop-opacity="0"/>
</linearGradient>
<linearGradient id="paint1_linear" x1="170.882" y1="69.6806" x2="91.6088" y2="32.8815" gradientUnits="userSpaceOnUse">
<stop stop-color="#7A5CBD" stop-opacity="0.73"/>
<stop offset="1" stop-color="#7A5CBD" stop-opacity="0"/>
</linearGradient>
</defs>
</svg>
