<svg width="172" height="126" viewBox="0 0 172 126" fill="none" xmlns="http://www.w3.org/2000/svg">
<path opacity="0.4" d="M59.7556 0.606567C88.0642 1.18763 82.9782 15.3146 102.837 22.6795C109.346 25.0983 127.057 17.8968 137.032 17.8968C154.072 17.8968 167.299 33.8756 171.084 49.909C173.273 59.3119 168.967 63.2116 167.206 73.6457C167.206 90.0587 154.452 97.0317 142.041 97.0317C129.978 95.2515 126.028 88.082 115.075 87.2178C106.591 86.5274 99.2535 90.8706 92.3485 95.2515C83.0913 101.101 85.889 117.706 75.262 120.682C71.6836 127.044 55.7796 125.056 43.454 117.899C31.1481 107.959 10.4141 105.462 1.50993 87.2178C-1.4607 66.848 8.56848 50.2419 29.1601 36.0253C39.6355 28.7946 36.3546 4.6286 59.7556 0.606567Z" fill="white"/>
<path d="M12.6814 49.7129C4.39815 43.3411 -6.16333 23.0735 12.5118 10.3499C26.0524 1.12461 52.5297 11.716 68.8694 33.401C78.2252 45.8233 83.1666 59.8252 83.3643 71.7449" stroke="url(#paint0_linear)" stroke-width="2.01253" stroke-miterlimit="10"/>
<path d="M83.3643 72.6785C83.3643 73.0375 83.3643 73.3247 83.3643 73.6837" stroke="#FFBF1C" stroke-width="2.01253" stroke-miterlimit="10"/>
<path d="M133.16 100.405V105.619" stroke="#DCB145" stroke-width="2.01253" stroke-miterlimit="10"/>
<path d="M133.16 119.943V125.158" stroke="#DCB145" stroke-width="2.01253" stroke-miterlimit="10"/>
<path d="M128.268 104.299L129.59 106.543" stroke="#DCB145" stroke-width="2.01253" stroke-miterlimit="10"/>
<path d="M136.729 118.953L138.052 121.263" stroke="#DCB145" stroke-width="2.01253" stroke-miterlimit="10"/>
<path d="M123.376 112.748H125.954" stroke="#DCB145" stroke-width="2.01253" stroke-miterlimit="10"/>
<path d="M140.299 112.748H142.943" stroke="#DCB145" stroke-width="2.01253" stroke-miterlimit="10"/>
<path d="M128.268 121.263L129.59 118.953" stroke="#DCB145" stroke-width="2.01253" stroke-miterlimit="10"/>
<path d="M136.729 106.543L138.052 104.299" stroke="#DCB145" stroke-width="2.01253" stroke-miterlimit="10"/>
<path d="M122.451 106.609L126.946 109.184" stroke="#DCB145" stroke-width="2.01253" stroke-miterlimit="10"/>
<path d="M139.374 116.379L143.869 118.953" stroke="#DCB145" stroke-width="2.01253" stroke-miterlimit="10"/>
<path d="M122.451 118.953L126.946 116.379" stroke="#DCB145" stroke-width="2.01253" stroke-miterlimit="10"/>
<path d="M139.374 109.184L143.869 106.609" stroke="#DCB145" stroke-width="2.01253" stroke-miterlimit="10"/>
<path d="M43.0938 6.87531V9.11957" stroke="#FFBF1C" stroke-width="2.01253" stroke-miterlimit="10"/>
<path d="M43.0938 15.3902V17.7005" stroke="#FFBF1C" stroke-width="2.01253" stroke-miterlimit="10"/>
<path d="M38.4001 9.5816L40.3833 10.7037" stroke="#FFBF1C" stroke-width="2.01253" stroke-miterlimit="10"/>
<path d="M45.804 13.8061L47.7871 14.9942" stroke="#FFBF1C" stroke-width="2.01253" stroke-miterlimit="10"/>
<path d="M38.4001 14.9942L40.3833 13.8061" stroke="#FFBF1C" stroke-width="2.01253" stroke-miterlimit="10"/>
<path d="M45.804 10.7037L47.7871 9.5816" stroke="#FFBF1C" stroke-width="2.01253" stroke-miterlimit="10"/>
<path d="M23.6936 33.9367V36.181" stroke="#ACE1E4" stroke-width="2.01253" stroke-miterlimit="10"/>
<path d="M23.6936 42.4516V44.7619" stroke="#ACE1E4" stroke-width="2.01253" stroke-miterlimit="10"/>
<path d="M18.9998 36.643L20.9829 37.7651" stroke="#ACE1E4" stroke-width="2.01253" stroke-miterlimit="10"/>
<path d="M26.4038 40.8676L28.387 42.0557" stroke="#ACE1E4" stroke-width="2.01253" stroke-miterlimit="10"/>
<path d="M18.9998 42.0557L20.9829 40.8676" stroke="#ACE1E4" stroke-width="2.01253" stroke-miterlimit="10"/>
<path d="M26.4038 37.7651L28.387 36.643" stroke="#ACE1E4" stroke-width="2.01253" stroke-miterlimit="10"/>
<rect x="32.1196" y="19.1884" width="105.993" height="95.2596" fill="white"/>
<rect x="101.169" y="27.2385" width="28.8932" height="25.0424" rx="4.02505" fill="#4F2569" fill-opacity="0.16"/>
<g opacity="0.5">
<path opacity="0.2" fill-rule="evenodd" clip-rule="evenodd" d="M116.002 48.1363C120.978 48.1363 125.011 44.4561 125.011 39.9164C125.011 35.3766 120.978 31.6964 116.002 31.6964C111.027 31.6964 106.994 35.3766 106.994 39.9164C106.994 44.4561 111.027 48.1363 116.002 48.1363ZM114.662 34.1026C113.353 34.6683 112.5 36.0002 112.5 37.4776V37.997C112.5 38.6615 112.621 39.3198 112.858 39.9367C113.186 40.7926 113.869 41.4577 114.708 41.7492C115.542 42.0393 116.464 42.0393 117.298 41.7492C118.137 41.4577 118.82 40.7926 119.148 39.9367C119.385 39.3198 119.506 38.6615 119.506 37.997V37.4776C119.506 36.0002 118.653 34.6683 117.344 34.1026C116.486 33.7314 115.52 33.7314 114.662 34.1026Z" fill="#212448"/>
<path fill-rule="evenodd" clip-rule="evenodd" d="M113.933 41.3444L112.376 41.732C111.584 41.9291 110.923 42.4346 110.521 43.1118C110.345 43.4081 110.408 43.7806 110.641 44.0338C111.927 45.4256 113.851 46.3099 116.002 46.3099C118.153 46.3099 120.078 45.4254 121.363 44.0333C121.597 43.7801 121.66 43.4075 121.484 43.1112C121.082 42.4343 120.42 41.929 119.629 41.732L118.071 41.3444C117.835 41.5159 117.575 41.6531 117.298 41.7495C116.463 42.0396 115.541 42.0396 114.707 41.7495C114.43 41.6531 114.169 41.5159 113.933 41.3444Z" fill="#212448"/>
</g>
<rect x="70.1877" y="27.2385" width="28.8932" height="25.0424" rx="4.02505" fill="#4F2569" fill-opacity="0.16"/>
<g opacity="0.5">
<path opacity="0.2" fill-rule="evenodd" clip-rule="evenodd" d="M85.021 48.1363C89.9963 48.1363 94.0296 44.4561 94.0296 39.9164C94.0296 35.3766 89.9963 31.6964 85.021 31.6964C80.0457 31.6964 76.0125 35.3766 76.0125 39.9164C76.0125 44.4561 80.0457 48.1363 85.021 48.1363ZM83.6802 34.1026C82.3714 34.6683 81.5182 36.0002 81.5182 37.4776V37.997C81.5182 38.6615 81.6398 39.3198 81.8764 39.9367C82.2047 40.7926 82.8876 41.4577 83.7262 41.7492C84.5608 42.0393 85.4823 42.0393 86.3169 41.7492C87.1555 41.4577 87.8384 40.7926 88.1667 39.9367C88.4033 39.3198 88.5249 38.6615 88.5249 37.997V37.4776C88.5249 36.0002 87.6717 34.6683 86.3629 34.1026C85.5041 33.7314 84.539 33.7314 83.6802 34.1026Z" fill="#212448"/>
<path fill-rule="evenodd" clip-rule="evenodd" d="M82.9518 41.3444L81.3944 41.732C80.6025 41.9291 79.9413 42.4346 79.5391 43.1118C79.3631 43.4081 79.4262 43.7806 79.66 44.0338C80.9452 45.4256 82.8697 46.3099 85.0206 46.3099C87.1716 46.3099 89.0963 45.4254 90.3816 44.0333C90.6154 43.7801 90.6783 43.4075 90.5023 43.1112C90.1001 42.4343 89.439 41.929 88.6473 41.732L87.0897 41.3444C86.8537 41.5159 86.5934 41.6531 86.3161 41.7495C85.4815 42.0396 84.5599 42.0396 83.7253 41.7495C83.4481 41.6531 83.1878 41.5159 82.9518 41.3444Z" fill="#212448"/>
</g>
<rect x="39.2063" y="27.2385" width="28.8932" height="25.0424" rx="4.02505" fill="#4F2569" fill-opacity="0.16"/>
<g opacity="0.5">
<path opacity="0.2" fill-rule="evenodd" clip-rule="evenodd" d="M54.0396 48.1363C59.0149 48.1363 63.0482 44.4561 63.0482 39.9164C63.0482 35.3766 59.0149 31.6964 54.0396 31.6964C49.0643 31.6964 45.031 35.3766 45.031 39.9164C45.031 44.4561 49.0643 48.1363 54.0396 48.1363ZM52.6987 34.1026C51.39 34.6683 50.5368 36.0002 50.5368 37.4776V37.997C50.5368 38.6615 50.6584 39.3198 50.895 39.9367C51.2233 40.7926 51.9062 41.4577 52.7447 41.7492C53.5793 42.0393 54.5009 42.0393 55.3355 41.7492C56.1741 41.4577 56.8569 40.7926 57.1852 39.9367C57.4219 39.3198 57.5434 38.6615 57.5434 37.997V37.4776C57.5434 36.0002 56.6902 34.6683 55.3815 34.1026C54.5227 33.7314 53.5576 33.7314 52.6987 34.1026Z" fill="#212448"/>
<path fill-rule="evenodd" clip-rule="evenodd" d="M51.9704 41.3444L50.413 41.732C49.6211 41.929 48.9598 42.4346 48.5577 43.1118C48.3817 43.4081 48.4447 43.7806 48.6785 44.0338C49.9638 45.4256 51.8883 46.3099 54.0391 46.3099C56.1902 46.3099 58.1148 45.4254 59.4001 44.0333C59.6339 43.7801 59.6969 43.4075 59.5208 43.1112C59.1186 42.4343 58.4576 41.929 57.6658 41.732L56.1083 41.3444C55.8722 41.5159 55.612 41.6531 55.3347 41.7495C54.5001 42.0396 53.5785 42.0396 52.7439 41.7495C52.4667 41.6531 52.2064 41.5159 51.9704 41.3444Z" fill="#212448"/>
</g>
<rect x="101.169" y="54.6123" width="28.8932" height="25.0424" rx="4.02505" fill="#4F2569" fill-opacity="0.16"/>
<g opacity="0.5">
<path opacity="0.2" fill-rule="evenodd" clip-rule="evenodd" d="M116.002 75.5102C120.978 75.5102 125.011 71.83 125.011 67.2902C125.011 62.7504 120.978 59.0702 116.002 59.0702C111.027 59.0702 106.994 62.7504 106.994 67.2902C106.994 71.83 111.027 75.5102 116.002 75.5102ZM114.662 61.4765C113.353 62.0421 112.5 63.3741 112.5 64.8514V65.3709C112.5 66.0353 112.621 66.6937 112.858 67.3106C113.186 68.1664 113.869 68.8316 114.708 69.1231C115.542 69.4132 116.464 69.4132 117.298 69.1231C118.137 68.8316 118.82 68.1664 119.148 67.3106C119.385 66.6937 119.506 66.0353 119.506 65.3709V64.8514C119.506 63.3741 118.653 62.0421 117.344 61.4765C116.486 61.1053 115.52 61.1053 114.662 61.4765Z" fill="#212448"/>
<path fill-rule="evenodd" clip-rule="evenodd" d="M113.933 68.7182L112.376 69.1058C111.584 69.3029 110.923 69.8084 110.521 70.4856C110.345 70.7819 110.408 71.1544 110.641 71.4076C111.927 72.7995 113.851 73.6837 116.002 73.6837C118.153 73.6837 120.078 72.7993 121.363 71.4072C121.597 71.1539 121.66 70.7814 121.484 70.4851C121.082 69.8081 120.42 69.3028 119.629 69.1058L118.071 68.7182C117.835 68.8897 117.575 69.0269 117.298 69.1233C116.463 69.4134 115.541 69.4134 114.707 69.1233C114.43 69.0269 114.169 68.8897 113.933 68.7182Z" fill="#212448"/>
</g>
<rect x="70.1877" y="57.2385" width="28.8932" height="27.4449" rx="4.02505" fill="#4F2569" fill-opacity="0.16"/>
<g opacity="0.5">
<path opacity="0.2" fill-rule="evenodd" clip-rule="evenodd" d="M85.021 80.1412C89.9963 80.1412 94.0296 76.1079 94.0296 71.1326C94.0296 66.1573 89.9963 62.1241 85.021 62.1241C80.0457 62.1241 76.0125 66.1573 76.0125 71.1326C76.0125 76.1079 80.0457 80.1412 85.021 80.1412ZM83.6802 64.7612C82.3714 65.3811 81.5182 66.8408 81.5182 68.4599V69.0292C81.5182 69.7574 81.6398 70.4789 81.8764 71.155C82.2047 72.0929 82.8876 72.8219 83.7262 73.1414C84.5608 73.4593 85.4823 73.4593 86.3169 73.1413C87.1555 72.8219 87.8384 72.0929 88.1667 71.155C88.4033 70.4789 88.5249 69.7574 88.5249 69.0292V68.4599C88.5249 66.8408 87.6717 65.3811 86.3629 64.7612C85.5041 64.3544 84.539 64.3544 83.6802 64.7612Z" fill="#212448"/>
<path fill-rule="evenodd" clip-rule="evenodd" d="M82.9518 72.6977L81.3695 73.1292C80.5234 73.36 79.8357 73.9437 79.4628 74.7075C79.3282 74.9833 79.3856 75.3091 79.5791 75.5473C80.8637 77.1289 82.8241 78.1396 85.0205 78.1396C87.2172 78.1396 89.1778 77.1287 90.4625 75.5468C90.6559 75.3085 90.7133 74.9826 90.5786 74.7069C90.2056 73.9434 89.5181 73.3599 88.6722 73.1292L87.0897 72.6976C86.8537 72.8856 86.5934 73.036 86.3161 73.1416C85.4815 73.4596 84.5599 73.4596 83.7254 73.1416C83.4481 73.036 83.1878 72.8856 82.9518 72.6977Z" fill="#212448"/>
</g>
<rect x="39.2063" y="54.6123" width="28.8932" height="25.0424" rx="4.02505" fill="#4F2569" fill-opacity="0.16"/>
<g opacity="0.5">
<path opacity="0.2" fill-rule="evenodd" clip-rule="evenodd" d="M54.0396 75.5102C59.0149 75.5102 63.0482 71.83 63.0482 67.2902C63.0482 62.7504 59.0149 59.0702 54.0396 59.0702C49.0643 59.0702 45.031 62.7504 45.031 67.2902C45.031 71.83 49.0643 75.5102 54.0396 75.5102ZM52.6987 61.4765C51.39 62.0421 50.5368 63.3741 50.5368 64.8514V65.3709C50.5368 66.0353 50.6584 66.6937 50.895 67.3106C51.2233 68.1664 51.9062 68.8316 52.7447 69.1231C53.5793 69.4132 54.5009 69.4132 55.3355 69.1231C56.1741 68.8316 56.8569 68.1664 57.1852 67.3106C57.4219 66.6937 57.5434 66.0353 57.5434 65.3709V64.8514C57.5434 63.3741 56.6902 62.0421 55.3815 61.4765C54.5227 61.1053 53.5576 61.1053 52.6987 61.4765Z" fill="#212448"/>
<path fill-rule="evenodd" clip-rule="evenodd" d="M51.9704 68.7182L50.413 69.1058C49.6211 69.3029 48.9598 69.8084 48.5577 70.4856C48.3817 70.7819 48.4447 71.1544 48.6785 71.4076C49.9638 72.7995 51.8883 73.6837 54.0391 73.6837C56.1902 73.6837 58.1148 72.7993 59.4001 71.4071C59.6339 71.1539 59.6969 70.7814 59.5208 70.4851C59.1186 69.8081 58.4576 69.3028 57.6658 69.1058L56.1083 68.7182C55.8722 68.8897 55.612 69.0269 55.3347 69.1233C54.5001 69.4134 53.5785 69.4134 52.7439 69.1233C52.4667 69.0269 52.2064 68.8897 51.9704 68.7182Z" fill="#212448"/>
</g>
<rect x="101.169" y="81.9862" width="28.8932" height="25.0424" rx="4.02505" fill="#4F2569" fill-opacity="0.16"/>
<g opacity="0.5">
<path opacity="0.2" fill-rule="evenodd" clip-rule="evenodd" d="M116.002 102.884C120.978 102.884 125.011 99.2038 125.011 94.6641C125.011 90.1243 120.978 86.4441 116.002 86.4441C111.027 86.4441 106.994 90.1243 106.994 94.6641C106.994 99.2038 111.027 102.884 116.002 102.884ZM114.662 88.8503C113.353 89.416 112.5 90.7479 112.5 92.2253V92.7447C112.5 93.4092 112.621 94.0675 112.858 94.6844C113.186 95.5403 113.869 96.2054 114.708 96.4969C115.542 96.787 116.464 96.787 117.298 96.4969C118.137 96.2054 118.82 95.5403 119.148 94.6844C119.385 94.0675 119.506 93.4092 119.506 92.7447V92.2253C119.506 90.7479 118.653 89.416 117.344 88.8503C116.486 88.4791 115.52 88.4791 114.662 88.8503Z" fill="#212448"/>
<path fill-rule="evenodd" clip-rule="evenodd" d="M113.933 96.0921L112.376 96.4797C111.584 96.6767 110.923 97.1822 110.521 97.8595C110.345 98.1558 110.408 98.5283 110.641 98.7815C111.927 100.173 113.851 101.058 116.002 101.058C118.153 101.058 120.078 100.173 121.363 98.781C121.597 98.5278 121.66 98.1552 121.484 97.8589C121.082 97.182 120.42 96.6767 119.629 96.4797L118.071 96.0921C117.835 96.2636 117.575 96.4008 117.298 96.4972C116.463 96.7873 115.541 96.7873 114.707 96.4972C114.43 96.4008 114.169 96.2636 113.933 96.0921Z" fill="#212448"/>
</g>
<rect x="70.1877" y="81.9862" width="28.8932" height="25.0424" rx="4.02505" fill="#4F2569" fill-opacity="0.16"/>
<g opacity="0.5">
<path opacity="0.2" fill-rule="evenodd" clip-rule="evenodd" d="M85.021 102.884C89.9963 102.884 94.0296 99.2038 94.0296 94.6641C94.0296 90.1243 89.9963 86.4441 85.021 86.4441C80.0457 86.4441 76.0125 90.1243 76.0125 94.6641C76.0125 99.2038 80.0457 102.884 85.021 102.884ZM83.6802 88.8503C82.3714 89.416 81.5182 90.7479 81.5182 92.2253V92.7447C81.5182 93.4092 81.6398 94.0675 81.8764 94.6844C82.2047 95.5403 82.8876 96.2054 83.7262 96.4969C84.5608 96.787 85.4823 96.787 86.3169 96.4969C87.1555 96.2054 87.8384 95.5403 88.1667 94.6844C88.4033 94.0675 88.5249 93.4092 88.5249 92.7447V92.2253C88.5249 90.7479 87.6717 89.416 86.3629 88.8503C85.5041 88.4791 84.539 88.4791 83.6802 88.8503Z" fill="#212448"/>
<path fill-rule="evenodd" clip-rule="evenodd" d="M82.9518 96.0921L81.3944 96.4797C80.6025 96.6767 79.9413 97.1822 79.5391 97.8595C79.3631 98.1558 79.4262 98.5283 79.66 98.7815C80.9452 100.173 82.8697 101.058 85.0206 101.058C87.1716 101.058 89.0963 100.173 90.3816 98.781C90.6153 98.5278 90.6783 98.1552 90.5023 97.8589C90.1001 97.182 89.439 96.6767 88.6473 96.4797L87.0897 96.0921C86.8537 96.2636 86.5934 96.4008 86.3161 96.4972C85.4815 96.7873 84.5599 96.7873 83.7253 96.4972C83.4481 96.4008 83.1878 96.2636 82.9518 96.0921Z" fill="#212448"/>
</g>
<rect x="39.2063" y="81.9862" width="28.8932" height="25.0424" rx="4.02505" fill="#4F2569" fill-opacity="0.16"/>
<g opacity="0.5">
<path opacity="0.2" fill-rule="evenodd" clip-rule="evenodd" d="M54.0396 102.884C59.0149 102.884 63.0482 99.2038 63.0482 94.6641C63.0482 90.1243 59.0149 86.4441 54.0396 86.4441C49.0643 86.4441 45.031 90.1243 45.031 94.6641C45.031 99.2038 49.0643 102.884 54.0396 102.884ZM52.6987 88.8503C51.39 89.416 50.5368 90.7479 50.5368 92.2253V92.7447C50.5368 93.4092 50.6584 94.0675 50.895 94.6844C51.2233 95.5403 51.9062 96.2054 52.7447 96.4969C53.5793 96.787 54.5009 96.787 55.3355 96.4969C56.1741 96.2054 56.8569 95.5403 57.1852 94.6844C57.4219 94.0675 57.5434 93.4092 57.5434 92.7447V92.2253C57.5434 90.7479 56.6902 89.416 55.3815 88.8503C54.5227 88.4791 53.5576 88.4791 52.6987 88.8503Z" fill="#212448"/>
<path fill-rule="evenodd" clip-rule="evenodd" d="M51.9704 96.0921L50.413 96.4797C49.6211 96.6767 48.9598 97.1822 48.5577 97.8595C48.3817 98.1558 48.4447 98.5283 48.6785 98.7815C49.9638 100.173 51.8883 101.058 54.0391 101.058C56.1902 101.058 58.1148 100.173 59.4001 98.781C59.6339 98.5278 59.6969 98.1552 59.5208 97.8589C59.1186 97.182 58.4575 96.6767 57.6658 96.4797L56.1083 96.0921C55.8723 96.2636 55.612 96.4008 55.3347 96.4972C54.5001 96.7873 53.5785 96.7873 52.7439 96.4972C52.4666 96.4008 52.2064 96.2636 51.9704 96.0921Z" fill="#212448"/>
</g>
<rect x="55.5991" y="40.3342" width="60.3758" height="56.3507" rx="6.70842" fill="#FFD66D"/>
<circle cx="85.7869" cy="68.962" r="22.6773" fill="#FFBF1C"/>
<path d="M76.9692 62.2338C76.9692 58.1582 79.1171 54.4836 82.4115 52.9231C84.5735 51.899 87.0029 51.899 89.1649 52.9231C92.4593 54.4836 94.6071 58.1582 94.6071 62.2338V63.667C94.6071 65.5 94.3011 67.3163 93.7054 69.0182C92.879 71.3793 91.16 73.2144 89.0491 74.0185C86.9481 74.8189 84.6282 74.8189 82.5273 74.0185C80.4164 73.2144 78.6974 71.3793 77.871 69.0182C77.2753 67.3163 76.9692 65.5 76.9692 63.667V62.2338Z" fill="white"/>
<path opacity="0.4" fill-rule="evenodd" clip-rule="evenodd" d="M85.7869 91.6393C98.3113 91.6393 108.464 81.4864 108.464 68.962C108.464 56.4377 98.3113 46.2847 85.7869 46.2847C73.2626 46.2847 63.1096 56.4377 63.1096 68.962C63.1096 81.4864 73.2626 91.6393 85.7869 91.6393ZM82.4116 52.9231C79.1172 54.4836 76.9694 58.1582 76.9694 62.2338V63.667C76.9694 65.5 77.2754 67.3163 77.8711 69.0182C78.6975 71.3793 80.4165 73.2144 82.5274 74.0185C84.6284 74.8189 86.9483 74.8189 89.0492 74.0185C91.1601 73.2144 92.8791 71.3793 93.7055 69.0182C94.3012 67.3163 94.6073 65.5 94.6073 63.667V62.2338C94.6073 58.1582 92.4594 54.4836 89.165 52.9231C87.003 51.899 84.5736 51.899 82.4116 52.9231Z" fill="#BABABA"/>
<path fill-rule="evenodd" clip-rule="evenodd" d="M80.5782 72.9018L73.7821 74.7553C72.6521 75.0634 71.8048 76.001 71.6123 77.1564L71.3672 78.6268C71.3243 78.8843 71.3827 79.1492 71.5368 79.3599C74.7451 83.7493 79.9325 86.6006 85.7858 86.6006C91.6399 86.6006 96.8279 83.7486 100.036 79.3582C100.19 79.1475 100.249 78.8827 100.206 78.6252L99.9608 77.1564C99.7683 76.001 98.921 75.0634 97.791 74.7553L90.9945 72.9017C90.4004 73.3748 89.7452 73.7534 89.0472 74.0193C86.9463 74.8196 84.6264 74.8196 82.5255 74.0193C81.8275 73.7534 81.1724 73.3748 80.5782 72.9018Z" fill="#49236F"/>
<path d="M42.8783 64.8282L15.4988 48.8075L16.4179 60.1724L42.8783 64.8282Z" fill="#714D95"/>
<path d="M42.878 64.8282L15.6505 50.6172L15.7746 52.1881L42.878 64.8282Z" fill="#714D95"/>
<path fill-rule="evenodd" clip-rule="evenodd" d="M21.6074 41.6965L45.1308 66.0234L4.64295 61.4472L13.6076 51.0102L42.8781 64.8279L15.4981 48.8091L21.6074 41.6965Z" fill="#8F72CE"/>
<g style="mix-blend-mode:soft-light" opacity="0.5">
<path d="M13.6072 51.0105L4.62472 61.4464L21.5307 54.7528L13.6072 51.0105Z" fill="#D1B3EE"/>
</g>
<g style="mix-blend-mode:soft-light" opacity="0.5">
<path d="M21.6072 41.6965L15.5081 48.8083L22.738 53.0393L21.6072 41.6965Z" fill="#D1B3EE"/>
</g>
<defs>
<linearGradient id="paint0_linear" x1="-8.17592" y1="50.4193" x2="57.2337" y2="14.6277" gradientUnits="userSpaceOnUse">
<stop stop-color="#A37FDF"/>
<stop offset="1" stop-color="#8F72CE" stop-opacity="0"/>
</linearGradient>
</defs>
</svg>
