<svg width="300" height="40" viewBox="0 40 968 50" fill="none"
     xmlns="http://www.w3.org/2000/svg">
    <path d="M955.612 155.951C955.612 158.807 953.278 161.662 949.9 161.662C946.647 161.662 944.188 158.931 944.188 155.951C944.188 151.791 947.566 150.102 949.9 150.102C951.465 150.115 955.612 151.145 955.612 155.951ZM954.842 155.951C954.842 153.095 952.769 151.009 950.037 151.009C947.442 151.009 945.232 153.082 945.232 155.814C945.232 159.067 948.087 160.619 949.913 160.619C952.632 160.768 954.842 158.558 954.842 155.951ZM952.756 158.943H951.067L949.9 156.348H949.118V158.943H947.69V152.573H950.161C951.328 152.573 952.893 152.834 952.893 154.386C952.893 155.293 952.371 155.814 951.465 156.075L952.756 158.943ZM951.204 154.523C951.204 153.74 950.558 153.616 949.64 153.616H948.994V155.566H949.64C950.546 155.442 951.204 155.305 951.204 154.523Z" fill="#2E323B"/>
    <path d="M0 64.1293C0 54.0159 2.25833 44.9826 6.77499 37.0293C11.3898 28.9779 17.6248 22.7429 25.4799 18.3245C33.4331 13.8078 42.3191 11.5495 52.138 11.5495C63.626 11.5495 73.6903 14.4951 82.3309 20.3864C90.9714 26.2777 97.01 34.4274 100.447 44.8353H76.7341C74.3776 39.9259 71.0392 36.2438 66.7189 33.7891C62.4968 31.3344 57.5874 30.1071 51.9907 30.1071C46.0012 30.1071 40.6499 31.5308 35.9369 34.3783C31.3221 37.1275 27.6891 41.0551 25.038 46.1608C22.4851 51.2666 21.2087 57.2561 21.2087 64.1293C21.2087 70.9043 22.4851 76.8938 25.038 82.0978C27.6891 87.2035 31.3221 91.1802 35.9369 94.0276C40.6499 96.7769 46.0012 98.1515 51.9907 98.1515C57.5874 98.1515 62.4968 96.9242 66.7189 94.4695C71.0392 91.9166 74.3776 88.1854 76.7341 83.276H100.447C97.01 93.7822 90.9714 101.981 82.3309 107.872C73.7885 113.665 63.7242 116.562 52.138 116.562C42.3191 116.562 33.4331 114.353 25.4799 109.934C17.6248 105.417 11.3898 99.1825 6.77499 91.2293C2.25833 83.276 0 74.2427 0 64.1293Z" fill="#313944"/>
    <path d="M138.678 46.75C141.329 42.4297 144.766 39.0422 148.988 36.5875C153.308 34.1328 158.217 32.9054 163.716 32.9054V54.556H158.266C151.786 54.556 146.877 56.0779 143.538 59.1217C140.298 62.1655 138.678 67.4677 138.678 75.0282V115.678H118.058V34.0837H138.678V46.75Z" fill="#313944"/>
    <path d="M253.455 73.1135C253.455 76.0592 253.258 78.7103 252.865 81.0668H193.216C193.707 86.9581 195.769 91.5729 199.402 94.9113C203.035 98.2497 207.503 99.9189 212.805 99.9189C220.463 99.9189 225.913 96.6296 229.153 90.051H251.393C249.036 97.9061 244.519 104.386 237.843 109.492C231.166 114.5 222.967 117.004 213.247 117.004C205.391 117.004 198.322 115.285 192.038 111.849C185.852 108.314 180.992 103.356 177.457 96.9733C174.02 90.591 172.302 83.2269 172.302 74.8809C172.302 66.4367 174.02 59.0235 177.457 52.6413C180.893 46.259 185.705 41.3496 191.891 37.913C198.076 34.4764 205.195 32.7582 213.247 32.7582C221.003 32.7582 227.926 34.4274 234.013 37.7658C240.199 41.1042 244.961 45.8663 248.3 52.0522C251.736 58.1398 253.455 65.1603 253.455 73.1135ZM232.099 67.2222C232 61.9201 230.086 57.698 226.355 54.556C222.623 51.3157 218.058 49.6956 212.657 49.6956C207.552 49.6956 203.231 51.2666 199.697 54.4087C196.26 57.4525 194.149 61.7237 193.363 67.2222H232.099Z" fill="#313944"/>
    <path d="M263.203 74.5864C263.203 66.3385 264.823 59.0235 268.063 52.6413C271.402 46.259 275.869 41.3496 281.466 37.913C287.161 34.4764 293.494 32.7582 300.465 32.7582C306.553 32.7582 311.855 33.9855 316.372 36.4402C320.987 38.8949 324.669 41.9878 327.418 45.719V34.0837H348.185V115.678H327.418V103.748C324.767 107.578 321.085 110.769 316.372 113.322C311.757 115.776 306.406 117.004 300.318 117.004C293.445 117.004 287.161 115.236 281.466 111.702C275.869 108.167 271.402 103.208 268.063 96.826C264.823 90.3456 263.203 82.9324 263.203 74.5864ZM327.418 74.8809C327.418 69.8733 326.436 65.6021 324.472 62.0673C322.509 58.4344 319.857 55.6851 316.519 53.8195C313.181 51.8558 309.597 50.8739 305.767 50.8739C301.938 50.8739 298.403 51.8067 295.163 53.6723C291.923 55.5378 289.272 58.2871 287.21 61.9201C285.246 65.4548 284.264 69.6769 284.264 74.5864C284.264 79.4958 285.246 83.8161 287.21 87.5472C289.272 91.1802 291.923 93.9785 295.163 95.9423C298.502 97.9061 302.036 98.888 305.767 98.888C309.597 98.888 313.181 97.9552 316.519 96.0896C319.857 94.1258 322.509 91.3765 324.472 87.8418C326.436 84.2088 327.418 79.8885 327.418 74.8809Z" fill="#313944"/>
    <path d="M392.33 51.0212V90.4929C392.33 93.2421 392.969 95.255 394.245 96.5314C395.62 97.7097 397.878 98.2988 401.02 98.2988H410.593V115.678H397.633C380.253 115.678 371.564 107.234 371.564 90.3456V51.0212H361.843V34.0837H371.564V13.906H392.33V34.0837H410.593V51.0212H392.33Z" fill="#313944"/>
    <path d="M435.881 24.3631C432.248 24.3631 429.204 23.2339 426.75 20.9756C424.393 18.619 423.215 15.7225 423.215 12.2859C423.215 8.84931 424.393 6.00185 426.75 3.74352C429.204 1.387 432.248 0.20874 435.881 0.20874C439.514 0.20874 442.509 1.387 444.865 3.74352C447.32 6.00185 448.547 8.84931 448.547 12.2859C448.547 15.7225 447.32 18.619 444.865 20.9756C442.509 23.2339 439.514 24.3631 435.881 24.3631ZM446.044 34.0837V115.678H425.424V34.0837H446.044Z" fill="#313944"/>
    <path d="M500.438 96.6787L521.058 34.0837H543.003L512.81 115.678H487.772L457.726 34.0837H479.818L500.438 96.6787Z" fill="#313944"/>
    <path d="M648.845 73.1135C648.845 76.0592 648.648 78.7103 648.255 81.0668H588.606C589.097 86.9581 591.159 91.5729 594.792 94.9113C598.425 98.2497 602.892 99.9189 608.195 99.9189C615.853 99.9189 621.303 96.6296 624.543 90.051H646.783C644.426 97.9061 639.909 104.386 633.233 109.492C626.556 114.5 618.357 117.004 608.636 117.004C600.781 117.004 593.712 115.285 587.428 111.849C581.242 108.314 576.382 103.356 572.847 96.9733C569.41 90.591 567.692 83.2269 567.692 74.8809C567.692 66.4367 569.41 59.0235 572.847 52.6413C576.283 46.259 581.095 41.3496 587.281 37.913C593.466 34.4764 600.585 32.7582 608.636 32.7582C616.393 32.7582 623.316 34.4274 629.403 37.7658C635.589 41.1042 640.351 45.8663 643.69 52.0522C647.126 58.1398 648.845 65.1603 648.845 73.1135ZM627.489 67.2222C627.39 61.9201 625.476 57.698 621.745 54.556C618.013 51.3157 613.448 49.6956 608.047 49.6956C602.942 49.6956 598.621 51.2666 595.086 54.4087C591.65 57.4525 589.539 61.7237 588.753 67.2222H627.489Z" fill="#313944"/>
    <path d="M541.259 112.877C543.714 115.135 546.758 116.264 550.391 116.264C554.024 116.264 557.019 115.135 559.375 112.877C561.83 110.52 563.057 107.624 563.057 104.187C563.057 100.751 561.83 97.9032 559.375 95.6449C557.019 93.2884 554.024 92.1101 550.391 92.1101C546.758 92.1101 543.714 93.2884 541.259 95.6449C538.903 97.9032 537.725 100.751 537.725 104.187C537.725 107.624 538.903 110.52 541.259 112.877Z" fill="#7D64B4"/>
    <path d="M775.977 12.8758V115.679H755.358V48.8127L727.816 115.679H712.204L684.515 48.8127V115.679H663.896V12.8758H687.313L720.01 89.3154L752.707 12.8758H775.977Z" fill="#7D64B4"/>
    <path d="M791.061 74.5871C791.061 66.3393 792.681 59.0243 795.922 52.642C799.26 46.2598 803.727 41.3504 809.324 37.9138C815.019 34.4772 821.352 32.7589 828.324 32.7589C834.411 32.7589 839.713 33.9863 844.23 36.441C848.845 38.8957 852.527 41.9886 855.276 45.7198V34.0845H876.043V115.679H855.276V103.749C852.625 107.578 848.943 110.77 844.23 113.322C839.615 115.777 834.264 117.004 828.176 117.004C821.303 117.004 815.019 115.237 809.324 111.702C803.727 108.168 799.26 103.209 795.922 96.8268C792.681 90.3463 791.061 82.9331 791.061 74.5871ZM855.276 74.8817C855.276 69.8741 854.294 65.6029 852.331 62.0681C850.367 58.4352 847.716 55.6859 844.377 53.8203C841.039 51.8565 837.455 50.8747 833.626 50.8747C829.796 50.8747 826.262 51.8074 823.021 53.673C819.781 55.5386 817.13 58.2879 815.068 61.9208C813.104 65.4556 812.123 69.6777 812.123 74.5871C812.123 79.4965 813.104 83.8168 815.068 87.548C817.13 91.1809 819.781 93.9793 823.021 95.9431C826.36 97.9068 829.895 98.8887 833.626 98.8887C837.455 98.8887 841.039 97.9559 844.377 96.0904C847.716 94.1266 850.367 91.3773 852.331 87.8425C854.294 84.2096 855.276 79.8893 855.276 74.8817Z" fill="#7D64B4"/>
    <path d="M916.801 34.0845V115.679H896.182V34.0845H916.801Z" fill="#7D64B4"/>
    <path d="M957.793 6.68994V115.679H937.173V6.68994H957.793Z" fill="#7D64B4"/>
    <path d="M897.25 20.7668C899.704 23.0252 902.748 24.1543 906.381 24.1543C910.014 24.1543 913.009 23.0252 915.365 20.7668C917.82 18.4103 919.047 15.5137 919.047 12.0772C919.047 8.64057 917.82 5.79311 915.365 3.53477C913.009 1.17826 910.014 0 906.381 0C902.748 0 899.704 1.17826 897.25 3.53477C894.893 5.79311 893.715 8.64057 893.715 12.0772C893.715 15.5137 894.893 18.4103 897.25 20.7668Z" fill="#313944"/>
</svg>
