<svg width="119" height="81" viewBox="0 0 119 81" fill="none" xmlns="http://www.w3.org/2000/svg">
<g opacity="0.8">
<path opacity="0.8" d="M37.2186 50.5185C24.3479 33.3519 43.6033 33.3588 59.1298 22.3975C74.6571 11.4358 80.5772 -6.34223 93.4473 10.8239C106.318 27.9905 104.165 50.7929 88.6373 61.7537C73.1097 72.715 50.0891 67.6851 37.2186 50.5185Z" fill="#7D64B4"/>
<path opacity="0.8" d="M58.8198 34.5551C68.5297 25.4689 84.273 25.4689 93.9828 34.5551C103.693 43.6414 103.693 58.3726 93.9828 67.4589C84.273 76.5458 68.5297 76.5458 58.8198 67.4589C49.1092 58.3726 49.1092 43.6414 58.8198 34.5551Z" fill="#4E2A9E"/>
<path opacity="0.8" d="M38.6208 61.7943C42.1162 58.5227 47.7837 58.5227 51.2791 61.7943C54.7745 65.0652 54.7745 70.3687 51.2791 73.6403C47.7837 76.9103 42.1162 76.9103 38.6208 73.6403C35.1254 70.3687 35.1254 65.0652 38.6208 61.7943Z" fill="#6C49BA"/>
<path opacity="0.8" d="M33.0083 49.2398C35.0898 47.2918 38.4651 47.2918 40.5468 49.2398C42.6283 51.1876 42.6283 54.3461 40.5468 56.294C38.4651 58.2419 35.0898 58.2419 33.0083 56.294C30.9259 54.3461 30.9259 51.1884 33.0083 49.2398Z" fill="#6C49BA"/>
<path opacity="0.8" d="M64.6903 1.52079C66.737 -0.459713 70.1116 -0.512625 72.228 1.40191C74.3444 3.31717 74.4018 6.47422 72.355 8.45544C70.3083 10.4359 66.9338 10.4888 64.8173 8.57433C62.7008 6.65907 62.6444 3.50128 64.6903 1.52079Z" fill="#6C49BA"/>
</g>
<path d="M99.1033 19.1433H51.0014C47.9021 19.1433 45.3895 21.6558 45.3895 24.7552V71.2536C45.3895 74.353 47.9021 76.8655 51.0014 76.8655H99.1033C102.203 76.8655 104.715 74.353 104.715 71.2536V24.7552C104.715 21.6558 102.203 19.1433 99.1033 19.1433Z" fill="#FFC85F" stroke="#6F3F08"/>
<path d="M43.7861 17.5399H106.319V32.7721C106.319 35.8715 103.806 38.384 100.707 38.384H49.398C46.2988 38.384 43.7861 35.8715 43.7861 32.7721V17.5399Z" fill="#FFD66D" stroke="#6F3F08"/>
<path d="M47.7947 20.9872H71.8456" stroke="#6F3F08" stroke-width="0.7"/>
<path d="M75.0525 20.9872H81.4661" stroke="#6F3F08" stroke-width="0.7"/>
<path d="M83.0693 20.9872H86.2761" stroke="#6F3F08" stroke-width="0.7"/>
<path d="M87.8794 20.9872H91.0862" stroke="#6F3F08" stroke-width="0.7"/>
<path d="M76.0942 74.4604V40.7891" stroke="#6F3F08" stroke-width="0.7"/>
<path d="M83.0693 50.9706H68.6388C67.1776 50.9706 65.9932 52.1551 65.9932 53.6162V56.823C65.9932 58.2842 67.1776 59.4686 68.6388 59.4686H83.0693C84.5305 59.4686 85.7149 58.2842 85.7149 56.823V53.6162C85.7149 52.1551 84.5305 50.9706 83.0693 50.9706Z" fill="white" stroke="#6F3F08" stroke-width="0.7"/>
<path d="M60.4619 35.0556L60.6594 35.2239L60.9182 35.2446L62.8088 35.3955L62.9595 37.286L62.9802 37.5447L63.1485 37.7422L64.3787 39.1858L63.1485 40.6293L62.9802 40.8268L62.9595 41.0855L62.8088 42.976L60.9182 43.1269L60.6594 43.1476L60.4619 43.3159L59.0184 44.5461L57.575 43.3159L57.3774 43.1476L57.1187 43.1269L55.2281 42.976L55.0772 41.0855L55.0567 40.8268L54.8883 40.6293L53.6582 39.1858L54.8883 37.7422L55.0567 37.5447L55.0772 37.286L55.2281 35.3955L57.1187 35.2446L57.3774 35.2239L57.575 35.0556L59.0184 33.8254L60.4619 35.0556Z" fill="#F68909" stroke="#6F3F08"/>
<path d="M101.197 80.0723C110.496 80.0723 118.033 72.5347 118.033 63.2367C118.033 53.9386 110.496 46.401 101.197 46.401C91.8994 46.401 84.3618 53.9386 84.3618 63.2367C84.3618 72.5347 91.8994 80.0723 101.197 80.0723Z" fill="white" stroke="black"/>
<path d="M105.607 68.7487C105.871 69.0132 106.209 69.1455 106.621 69.1455C107.032 69.1455 107.37 69.0132 107.635 68.7487C107.9 68.4546 108.032 68.1166 108.032 67.7345C108.032 67.3523 107.9 67.029 107.635 66.7645C107.37 66.4704 107.032 66.3235 106.621 66.3235C106.209 66.3235 105.871 66.4704 105.607 66.7645C105.342 67.029 105.21 67.3523 105.21 67.7345C105.21 68.1166 105.342 68.4546 105.607 68.7487ZM108.032 60.6796H105.695V63.0165H109.884L108.032 60.6796ZM94.3188 68.7487C94.5834 69.0132 94.9214 69.1455 95.333 69.1455C95.7446 69.1455 96.0826 69.0132 96.3471 68.7487C96.6117 68.4546 96.744 68.1166 96.744 67.7345C96.744 67.3523 96.6117 67.029 96.3471 66.7645C96.0826 66.4704 95.7446 66.3235 95.333 66.3235C94.9214 66.3235 94.5834 66.4704 94.3188 66.7645C94.0543 67.029 93.922 67.3523 93.922 67.7345C93.922 68.1166 94.0543 68.4546 94.3188 68.7487ZM108.517 59.2686L111.339 63.0165V67.7345H109.443C109.443 68.4987 109.164 69.1601 108.605 69.7187C108.047 70.2772 107.385 70.5565 106.621 70.5565C105.857 70.5565 105.195 70.2772 104.637 69.7187C104.078 69.1601 103.799 68.4987 103.799 67.7345H98.155C98.155 68.4987 97.8756 69.1601 97.3172 69.7187C96.7587 70.2772 96.0973 70.5565 95.333 70.5565C94.5686 70.5565 93.9072 70.2772 93.3488 69.7187C92.7903 69.1601 92.511 68.4987 92.511 67.7345H90.615V57.3726C90.615 56.8728 90.8061 56.4319 91.1882 56.0498C91.5703 55.6675 92.0112 55.4766 92.511 55.4766H105.695V59.2686H108.517Z" fill="black"/>
<path d="M5.19721 0.762054H50.7801C53.6648 0.762054 56 3.09729 56 5.98199V23.3818C56 26.2665 53.6648 28.6017 50.7801 28.6017H34.4334L36.6771 34.0964L26.8096 28.6017H5.2201C2.3354 28.6017 0.000166915 26.2665 0.000166915 23.3818V5.98199C-0.0227275 3.12018 2.31251 0.762054 5.19721 0.762054Z" fill="#7D57A4"/>
<path d="M3.18904 5.51978C3.50774 5.08726 3.98579 4.85962 4.62319 4.81409C5.78416 4.72303 6.44432 5.26937 6.60367 6.45311C7.30936 11.2108 8.08335 15.2401 8.90286 18.5409L13.8882 9.04824C14.3435 8.18319 14.9126 7.72791 15.5955 7.68238C16.5972 7.61409 17.2118 8.25149 17.4622 9.59458C18.0313 12.6222 18.7598 15.1946 19.6248 17.3799C20.2167 11.5978 21.2183 7.43198 22.6297 4.85962C22.9712 4.22222 23.472 3.90352 24.1321 3.85799C24.6557 3.81246 25.1338 3.97181 25.5663 4.31328C25.9988 4.65474 26.2264 5.08726 26.272 5.61084C26.2947 6.02059 26.2264 6.36206 26.0443 6.70352C25.1565 8.34255 24.4281 11.097 23.8362 14.9214C23.2671 18.632 23.0622 21.523 23.1988 23.5946C23.2443 24.1637 23.1533 24.6645 22.9256 25.097C22.6525 25.5978 22.2427 25.871 21.7191 25.9165C21.1273 25.9621 20.5126 25.6889 19.9207 25.0743C17.8037 22.9117 16.1191 19.6791 14.8899 15.3767C13.4102 18.2905 12.3175 20.4759 11.6118 21.9328C10.2687 24.5051 9.1305 25.8255 8.17441 25.8938C7.55977 25.9393 7.03619 25.4157 6.58091 24.323C5.41993 21.3409 4.1679 15.5816 2.82481 7.04498C2.73375 6.45311 2.87034 5.92954 3.18904 5.51978ZM52.1094 9.09376C51.2899 7.65962 50.0834 6.79458 48.4671 6.45311C48.0346 6.36206 47.6248 6.31653 47.2378 6.31653C45.0525 6.31653 43.2768 7.45474 41.8882 9.73116C40.7045 11.6661 40.1126 13.806 40.1126 16.1507C40.1126 17.9035 40.4768 19.406 41.2053 20.658C42.0248 22.0921 43.2313 22.9572 44.8476 23.2986C45.2801 23.3897 45.6899 23.4352 46.0768 23.4352C48.285 23.4352 50.0606 22.297 51.4264 20.0206C52.6102 18.0629 53.202 15.923 53.202 13.5783C53.2248 11.8027 52.8378 10.323 52.1094 9.09376ZM49.2411 15.3995C48.9224 16.9019 48.3533 18.0173 47.511 18.7686C46.8508 19.3604 46.2362 19.6108 45.6671 19.497C45.1207 19.3832 44.6655 18.9051 44.324 18.0173C44.0508 17.3117 43.9142 16.606 43.9142 15.9458C43.9142 15.3767 43.9598 14.8076 44.0736 14.284C44.2785 13.3507 44.6655 12.4401 45.2801 11.5751C46.0313 10.4596 46.8281 10.0043 47.6476 10.1637C48.1939 10.2775 48.6492 10.7556 48.9907 11.6434C49.2638 12.349 49.4004 13.0547 49.4004 13.7149C49.4004 14.3068 49.3549 14.8759 49.2411 15.3995ZM37.859 9.09376C37.0394 7.65962 35.8102 6.79458 34.2167 6.45311C33.7842 6.36206 33.3744 6.31653 32.9874 6.31653C30.802 6.31653 29.0264 7.45474 27.6378 9.73116C26.4541 11.6661 25.8622 13.806 25.8622 16.1507C25.8622 17.9035 26.2264 19.406 26.9549 20.658C27.7744 22.0921 28.9809 22.9572 30.5972 23.2986C31.0297 23.3897 31.4394 23.4352 31.8264 23.4352C34.0346 23.4352 35.8102 22.297 37.176 20.0206C38.3598 18.0629 38.9516 15.923 38.9516 13.5783C38.9516 11.8027 38.5874 10.323 37.859 9.09376ZM34.9679 15.3995C34.6492 16.9019 34.0801 18.0173 33.2378 18.7686C32.5777 19.3604 31.963 19.6108 31.3939 19.497C30.8476 19.3832 30.3923 18.9051 30.0508 18.0173C29.7777 17.3117 29.6411 16.606 29.6411 15.9458C29.6411 15.3767 29.6866 14.8076 29.8004 14.284C30.0053 13.3507 30.3923 12.4401 31.0069 11.5751C31.7581 10.4596 32.5549 10.0043 33.3744 10.1637C33.9207 10.2775 34.376 10.7556 34.7175 11.6434C34.9907 12.349 35.1273 13.0547 35.1273 13.7149C35.15 14.3068 35.0817 14.8759 34.9679 15.3995Z" fill="white"/>
</svg>
