<svg width="295" height="44" viewBox="0 0 295 44" fill="none" xmlns="http://www.w3.org/2000/svg">
<path d="M20.0442 24.9106C20.0442 26.826 19.4285 28.2488 18.1972 29.1791C16.9933 30.1094 15.2968 30.5746 13.1078 30.5746C9.60545 30.5746 7.01971 29.4117 5.35061 27.0859C3.70887 24.7601 2.888 21.7229 2.888 17.9743C2.888 17.3723 2.91536 16.4967 2.97009 15.3475H0.671652C0.452754 15.3475 0.343304 15.2654 0.343304 15.1012C0.343304 14.6361 0.575884 14.0751 1.04104 13.4184C1.5062 12.7617 2.01241 12.4334 2.55965 12.4334H3.33948C3.69519 10.4633 4.2698 8.7258 5.0633 7.22087C5.88417 5.71594 6.73241 4.55304 7.608 3.73217C8.51096 2.9113 9.496 2.25461 10.5631 1.76208C12.2596 0.941214 14.0381 0.530779 15.8988 0.530779C17.7594 0.530779 18.9223 0.831765 19.3875 1.43374C19.6064 1.73472 19.7158 2.29565 19.7158 3.11652C19.7158 3.91003 19.6201 4.30678 19.4285 4.30678C19.4012 4.30678 19.278 4.25205 19.0591 4.14261C18.3477 3.81426 17.4584 3.65009 16.3913 3.65009C14.0655 3.65009 12.2459 4.47095 10.9325 6.11269C9.64649 7.75443 8.78458 9.86133 8.34678 12.4334C10.4263 12.406 13.2446 12.3923 16.8017 12.3923C17.0754 12.3923 17.2122 12.4881 17.2122 12.6797C17.2122 13.1174 16.9933 13.6784 16.5555 14.3624C16.1177 15.0191 15.6252 15.3475 15.0779 15.3475H8.01844C7.99107 15.6758 7.97739 16.4009 7.97739 17.5228C7.97739 18.6173 8.16893 19.7802 8.552 21.0115C8.96244 22.2154 9.70122 23.2415 10.7683 24.0897C11.8628 24.938 13.272 25.3621 14.9958 25.3621C16.7197 25.3621 18.1699 24.979 19.3464 24.2129C19.4832 24.1034 19.6064 24.0487 19.7158 24.0487C19.9347 24.0487 20.0442 24.336 20.0442 24.9106ZM21.4207 25.9777L22.2416 26.1009C23.856 26.1009 25.4704 24.7191 27.0847 21.9555C27.1668 21.8187 27.2763 21.6545 27.4131 21.463C26.2091 19.2466 25.1557 17.4817 24.2527 16.1683C23.3771 14.855 22.7889 14.1025 22.4879 13.911L22.0774 13.5826C21.6944 13.4184 21.5028 13.2132 21.5028 12.967C21.5028 12.6112 21.9953 12.2282 22.9804 11.8177C23.9928 11.4073 24.9368 11.1747 25.8124 11.12C26.2775 11.0926 26.7153 11.4347 27.1258 12.1461C27.8919 13.2679 28.8222 14.9781 29.9167 17.2765V17.3586C31.2028 15.1696 32.0236 13.6237 32.3793 12.7207C32.3793 12.3103 32.7214 11.9956 33.4054 11.7767C34.0895 11.5578 34.9377 11.4483 35.9501 11.4483C36.9625 11.4483 37.4687 11.6125 37.4687 11.9409C37.4687 12.0777 37.3456 12.2282 37.0993 12.3923C36.9352 12.4744 36.6889 12.6386 36.3606 12.8849C36.0596 13.1311 35.4029 13.8562 34.3905 15.0602C33.3781 16.2368 32.352 17.687 31.3122 19.4108C31.2575 19.4929 31.2164 19.575 31.1891 19.657C32.7761 22.5301 33.7201 24.1855 34.0211 24.6233C34.3221 25.0337 34.5546 25.3758 34.7188 25.6494C34.9104 25.923 35.2661 26.3198 35.786 26.8397C36.3332 27.3595 36.8394 27.6879 37.3046 27.8247C37.7971 27.9615 38.0433 28.153 38.0433 28.3993C38.0433 28.7824 37.5508 29.2475 36.5658 29.7948C35.5807 30.3147 34.6641 30.5746 33.8159 30.5746C33.2139 30.5746 32.7487 30.3694 32.4204 29.959C31.8458 29.2749 30.5871 27.2364 28.6444 23.8435C26.9479 26.6618 25.9355 28.3035 25.6072 28.7687C25.2788 29.2065 24.8684 29.6032 24.3759 29.959C23.8833 30.3147 23.3361 30.4925 22.7341 30.4925C22.1595 30.4925 21.6807 30.301 21.2976 29.9179C20.9419 29.5348 20.7367 29.1518 20.682 28.7687L20.5999 28.1941C20.5999 26.7165 20.8735 25.9777 21.4207 25.9777ZM51.766 25.28C51.766 26.8397 51.1366 28.1394 49.878 29.1791C48.6467 30.1915 47.1691 30.6977 45.4453 30.6977C42.9279 30.6977 41.081 29.9453 39.9044 28.4403C38.7278 26.9081 38.1395 24.8422 38.1395 22.2428C38.1395 19.4792 38.7552 17.0303 39.9865 14.896C40.5885 13.8015 41.4504 12.9396 42.5722 12.3103C43.6941 11.6809 45.0075 11.3663 46.5124 11.3663C48.7835 11.3663 50.3842 12.1324 51.3145 13.6647C51.6976 14.294 51.8891 15.0328 51.8891 15.881C51.8891 17.1944 51.3419 18.1795 50.2474 18.8362C49.8096 19.0824 49.3991 19.2056 49.0161 19.2056C48.6604 19.2056 48.3594 19.1919 48.1131 19.1645C47.8942 19.1098 47.5932 18.9183 47.2101 18.5899C46.8271 18.2616 46.6355 17.8101 46.6355 17.2355C46.6629 16.9345 46.8955 16.6882 47.3333 16.4967C47.7437 16.2504 47.9489 15.8126 47.9489 15.1833C47.9489 14.1162 47.2922 13.5826 45.9788 13.5826C45.6505 13.5826 45.2537 13.7331 44.7886 14.0341C44.3508 14.3077 43.9814 14.6771 43.6804 15.1423C43.3794 15.5801 43.0921 16.2915 42.8185 17.2765C42.5722 18.2342 42.4491 19.1645 42.4491 20.0675C42.4491 20.9431 42.4765 21.6134 42.5312 22.0786C42.6133 22.5164 42.7638 23.1321 42.9827 23.9256C43.2289 24.6917 43.6667 25.321 44.2961 25.8136C44.9528 26.3061 45.7599 26.5523 46.7176 26.5523C47.8668 26.5523 48.8793 26.0735 49.7548 25.1158C50.1106 24.7328 50.3979 24.2676 50.6168 23.7203C50.7262 23.5014 50.863 23.392 51.0272 23.392C51.2735 23.392 51.4513 23.6246 51.5608 24.0897C51.6976 24.5275 51.766 24.9243 51.766 25.28ZM58.1639 8.04174L57.1789 8.00069C56.4401 8.00069 55.9613 8.17855 55.7424 8.53426C55.6877 8.61635 55.6193 8.65739 55.5372 8.65739C55.1815 8.65739 55.0036 8.05542 55.0036 6.85148C55.0036 5.62017 55.1815 4.84035 55.5372 4.512C55.9202 4.18365 56.5633 4.01948 57.4662 4.01948C58.3965 4.01948 59.0259 4.18365 59.3542 4.512C59.6826 4.81298 59.8467 5.33287 59.8467 6.07165C59.8467 6.81043 59.7236 7.33032 59.4773 7.6313C59.2311 7.90493 58.7933 8.04174 58.1639 8.04174ZM54.8805 28.7687L55.3319 19.2056C55.3319 16.9345 55.072 15.3885 54.5521 14.5677C54.3879 14.294 54.1964 14.0888 53.9775 13.952C53.8133 13.8973 53.7313 13.7878 53.7313 13.6237C53.7313 13.1311 54.429 12.6523 55.8245 12.1871C57.2199 11.722 58.2324 11.4894 58.8617 11.4894C59.5184 11.4894 59.8604 11.6536 59.8878 11.9819C59.8878 12.5292 59.8057 14.0888 59.6415 16.6609C59.5047 19.2056 59.4363 21.8871 59.4363 24.7054C59.4363 27.5237 59.6005 29.2749 59.9288 29.959C60.0109 30.0958 60.0519 30.2326 60.0519 30.3694C60.0519 30.7251 59.5321 30.903 58.4923 30.903C57.4525 30.903 56.3854 30.6293 55.2909 30.0821C55.0173 29.9453 54.8805 29.5075 54.8805 28.7687ZM61.9383 13.993L62.0615 12.3513C62.0888 12.105 62.2804 11.9819 62.6361 11.9819H64.0726L63.9084 8.69843V8.53426C63.9084 7.90493 64.3873 7.30296 65.345 6.72835C66.3026 6.15374 67.1782 5.86643 67.9717 5.86643C68.218 5.86643 68.3411 5.97588 68.3411 6.19478V6.23582C68.2317 6.97461 68.1222 8.87629 68.0128 11.9409C69.2167 11.9409 69.9829 11.9135 70.3112 11.8588C70.6396 11.8041 70.8174 11.7767 70.8448 11.7767C71.0363 11.7767 71.1321 11.9409 71.1321 12.2692C71.1321 12.5976 70.9816 13.0217 70.6806 13.5416C70.3796 14.0341 70.0513 14.294 69.6956 14.3214H67.9717C67.9444 15.2517 67.9307 16.825 67.9307 19.0414C67.9307 21.2304 67.9444 23.0363 67.9717 24.4591C68.0265 25.882 68.0812 26.9628 68.1359 27.7016C68.1906 28.413 68.2454 28.9876 68.3001 29.4254C68.3822 29.8632 68.4369 30.1779 68.4643 30.3694C68.519 30.5609 68.5463 30.6841 68.5463 30.7388C68.5463 31.0124 68.3685 31.1629 68.0128 31.1903C66.9456 31.1903 65.8785 31.0398 64.8114 30.7388C63.7716 30.4378 63.2517 29.9179 63.2517 29.1791C63.8263 24.5823 64.1136 19.6434 64.1136 14.3624C63.3749 14.3624 62.8139 14.3898 62.4309 14.4445H62.3898C62.1436 14.4445 61.9931 14.294 61.9383 13.993ZM75.9601 8.04174L74.9751 8.00069C74.2363 8.00069 73.7575 8.17855 73.5386 8.53426C73.4839 8.61635 73.4155 8.65739 73.3334 8.65739C72.9777 8.65739 72.7998 8.05542 72.7998 6.85148C72.7998 5.62017 72.9777 4.84035 73.3334 4.512C73.7164 4.18365 74.3595 4.01948 75.2624 4.01948C76.1927 4.01948 76.8221 4.18365 77.1504 4.512C77.4788 4.81298 77.6429 5.33287 77.6429 6.07165C77.6429 6.81043 77.5198 7.33032 77.2735 7.6313C77.0273 7.90493 76.5895 8.04174 75.9601 8.04174ZM72.6767 28.7687L73.1281 19.2056C73.1281 16.9345 72.8682 15.3885 72.3483 14.5677C72.1841 14.294 71.9926 14.0888 71.7737 13.952C71.6095 13.8973 71.5275 13.7878 71.5275 13.6237C71.5275 13.1311 72.2252 12.6523 73.6207 12.1871C75.0161 11.722 76.0286 11.4894 76.6579 11.4894C77.3146 11.4894 77.6566 11.6536 77.684 11.9819C77.684 12.5292 77.6019 14.0888 77.4377 16.6609C77.3009 19.2056 77.2325 21.8871 77.2325 24.7054C77.2325 27.5237 77.3967 29.2749 77.725 29.959C77.8071 30.0958 77.8481 30.2326 77.8481 30.3694C77.8481 30.7251 77.3283 30.903 76.2885 30.903C75.2487 30.903 74.1816 30.6293 73.0871 30.0821C72.8135 29.9453 72.6767 29.5075 72.6767 28.7687ZM80.3502 30.2873C80.8427 27.3322 81.089 23.7888 81.089 19.657C81.089 15.5253 80.9658 12.8438 80.7196 11.6125C80.7196 11.2568 81.13 11.079 81.9509 11.079C83.2096 11.079 84.0441 11.5578 84.4545 12.5155C84.4819 12.5976 84.5503 12.6386 84.6598 12.6386C84.7692 12.6386 84.8513 12.6112 84.906 12.5565C85.7543 11.6809 87.0676 11.2431 88.8462 11.2431C90.6247 11.2431 92.0339 11.6946 93.0737 12.5976C94.1134 13.5005 94.6333 14.8139 94.6333 16.5377C94.6333 17.5775 94.5376 19.0551 94.346 20.9704C94.1818 22.8858 94.0998 24.3086 94.0998 25.239C94.0998 27.4553 94.4692 29.056 95.2079 30.041C95.3174 30.1779 95.3721 30.3147 95.3721 30.4515C95.3721 30.8072 94.989 30.985 94.2229 30.985C90.83 30.985 89.1335 29.4801 89.1335 26.4703C89.1335 25.321 89.3934 23.7203 89.9133 21.6682C90.4332 19.616 90.6932 18.0563 90.6932 16.9892C90.6932 14.8002 89.7902 13.7057 87.9843 13.7057C87.1087 13.7057 86.4383 13.9657 85.9732 14.4856C85.5354 15.0054 85.2891 15.6074 85.2344 16.2915C85.1796 16.9482 85.1523 18.2068 85.1523 20.0675C85.1523 22.9132 85.248 25.3894 85.4396 27.4963L85.5217 28.3993C85.5217 29.1654 85.0155 29.7537 84.0031 30.1642C83.018 30.602 82.1561 30.8209 81.4173 30.8209C80.7059 30.8209 80.3502 30.643 80.3502 30.2873ZM99.4524 13.4595C100.054 12.8301 100.848 12.3103 101.833 11.8998C102.818 11.462 103.762 11.2431 104.665 11.2431C105.568 11.2431 106.485 11.4483 107.415 11.8588C107.524 11.8588 107.606 11.8314 107.661 11.7767C108.373 11.0653 109.412 10.7096 110.78 10.7096C111.109 10.7096 111.273 10.8601 111.273 11.161C111.273 11.1884 111.246 11.3115 111.191 11.5304C111.136 11.7493 111.068 12.0777 110.986 12.5155C110.904 12.9259 110.835 13.4321 110.78 14.0341C110.589 15.5937 110.479 17.3176 110.452 19.2056C110.452 21.0936 110.452 22.9816 110.452 24.8696L110.575 33.4887C110.575 36.2523 109.864 38.5507 108.441 40.384C107.866 41.1228 106.991 41.7658 105.814 42.313C104.665 42.8603 103.31 43.1339 101.751 43.1339C101.395 42.915 101.217 42.6961 101.217 42.4772C101.217 42.2583 101.368 42.0805 101.669 41.9437C103.393 41.1501 104.624 39.2621 105.363 36.2797C106.101 33.3245 106.471 28.8234 106.471 22.7763L106.389 17.0303L106.266 14.2393C106.266 13.993 105.883 13.8152 105.116 13.7057C104.131 13.7057 103.297 14.0341 102.613 14.6908C101.956 15.3201 101.505 16.1547 101.258 17.1944C100.821 18.8635 100.602 20.3137 100.602 21.545C100.602 22.749 100.793 23.8161 101.176 24.7464C101.587 25.6768 102.284 26.1419 103.269 26.1419C103.543 26.1419 103.789 26.0872 104.008 25.9777C104.254 25.8683 104.419 25.8136 104.501 25.8136C104.774 25.8136 104.911 26.0872 104.911 26.6344C104.911 27.1817 104.87 27.6332 104.788 27.9889C104.706 28.3172 104.542 28.6866 104.296 29.097C103.748 30 102.681 30.4515 101.094 30.4515C99.5071 30.4515 98.3716 29.8769 97.6875 28.7277C96.9761 27.5511 96.5657 26.4976 96.4562 25.5673C96.2921 24.1718 96.21 23.2552 96.21 22.8174C96.21 22.3796 96.21 22.0376 96.21 21.7913C96.2373 21.5177 96.3057 20.9978 96.4152 20.2317C96.552 19.4381 96.7162 18.6994 96.9077 18.0153C97.1266 17.3039 97.455 16.5241 97.8928 15.6758C98.3306 14.8002 98.8504 14.0614 99.4524 13.4595ZM127.407 11.8177V12.3923H134.672V12.3103C134.699 11.6536 134.713 10.8327 134.713 9.84765C134.713 8.83525 134.699 7.95965 134.672 7.22087C134.645 6.45472 134.617 5.81171 134.59 5.29182C134.562 4.77194 134.521 4.32046 134.467 3.93739C134.439 3.55432 134.412 3.26701 134.385 3.07548C134.357 2.85658 134.344 2.66504 134.344 2.50087C134.344 2.33669 134.494 2.14516 134.795 1.92626C136.108 1.05066 137.572 0.612868 139.187 0.612868C140.199 0.612868 140.705 0.790723 140.705 1.14643C140.705 1.1738 140.678 1.32429 140.623 1.59791C140.103 4.19733 139.775 7.79548 139.638 12.3923C139.556 16.9892 139.515 19.4518 139.515 19.7802C139.515 24.0213 139.761 26.9628 140.254 28.6045C140.336 28.8234 140.377 29.015 140.377 29.1791C140.377 29.3159 140.267 29.4801 140.049 29.6717C139.036 30.3283 137.723 30.6567 136.108 30.6567C135.069 30.6567 134.48 30.301 134.344 29.5896C134.261 29.2065 134.22 28.6182 134.22 27.8247C134.22 27.0038 134.261 25.7588 134.344 24.0897C134.453 22.4206 134.535 19.5065 134.59 15.3475H127.407C127.407 21.5861 127.599 25.9641 127.982 28.4814C127.982 29.1381 127.352 29.6717 126.094 30.0821C124.835 30.5199 123.795 30.7388 122.974 30.7388C122.154 30.7388 121.743 30.6157 121.743 30.3694C121.743 30.2052 121.784 30 121.866 29.7537C122.386 28.6045 122.646 23.9803 122.646 15.881V15.3475H120.225C120.006 15.3475 119.896 15.2654 119.896 15.1012C119.896 15.0465 119.951 14.8413 120.06 14.4856C120.17 14.1025 120.416 13.6647 120.799 13.1722C121.21 12.6797 121.661 12.4334 122.154 12.4334H122.605C122.605 7.04301 122.29 3.93739 121.661 3.11652L121.497 2.87026C121.333 2.73345 121.251 2.56927 121.251 2.37774C121.251 2.15884 121.401 1.98098 121.702 1.84417C122.113 1.59791 122.838 1.35165 123.877 1.10539C124.945 0.859127 125.902 0.735996 126.75 0.735996C127.599 0.735996 128.023 0.927533 128.023 1.31061V1.43374C127.694 4.27942 127.489 7.74075 127.407 11.8177ZM147.06 14.5266C146.349 14.554 145.829 14.5813 145.5 14.6087C145.199 14.6087 145.049 14.5266 145.049 14.3624C145.049 14.1983 145.131 14.0341 145.295 13.8699C147.046 12.2555 150.001 11.4483 154.16 11.4483C155.583 11.4483 156.705 11.5715 157.526 11.8177L157.936 11.9409C158.265 12.0777 158.429 12.2282 158.429 12.3923C158.429 12.5292 158.333 12.6386 158.142 12.7207C157.403 12.9396 156.691 13.2953 156.007 13.7878C155.323 14.253 154.981 14.5813 154.981 14.7729L155.228 15.0602C156.103 15.5527 156.774 16.3325 157.239 17.3997C157.731 18.4668 158.005 19.4108 158.06 20.2317L158.142 21.504C158.142 24.2129 157.389 26.4429 155.884 28.1941C154.379 29.9453 152.327 30.8209 149.728 30.8209C148.414 30.8209 147.279 30.5883 146.321 30.1231C145.363 29.658 144.652 29.1381 144.187 28.5635C143.749 27.9615 143.393 27.2911 143.12 26.5523C142.791 25.5399 142.627 24.5002 142.627 23.433C142.627 22.3386 142.805 21.2441 143.161 20.1496C143.544 19.0551 143.968 18.2479 144.433 17.728C144.926 17.2081 145.473 16.784 146.075 16.4557C146.841 16.0452 147.457 15.84 147.922 15.84C148.387 15.84 148.62 15.9358 148.62 16.1273L148.373 16.5377C147.771 17.2492 147.334 18.1795 147.06 19.3287C146.814 20.4779 146.691 21.504 146.691 22.407C146.691 23.2826 146.8 24.1581 147.019 25.0337C147.238 25.9093 147.484 26.566 147.758 27.0038C148.031 27.4143 148.346 27.7289 148.702 27.9478C149.222 28.2762 149.769 28.4403 150.343 28.4403C150.918 28.4403 151.479 28.2214 152.026 27.7837C152.573 27.3185 152.97 26.7165 153.216 25.9777C153.709 24.6096 153.955 23.2005 153.955 21.7503C153.955 19.4518 153.367 17.6733 152.19 16.4146C151.041 15.1559 149.331 14.5266 147.06 14.5266ZM165.012 6.52313L164.766 21.5861C164.766 26.2924 164.916 29.1107 165.217 30.041C165.299 30.2052 165.34 30.3694 165.34 30.5336C165.34 30.8619 164.944 31.0261 164.15 31.0261C163.357 31.0261 162.467 30.8209 161.482 30.4104C160.525 30.0274 160.046 29.5212 160.046 28.8918C160.593 25.0611 160.867 19.9443 160.867 13.5416L160.702 7.26191C160.648 6.49577 160.484 5.83907 160.21 5.29182C159.964 4.74458 159.717 4.38887 159.471 4.22469L159.143 4.01948C158.951 3.91003 158.855 3.7869 158.855 3.65009C158.855 3.26701 159.444 2.80185 160.62 2.25461C161.824 1.68 162.987 1.39269 164.109 1.39269C164.547 1.39269 164.793 1.54319 164.848 1.84417C164.957 2.55559 165.012 4.11524 165.012 6.52313ZM172.036 8.04174L171.051 8.00069C170.312 8.00069 169.833 8.17855 169.614 8.53426C169.559 8.61635 169.491 8.65739 169.409 8.65739C169.053 8.65739 168.875 8.05542 168.875 6.85148C168.875 5.62017 169.053 4.84035 169.409 4.512C169.792 4.18365 170.435 4.01948 171.338 4.01948C172.268 4.01948 172.897 4.18365 173.226 4.512C173.554 4.81298 173.718 5.33287 173.718 6.07165C173.718 6.81043 173.595 7.33032 173.349 7.6313C173.103 7.90493 172.665 8.04174 172.036 8.04174ZM168.752 28.7687L169.204 19.2056C169.204 16.9345 168.944 15.3885 168.424 14.5677C168.26 14.294 168.068 14.0888 167.849 13.952C167.685 13.8973 167.603 13.7878 167.603 13.6237C167.603 13.1311 168.301 12.6523 169.696 12.1871C171.092 11.722 172.104 11.4894 172.733 11.4894C173.39 11.4894 173.732 11.6536 173.759 11.9819C173.759 12.5292 173.677 14.0888 173.513 16.6609C173.376 19.2056 173.308 21.8871 173.308 24.7054C173.308 27.5237 173.472 29.2749 173.8 29.959C173.883 30.0958 173.924 30.2326 173.924 30.3694C173.924 30.7251 173.404 30.903 172.364 30.903C171.324 30.903 170.257 30.6293 169.163 30.0821C168.889 29.9453 168.752 29.5075 168.752 28.7687ZM184.634 11.5715C185.127 11.5715 185.565 11.6399 185.948 11.7767C186.358 11.8861 186.577 11.9409 186.604 11.9409L186.851 11.7357L186.686 7.26191C186.632 6.49577 186.468 5.83907 186.194 5.29182C185.92 4.74458 185.674 4.38887 185.455 4.22469L185.086 4.01948C184.922 3.91003 184.84 3.7869 184.84 3.65009C184.84 3.23965 185.469 2.76081 186.728 2.21356C188.014 1.66632 189.012 1.39269 189.724 1.39269C190.435 1.39269 190.818 1.54319 190.873 1.84417C191.01 2.77449 191.078 4.55304 191.078 7.17982C191.078 9.77924 191.01 12.3376 190.873 14.855C190.763 17.3723 190.709 20.2317 190.709 23.433C190.709 26.6071 190.914 28.6045 191.324 29.4254C191.434 29.6169 191.489 29.7948 191.489 29.959C191.489 30.3694 190.9 30.5746 189.724 30.5746C187.48 30.5746 186.358 30.041 186.358 28.9739C186.303 28.5361 186.276 27.8657 186.276 26.9628C186.276 26.0325 186.358 24.3223 186.522 21.8323C186.714 19.315 186.81 17.386 186.81 16.0452C186.81 14.6771 186.126 13.993 184.757 13.993C183.417 13.993 182.391 14.7865 181.679 16.3736C180.968 17.9606 180.612 19.5476 180.612 21.1346C180.612 24.5002 181.46 26.183 183.157 26.183C183.403 26.183 183.636 26.1419 183.854 26.0598C184.101 25.9504 184.251 25.8957 184.306 25.8957C184.525 25.8957 184.689 26.0325 184.798 26.3061C184.935 26.5797 185.004 26.8533 185.004 27.127C185.004 28.0573 184.634 28.8508 183.896 29.5075C183.157 30.1368 182.254 30.4515 181.187 30.4515C179.545 30.4515 178.3 29.7401 177.452 28.3172C176.631 26.867 176.22 25.0748 176.22 22.9405C176.22 20.2317 176.863 17.7143 178.149 15.3885C178.806 14.2393 179.695 13.3227 180.817 12.6386C181.939 11.9272 183.211 11.5715 184.634 11.5715ZM207.049 17.687L206.966 22.9405C206.966 26.5797 207.363 28.7687 208.157 29.5075C208.266 29.6169 208.321 29.7401 208.321 29.8769C208.321 30.2873 207.432 30.4925 205.653 30.4925C203.902 30.4925 202.972 29.9726 202.862 28.9329C202.835 28.6866 202.821 28.1804 202.821 27.4143L202.985 20.8473C202.985 20.6558 202.876 20.56 202.657 20.56C201.343 20.56 200.112 20.9294 198.963 21.6682C197.814 22.407 197.239 23.351 197.239 24.5002C197.239 25.1021 197.403 25.6083 197.732 26.0188C198.06 26.4292 198.457 26.6344 198.922 26.6344C199.414 26.6344 199.811 26.5387 200.112 26.3471C200.441 26.1556 200.632 26.0461 200.687 26.0188C201.152 26.0735 201.385 26.566 201.385 27.4963C201.385 28.3993 200.96 29.1381 200.112 29.7127C199.264 30.2599 198.375 30.5336 197.444 30.5336C196.514 30.5336 195.707 30.3694 195.023 30.041C194.366 29.7127 193.887 29.3433 193.586 28.9329C193.285 28.5224 193.039 28.0573 192.847 27.5374C192.656 26.9081 192.56 26.3608 192.56 25.8957C192.56 23.9803 193.162 22.448 194.366 21.2988C195.57 20.1496 197.116 19.3287 199.004 18.8362C201.494 18.3437 202.794 17.8922 202.903 17.4817C202.985 17.1808 203.026 16.6745 203.026 15.9631C203.026 14.5129 202.287 13.7878 200.81 13.7878C200.181 13.7878 199.62 13.993 199.127 14.4035C198.635 14.7865 198.388 15.2791 198.388 15.881L198.635 16.8661C198.58 17.3312 198.087 17.6049 197.157 17.687L196.706 17.728C195.885 17.728 195.228 17.5228 194.735 17.1123C194.27 16.7019 194.038 16.1547 194.038 15.4706C194.038 15.0328 194.175 14.554 194.448 14.0341C194.749 13.4868 195.119 13.049 195.556 12.7207C195.994 12.3923 196.665 12.105 197.567 11.8588C198.498 11.5852 199.387 11.4483 200.235 11.4483C201.084 11.4483 201.74 11.4757 202.205 11.5304C202.671 11.5852 203.3 11.722 204.093 11.9409C204.914 12.1324 205.585 12.5155 206.105 13.0901C206.652 13.6647 206.939 14.2803 206.966 14.937C207.021 15.5664 207.049 16.483 207.049 17.687ZM216.798 41.369C216.798 41.6974 216.633 41.8616 216.305 41.8616H216.264C215.361 41.8616 214.335 41.5469 213.186 40.9176C212.064 40.2882 211.503 39.5631 211.503 38.7423C211.503 37.9214 212.023 36.4849 213.063 34.4327C214.102 32.4079 214.622 31.0534 214.622 30.3694C214.622 29.6306 214.267 28.3035 213.555 26.3882C212.652 23.8982 211.927 21.8734 211.38 20.3137C210.86 18.7541 210.285 17.386 209.656 16.2094C209.054 15.0054 208.616 14.294 208.343 14.0751L207.932 13.7878C207.631 13.6237 207.481 13.4458 207.481 13.2543C207.481 12.8712 208.069 12.4881 209.246 12.105C210.45 11.6946 211.503 11.4894 212.406 11.4894C212.816 11.4894 213.158 11.8177 213.432 12.4744C213.925 13.7605 214.458 15.539 215.033 17.8101C216.428 22.4617 217.304 24.7875 217.66 24.7875C217.906 24.7875 218.398 23.8298 219.137 21.9144C219.903 19.9991 220.286 18.4531 220.286 17.2765C220.286 15.2243 219.684 14.0204 218.48 13.6647C218.207 13.61 218.07 13.4732 218.07 13.2543C218.07 12.7617 218.713 12.2966 219.999 11.8588C221.285 11.3936 222.448 11.161 223.488 11.161C224.391 11.161 224.842 11.7493 224.842 12.9259C224.842 13.8289 224.651 14.8823 224.268 16.0863C223.884 17.2902 223.529 18.2479 223.2 18.9593C222.872 19.6434 222.051 21.2577 220.738 23.8024C219.452 26.3198 218.385 28.5361 217.536 30.4515C216.606 32.7499 216.141 35.0894 216.141 37.4699C216.141 38.7286 216.25 39.6726 216.469 40.3019C216.688 40.9312 216.798 41.287 216.798 41.369ZM247.102 17.9332C247.102 17.3039 246.719 16.9619 245.953 16.9071H243.039C242.82 16.9071 242.711 16.8387 242.711 16.7019C242.875 15.9084 243.162 15.2791 243.573 14.8139C243.983 14.3214 244.325 14.0478 244.599 13.993C245.365 13.8836 246.624 13.8289 248.375 13.8289C250.126 13.8289 251.221 13.8425 251.658 13.8699C252.096 13.8699 252.37 13.911 252.479 13.993C252.589 14.1299 252.643 14.294 252.643 14.4856C252.643 14.6497 252.589 15.7853 252.479 17.8922C252.397 19.9717 252.356 21.846 252.356 23.5151C252.356 25.1569 252.411 26.1966 252.52 26.6344C252.63 27.0449 252.684 27.3048 252.684 27.4143C252.684 27.8521 252.301 28.3309 251.535 28.8508C250.769 29.3433 249.606 29.7811 248.046 30.1642C246.514 30.5472 244.818 30.7388 242.957 30.7388C240.467 30.7388 238.305 29.8769 236.472 28.153C235.049 26.7849 234.064 25.2937 233.517 23.6793C232.997 22.0649 232.737 19.7939 232.737 16.8661C232.737 6.00324 236.718 0.571825 244.681 0.571825C246.022 0.571825 247.226 0.722317 248.293 1.0233C249.36 1.29692 250.29 1.85785 251.084 2.70608C251.905 3.52695 252.315 4.59408 252.315 5.90748C252.315 6.59153 252.178 7.28927 251.905 8.00069C251.412 9.4509 250.318 10.176 248.621 10.176C247.691 10.176 246.979 9.94342 246.487 9.47826C246.022 8.98574 245.789 8.31536 245.789 7.46713C245.789 7.13878 245.967 6.93356 246.323 6.85148C246.843 6.55049 247.102 6.04429 247.102 5.33287C247.102 4.59409 246.829 4.03316 246.282 3.65009C245.734 3.23965 245.16 3.03443 244.558 3.03443C243.244 3.03443 242.136 3.51327 241.233 4.47095C240.33 5.40127 239.674 6.63258 239.263 8.16487C238.579 10.9011 238.237 13.6921 238.237 16.5377C238.237 21.1893 239.373 24.2813 241.644 25.8136C242.492 26.4155 243.381 26.7165 244.312 26.7165C246.035 26.7165 246.952 26.4019 247.061 25.7725C247.144 24.9243 247.185 23.6109 247.185 21.8323L247.102 17.9332ZM259.133 8.04174L258.148 8.00069C257.409 8.00069 256.93 8.17855 256.711 8.53426C256.656 8.61635 256.588 8.65739 256.506 8.65739C256.15 8.65739 255.972 8.05542 255.972 6.85148C255.972 5.62017 256.15 4.84035 256.506 4.512C256.889 4.18365 257.532 4.01948 258.435 4.01948C259.365 4.01948 259.995 4.18365 260.323 4.512C260.651 4.81298 260.815 5.33287 260.815 6.07165C260.815 6.81043 260.692 7.33032 260.446 7.6313C260.2 7.90493 259.762 8.04174 259.133 8.04174ZM255.849 28.7687L256.301 19.2056C256.301 16.9345 256.041 15.3885 255.521 14.5677C255.357 14.294 255.165 14.0888 254.946 13.952C254.782 13.8973 254.7 13.7878 254.7 13.6237C254.7 13.1311 255.398 12.6523 256.793 12.1871C258.189 11.722 259.201 11.4894 259.83 11.4894C260.487 11.4894 260.829 11.6536 260.857 11.9819C260.857 12.5292 260.774 14.0888 260.61 16.6609C260.473 19.2056 260.405 21.8871 260.405 24.7054C260.405 27.5237 260.569 29.2749 260.898 29.959C260.98 30.0958 261.021 30.2326 261.021 30.3694C261.021 30.7251 260.501 30.903 259.461 30.903C258.421 30.903 257.354 30.6293 256.26 30.0821C255.986 29.9453 255.849 29.5075 255.849 28.7687ZM268.858 19.7391L269.064 27.9478C269.064 29.6717 268.831 31.1903 268.366 32.5037C267.928 33.8444 267.381 34.8431 266.724 35.4998C265.383 36.8953 264.207 37.6888 263.194 37.8803L262.497 38.0445C262.086 38.0445 261.881 37.9214 261.881 37.6751L262.086 37.0595C264.084 34.2959 265.082 27.51 265.082 16.7019C265.082 15.7169 265.069 14.9781 265.041 14.4856C264.467 14.4856 263.892 14.5266 263.318 14.6087H263.276C262.976 14.6087 262.825 14.4582 262.825 14.1572L262.948 12.5976C262.976 12.3513 263.167 12.2282 263.523 12.2282H265V9.47826L265.082 5.57913C265.082 5.38759 265.11 5.18237 265.164 4.96348C265.247 4.71722 265.548 4.36151 266.067 3.89635C266.587 3.40382 267.353 2.96603 268.366 2.58295C269.378 2.17252 270.24 1.9673 270.952 1.9673C271.69 1.9673 272.06 2.1862 272.06 2.624C272.06 2.78817 271.937 2.92498 271.69 3.03443C270.897 3.28069 270.24 3.99211 269.72 5.16869C269.228 6.31791 268.982 8.288 268.982 11.079V12.2282C270.377 12.1734 271.294 12.105 271.731 12.023C271.923 12.023 272.019 12.1871 272.019 12.5155C272.019 12.8438 271.868 13.2543 271.567 13.7468C271.294 14.2119 270.938 14.4582 270.5 14.4856C270.09 14.4856 269.57 14.4719 268.94 14.4445C268.886 16.5241 268.858 18.2889 268.858 19.7391ZM272.406 13.993L272.53 12.3513C272.557 12.105 272.748 11.9819 273.104 11.9819H274.541L274.377 8.69843V8.53426C274.377 7.90493 274.855 7.30296 275.813 6.72835C276.771 6.15374 277.646 5.86643 278.44 5.86643C278.686 5.86643 278.809 5.97588 278.809 6.19478V6.23582C278.7 6.97461 278.59 8.87629 278.481 11.9409C279.685 11.9409 280.451 11.9135 280.779 11.8588C281.108 11.8041 281.285 11.7767 281.313 11.7767C281.504 11.7767 281.6 11.9409 281.6 12.2692C281.6 12.5976 281.45 13.0217 281.149 13.5416C280.848 14.0341 280.519 14.294 280.164 14.3214H278.44C278.412 15.2517 278.399 16.825 278.399 19.0414C278.399 21.2304 278.412 23.0363 278.44 24.4591C278.495 25.882 278.549 26.9628 278.604 27.7016C278.659 28.413 278.713 28.9876 278.768 29.4254C278.85 29.8632 278.905 30.1779 278.932 30.3694C278.987 30.5609 279.014 30.6841 279.014 30.7388C279.014 31.0124 278.837 31.1629 278.481 31.1903C277.414 31.1903 276.347 31.0398 275.279 30.7388C274.24 30.4378 273.72 29.9179 273.72 29.1791C274.294 24.5823 274.582 19.6434 274.582 14.3624C273.843 14.3624 273.282 14.3898 272.899 14.4445H272.858C272.612 14.4445 272.461 14.294 272.406 13.993ZM294.678 24.377C294.678 25.5536 294.445 26.5797 293.98 27.4553C293.542 28.3309 293.036 28.9739 292.462 29.3843C291.887 29.7948 291.203 30.1231 290.409 30.3694C289.37 30.6977 288.426 30.8619 287.577 30.8619C285.799 30.8619 284.321 30.5199 283.145 29.8358C281.968 29.1244 281.38 28.0026 281.38 26.4703C281.38 25.5673 281.626 24.8285 282.119 24.2539C282.885 23.4057 283.801 22.9816 284.869 22.9816C285.197 22.9816 285.361 23.1321 285.361 23.433C285.361 23.4604 285.293 23.6793 285.156 24.0897C285.046 24.4728 284.992 24.9653 284.992 25.5673C284.992 26.1693 285.224 26.7028 285.689 27.168C286.182 27.6332 286.77 27.8657 287.454 27.8657C288.138 27.8657 288.686 27.7563 289.096 27.5374C289.506 27.2911 289.794 26.9901 289.958 26.6344C290.204 26.1419 290.327 25.6768 290.327 25.239C290.327 24.4454 289.931 23.7614 289.137 23.1868C288.344 22.6122 287.468 22.1607 286.51 21.8323C285.553 21.504 284.677 20.9568 283.884 20.1906C283.09 19.4245 282.693 18.4668 282.693 17.3176C282.693 15.3475 283.309 13.8699 284.54 12.8849C285.799 11.8998 287.495 11.4073 289.63 11.4073C290.56 11.4073 291.531 11.5441 292.544 11.8177C293.583 12.064 294.103 12.5018 294.103 13.1311C294.103 13.7331 293.994 14.294 293.775 14.8139C293.583 15.3338 293.337 15.5937 293.036 15.5937C292.872 15.5937 292.763 15.539 292.708 15.4296C292.653 15.2928 292.557 15.1423 292.421 14.9781C292.284 14.8139 291.955 14.6087 291.436 14.3624C290.916 14.0888 290.464 13.952 290.081 13.952C289.725 13.952 289.479 13.9657 289.342 13.993C289.233 13.993 289.028 14.0341 288.727 14.1162C288.426 14.1709 288.152 14.2667 287.906 14.4035C287.276 14.7592 286.962 15.2791 286.962 15.9631C286.962 16.4009 287.058 16.7293 287.249 16.9482C287.441 17.1397 287.591 17.2902 287.701 17.3997C287.81 17.5091 288.002 17.6459 288.275 17.8101C288.549 17.9469 288.74 18.0427 288.85 18.0974C288.959 18.1521 289.206 18.2752 289.589 18.4668C289.972 18.631 290.218 18.7404 290.327 18.7951C293.228 20.1632 294.678 22.0239 294.678 24.377Z" fill="#72C100"/>
</svg>
