<svg width="199" height="74" viewBox="0 0 199 74" fill="none" xmlns="http://www.w3.org/2000/svg">
<g clip-path="url(#clip0)">
<path d="M10.605 73.8315L9.91247 73.3986C8.51186 73.3613 7.13728 73.0116 5.88913 72.375C4.64098 71.7384 3.55077 70.8311 2.69814 69.7193C0.844128 67.3386 -0.11125 64.3805 -1.51059e-05 61.3651C-0.101978 58.2706 0.721951 55.216 2.36628 52.5925C3.20688 51.2723 4.37659 50.1937 5.7604 49.4625C7.14421 48.7314 8.69447 48.373 10.2588 48.4226C12.0521 48.4511 13.8128 48.9061 15.3954 49.7501L15.8715 48.9132L18.7572 49.0575V57.9167H15.8715L15.7561 57.4405C14.9625 53.9776 13.5485 52.2895 11.4275 52.2895C9.86918 52.2895 8.71489 53.2418 7.89246 55.1752C7.13905 56.8841 6.75551 58.7329 6.76702 60.6004C6.72994 62.4863 7.08876 64.3591 7.82032 66.0977C8.06365 66.9049 8.5534 67.6157 9.22095 68.1306C9.8885 68.6455 10.7004 68.9387 11.5429 68.969C12.1456 68.9638 12.7405 68.8327 13.2896 68.5843C13.8387 68.3358 14.3299 67.9754 14.7316 67.5262C15.6083 66.6328 16.1964 65.4968 16.4198 64.2653L16.5641 63.5438L19.9692 64.8136V65.3041C19.6921 67.5711 18.5433 69.6412 16.7661 71.0756C14.9679 72.666 12.6291 73.5075 10.2299 73.4275L10.605 73.8315ZM8.81589 72.0279C9.3971 72.129 9.98627 72.1773 10.5762 72.1722C12.5319 72.1431 14.4117 71.4107 15.8715 70.1089C17.2642 68.9897 18.2192 67.4167 18.5697 65.6649L17.4298 65.232C17.0964 66.4351 16.4606 67.5328 15.5829 68.4207C15.0683 68.9801 14.444 69.4277 13.749 69.7355C13.054 70.0433 12.303 70.2047 11.5429 70.2099C10.4527 70.1869 9.39675 69.8243 8.5225 69.1725C7.64824 68.5206 6.99924 67.6122 6.66602 66.5739C5.87394 64.6839 5.48568 62.6492 5.52616 60.6004C5.50116 58.6197 5.88426 56.6551 6.65159 54.8289C7.6616 52.4049 9.24875 51.1785 11.3265 51.1785C13.9814 51.1785 15.8138 53.0686 16.7805 56.8057H17.5308V50.2551H16.5785L15.8715 51.4959L15.3376 51.1929C14.0297 50.3564 12.5355 49.8555 10.9876 49.7347C9.43973 49.6139 7.88594 49.8769 6.46402 50.5003L5.15101 53.3861C4.03974 55.6978 3.44404 58.2233 3.40515 60.788C3.43852 62.4819 3.7505 64.1588 4.32858 65.7514C4.83515 67.3653 5.6981 68.8447 6.8536 70.08L8.81589 72.0279ZM6.07445 50.7023C4.99684 51.3451 4.08311 52.2292 3.40515 53.2851C1.89032 55.7007 1.13628 58.5157 1.24085 61.3651C1.14035 64.1024 2.00327 66.7881 3.67929 68.9546C4.45295 69.9484 5.43888 70.7569 6.56502 71.3209L6.04559 71.0035C4.38172 69.933 3.11464 68.3466 2.43843 66.4873C1.75227 64.6918 1.41439 62.782 1.44285 60.8601C1.329 59.3836 1.50883 57.8991 1.97194 56.4924C2.43505 55.0858 3.17226 53.7848 4.14101 52.6646L6.07445 50.7023Z" fill="white"/>
<path d="M41.8431 73.0667C40.4088 73.1509 38.9872 72.7549 37.8031 71.9412C36.1354 72.9971 34.1194 73.3547 32.1903 72.9368H31.844V73.0378H31.2957H30.3723C28.7279 73.1728 27.0848 72.7621 25.6974 71.8691C24.4588 72.6621 23.0124 73.0689 21.542 73.0378C20.9333 73.0401 20.3269 72.9625 19.7384 72.8069L19.2767 72.6915V69.6615H19.8394C20.4954 69.5912 21.1194 69.3416 21.643 68.9401C21.8829 68.7836 22.0798 68.5697 22.2159 68.3177C22.352 68.0656 22.4229 67.7836 22.4221 67.4972V54.1651C22.4397 53.8851 22.3987 53.6045 22.3018 53.3411C22.205 53.0778 22.0543 52.8376 21.8594 52.6357C21.6437 52.4496 21.3897 52.3131 21.1155 52.2358C20.8413 52.1585 20.5534 52.1423 20.2722 52.1884H19.6085V48.8409L20.1135 48.7399C20.4666 48.6807 20.8234 48.647 21.1813 48.6389L20.7917 47.9464L21.441 48.6389C22.9139 48.6029 24.3677 48.9776 25.6397 49.7211C26.7378 49.005 28.0226 48.6286 29.3334 48.6389C30.0751 48.6381 30.8099 48.7801 31.4977 49.0574L31.8729 49.2161V52.1018H31.2957C30.6862 52.1111 30.0952 52.3131 29.6076 52.679C29.3951 52.8529 29.2259 53.0737 29.1133 53.324C29.0006 53.5744 28.9475 53.8475 28.9583 54.1218V57.4549H34.5566V54.4826C34.6037 54.1921 34.5858 53.8948 34.5043 53.6121C34.4227 53.3294 34.2795 53.0682 34.085 52.8475C33.8904 52.6267 33.6494 52.4518 33.3792 52.3353C33.1089 52.2189 32.8162 52.1638 32.5222 52.174H31.9595V49.0574L32.4067 48.9275C32.704 48.8366 33.0079 48.769 33.3158 48.7255L32.8685 47.9319L33.5755 48.6822C33.8929 48.6822 34.2248 48.6822 34.5566 48.6822C35.8681 48.6082 37.1569 49.0482 38.1494 49.9087C39.1814 49.0886 40.4675 48.6549 41.7854 48.6822C42.3831 48.6781 42.9775 48.7706 43.5457 48.9564L43.9641 49.1007V52.1884H43.1128C42.6569 52.1444 42.2006 52.2675 41.8287 52.5347C41.6607 52.6779 41.5278 52.8577 41.4403 53.0603C41.3527 53.2629 41.3128 53.483 41.3237 53.7034V67.1653C41.3237 68.7236 41.9585 69.4739 43.4014 69.6326H43.9497V72.8358H43.4014C42.8882 72.9505 42.3674 73.0276 41.8431 73.0667V73.0667ZM37.8608 70.2819L38.2648 70.7004C38.7574 71.1149 39.3272 71.4277 39.9414 71.6209C40.5556 71.814 41.2019 71.8837 41.8431 71.8258H42.7521V70.8158C41.9357 70.6576 41.2096 70.1961 40.7197 69.5242C40.2298 68.8523 40.0126 68.0198 40.1116 67.1942V53.7034C40.09 53.2996 40.1652 52.8964 40.3308 52.5275C40.4964 52.1586 40.7478 51.8346 41.0639 51.5824C41.5357 51.1904 42.1247 50.967 42.7377 50.9475V50.0241C42.4251 49.9541 42.1056 49.9202 41.7854 49.9231C41.1837 49.9019 40.5842 50.0064 40.0252 50.23C39.4662 50.4536 38.96 50.7914 38.5389 51.2217L38.0484 51.6978L37.6155 51.164C37.2619 50.7496 36.8178 50.4221 36.3174 50.2069C35.817 49.9918 35.2737 49.8946 34.7298 49.9231L36.5189 51.8277C36.986 52.378 37.3172 53.0304 37.4856 53.7323C37.7107 54.4223 37.8323 55.142 37.8463 55.8677V66.3718C37.8435 66.9858 37.7056 67.5917 37.4423 68.1465C37.317 68.4751 37.1237 68.7734 36.8751 69.0221C36.6264 69.2707 36.328 69.4641 35.9995 69.5894L34.2248 70.1809C33.8578 70.467 33.4271 70.66 32.9695 70.7436V71.7248C33.7411 71.8598 34.5319 71.8388 35.2953 71.6628C36.0586 71.4868 36.7789 71.1596 37.4135 70.7004L37.8608 70.2819ZM25.7984 70.2819L26.188 70.6859C27.3794 71.6005 28.8805 72.0146 30.3723 71.8402H30.6032V70.8302C30.1974 70.8045 29.8007 70.699 29.4358 70.5196C29.0709 70.3402 28.745 70.0905 28.4769 69.7848C28.2088 69.4792 28.0037 69.1235 27.8733 68.7384C27.743 68.3533 27.69 67.9462 27.7174 67.5405V60.6724H35.783V58.7534H27.6741V54.1651C27.6775 53.7086 27.7859 53.2589 27.9911 52.851C28.1963 52.4432 28.4927 52.0881 28.8573 51.8133C29.3787 51.3928 30 51.1144 30.6609 51.0052V50.1107C30.2401 49.9825 29.8022 49.9193 29.3623 49.9231C28.1607 49.9104 26.9887 50.296 26.0293 51.0197L25.6541 51.3083L25.279 51.0197C24.5257 50.4621 23.6409 50.1092 22.7107 49.9952L24.4277 51.8277C24.8948 52.378 25.226 53.0304 25.3944 53.7323C25.6195 54.4223 25.7411 55.142 25.7551 55.8677V66.3718C25.7456 66.985 25.608 67.5895 25.3511 68.1465C25.2275 68.476 25.0347 68.7752 24.7858 69.0241C24.537 69.2729 24.2378 69.4657 23.9083 69.5894L21.7728 70.3108C21.3843 70.5037 20.9719 70.6444 20.5464 70.7292V71.6815C20.8897 71.739 21.2372 71.768 21.5853 71.7681C22.9557 71.8077 24.2989 71.3803 25.3944 70.5561L25.7984 70.2819ZM28.8573 61.9133V67.5261C28.8573 68.4495 29.117 69.5172 31.1947 69.6326H32.2047C32.519 69.6327 32.8284 69.555 33.1053 69.4065C33.3822 69.2579 33.6181 69.0432 33.7919 68.7813C34.214 68.2222 34.4283 67.5335 34.3979 66.8335V61.9133H28.8573ZM35.682 62.8945V66.8479V67.1509C35.682 66.8191 35.682 66.4006 35.682 65.8812V62.8945ZM33.1859 51.0197C33.8339 51.1178 34.4323 51.4244 34.8905 51.893C35.3487 52.3616 35.6418 52.9668 35.7253 53.6168C35.7074 53.2539 35.6243 52.8971 35.48 52.5635L34.0372 49.9375C33.7705 49.9598 33.5055 49.9983 33.2436 50.053L33.1859 51.0197ZM20.8638 51.0197C21.5647 51.0474 22.2315 51.3295 22.7395 51.8133C23.123 52.1695 23.4023 52.6234 23.5476 53.1263C23.5175 52.9562 23.4641 52.7911 23.3888 52.6357L21.946 50.0097C21.6 49.988 21.2531 49.988 20.9071 50.0097L20.8638 51.0197Z" fill="white"/>
<path d="M64.5105 73.1388C63.5078 73.1717 62.5153 72.9296 61.6404 72.4387C60.7654 71.9479 60.0415 71.2269 59.547 70.3541C58.8833 68.7092 58.2629 67.1798 57.6569 65.6503C56.8056 63.5582 55.7956 63.5582 55.4637 63.5582C55.1783 63.5519 54.8958 63.6164 54.6413 63.7457C54.3527 63.89 54.3527 64.0343 54.3527 64.092V66.9778C54.3443 67.5702 54.5434 68.147 54.9154 68.6082C55.0711 68.8192 55.2762 68.9887 55.5126 69.1019C55.7491 69.2151 56.0098 69.2685 56.2717 69.2575H56.8633V72.8214L56.3727 72.9224C55.844 73.0146 55.3079 73.058 54.7712 73.0522C54.1334 73.1022 53.4924 73.0161 52.8904 72.7997C52.2885 72.5833 51.7393 72.2415 51.2794 71.7969C50.3044 72.7094 49.0069 73.1973 47.6723 73.1532C47.0034 73.1482 46.3401 73.0312 45.71 72.8069L45.2915 72.6627V69.6326H45.8398C46.3218 69.5765 46.7624 69.3329 47.0663 68.9545C47.3921 68.573 47.5666 68.0853 47.5568 67.5838V54.598C47.5568 52.6501 46.821 52.6501 46.5035 52.6501C46.3354 52.6549 46.1693 52.6891 46.013 52.7511L45.1905 53.0253V49.3027L45.5657 49.1439C45.8388 49.0153 46.1239 48.9138 46.417 48.8409L45.9985 48.1195L46.619 48.7832C47.1716 48.6486 47.7383 48.5808 48.3071 48.5812C49.0235 48.5563 49.7363 48.6924 50.3931 48.9796C51.0498 49.2667 51.6338 49.6977 52.1019 50.2405C52.7971 49.7408 53.5598 49.3424 54.3672 49.0574C55.3916 48.6708 56.4755 48.4657 57.5703 48.4514C58.6652 48.4147 59.7559 48.6046 60.7739 49.0093C61.7919 49.414 62.7153 50.0248 63.4861 50.8032C64.252 51.5937 64.8522 52.5294 65.2511 53.5553C65.6501 54.5811 65.8398 55.6764 65.8091 56.7767C65.8427 58.1697 65.3712 59.5278 64.4816 60.6003C63.8916 61.3176 63.1332 61.8778 62.2741 62.2307C62.8924 62.7628 63.4147 63.3973 63.8179 64.1065C64.2652 65.0588 64.6836 65.9245 65.1165 66.7613C65.4051 67.3529 65.7369 67.6992 65.9822 67.6992C66.2275 67.6992 66.9634 67.122 67.5117 66.112L68.0599 65.102L68.6082 66.112C69.0815 66.919 69.3445 67.8319 69.373 68.7669C69.3763 69.3784 69.2373 69.9823 68.9668 70.5308C68.6963 71.0792 68.3019 71.5572 67.8147 71.9268C66.8873 72.7019 65.7191 73.1304 64.5105 73.1388V73.1388ZM58.133 63.89C58.4023 64.2938 58.6295 64.7241 58.8112 65.1742C59.4172 66.718 60.0232 68.2475 60.658 69.7913C61.0457 70.4616 61.61 71.0125 62.2893 71.384C62.9687 71.7555 63.737 71.9333 64.5105 71.8979C65.4419 71.8989 66.3428 71.5662 67.0499 70.9601C67.3875 70.7062 67.6611 70.3771 67.8489 69.9988C68.0368 69.6206 68.1338 69.2037 68.1321 68.7813C68.1214 68.4524 68.0631 68.1268 67.9589 67.8146C66.6459 69.5316 65.0732 69.4595 64.0055 67.4106C63.5726 66.5593 63.1398 65.6792 62.7213 64.7702C62.2335 63.855 61.4987 63.0952 60.6003 62.577L58.9843 61.7546L60.759 61.4083C61.8829 61.2507 62.9098 60.6859 63.6448 59.8211C64.3535 58.9676 64.7278 57.8857 64.6981 56.7767C64.7306 55.836 64.5722 54.8984 64.2325 54.0205C63.8928 53.1426 63.3787 52.3427 62.7213 51.669C62.0599 50.9789 61.2572 50.4399 60.3682 50.0888C59.4791 49.7377 58.5248 49.5827 57.5703 49.6345C56.6232 49.6533 55.6863 49.8338 54.8 50.1684C53.9113 50.4711 53.0989 50.9635 52.4193 51.6112L51.8854 52.1451L51.4526 51.5102C51.121 50.9733 50.6518 50.535 50.0936 50.2406C49.5354 49.9463 48.9086 49.8068 48.2783 49.8365C48.0573 49.8217 47.8355 49.8217 47.6145 49.8365L49.5768 51.9431C50.0302 52.5183 50.346 53.1895 50.5003 53.9054C50.7056 54.5741 50.8125 55.2692 50.8177 55.9687V66.7036C50.8356 67.3061 50.7275 67.9056 50.5003 68.4639C50.3734 68.7916 50.1795 69.0891 49.9311 69.3376C49.6826 69.586 49.3851 69.7799 49.0574 69.9068L46.5035 70.8879L46.9075 70.4551C46.7682 70.5206 46.6233 70.5737 46.4747 70.6138V71.6959C46.8465 71.7962 47.2295 71.8495 47.6145 71.8546C48.2214 71.8928 48.8283 71.7812 49.3819 71.5296C49.9354 71.278 50.4186 70.8941 50.7888 70.4118L51.3948 69.6326L51.8421 70.4984C52.2894 71.3785 53.285 71.7969 54.7279 71.7969C55.0114 71.8124 55.2956 71.8124 55.5792 71.7969V70.4406C54.9103 70.2489 54.3288 69.8306 53.9343 69.2575C53.3919 68.578 53.1013 67.7317 53.1119 66.8623V63.9766C53.121 63.6714 53.215 63.3748 53.3832 63.12C53.5514 62.8651 53.7871 62.6622 54.0642 62.5337C54.7085 62.2173 55.4416 62.1307 56.1419 62.2884L55.2473 61.6103L57.3827 62.375L59.9655 58.4071C60.4752 57.6639 60.7469 56.7833 60.7446 55.8821C60.7573 55.1551 60.6044 54.4347 60.2973 53.7755C60.4907 54.3319 60.5835 54.9181 60.5715 55.507C60.6125 56.2316 60.5058 56.9571 60.2578 57.6392C60.0097 58.3213 59.6255 58.9458 59.1286 59.4749C58.5972 59.9684 57.9723 60.3503 57.2908 60.5981C56.6093 60.8459 55.885 60.9546 55.1607 60.9177C54.708 60.9152 54.2574 60.857 53.8189 60.7446L53.3427 60.6147V55.2617C53.3427 53.9631 53.8622 51.7555 57.3539 51.7555C58.0889 51.731 58.8092 51.9659 59.3883 52.4193L57.5703 50.1107L60.6003 52.073C61.2384 52.4037 61.7782 52.8964 62.1657 53.5017C62.5532 54.107 62.7747 54.8035 62.8079 55.5214C62.7866 56.2516 62.6079 56.9686 62.2842 57.6235C61.9605 58.2784 61.4994 58.8557 60.9322 59.3161L57.4116 62.476L59.0709 63.0676C60.1386 63.4572 61.0332 64.6547 61.7979 66.7325C62.6492 69.0699 63.3273 69.8924 63.7458 70.1665L65.4916 71.3064H63.4861C62.9017 71.2638 62.3408 71.059 61.8667 70.7148C61.3925 70.3707 61.0239 69.9009 60.8023 69.3585C60.2754 68.2929 59.8316 67.1882 59.4749 66.0543C59.3118 65.3688 59.0071 64.7249 58.5803 64.1642L58.133 63.89ZM46.4747 51.4092C47.3404 51.4092 48.7688 51.8277 48.7688 54.598V67.4972C48.7698 67.9417 48.6865 68.3823 48.5235 68.7958C48.8221 67.9645 48.9402 67.0791 48.8698 66.1986V55.0164C48.9353 54.2257 48.8371 53.43 48.5813 52.679L47.023 49.9519L46.417 50.1251V51.4092H46.4747ZM54.5114 59.7923H55.0886C55.6558 59.8212 56.223 59.7351 56.7561 59.5392C57.2892 59.3433 57.7772 59.0417 58.1907 58.6524C58.5817 58.243 58.8846 57.7578 59.0806 57.2267C59.2767 56.6956 59.3618 56.1299 59.3306 55.5647C59.3645 54.8973 59.1878 54.2361 58.8256 53.6745C58.6523 53.4314 58.4191 53.2372 58.1486 53.1107C57.8781 52.9843 57.5794 52.93 57.2817 52.9531C54.8289 52.9531 54.5114 54.1651 54.5114 55.2184V59.7923Z" fill="white"/>
<path d="M71.7104 73.11H71.5661H70.3252V69.7914H70.9168C71.1384 69.7836 71.3551 69.7249 71.5503 69.6198C71.7455 69.5147 71.9138 69.3661 72.0423 69.1854C72.344 68.7658 72.501 68.2593 72.4895 67.7426V54.8289C72.5384 54.446 72.51 54.0571 72.4059 53.6853C72.3018 53.3136 72.1242 52.9665 71.8835 52.6646C71.713 52.5278 71.516 52.4277 71.305 52.3706C71.0939 52.3135 70.8734 52.3006 70.6571 52.3327H69.979V49.1729L70.3541 49.0142C70.622 48.8954 70.9029 48.8083 71.191 48.7544L70.7004 48.0042L71.4074 48.7112C71.7052 48.6892 72.0042 48.6892 72.302 48.7112C73.5496 48.6999 74.7592 49.1407 75.7071 49.952C76.4274 49.3561 77.284 48.948 78.2006 48.7642C79.1171 48.5804 80.0649 48.6266 80.9592 48.8987L81.4353 49.0142V52.3472H80.8004C80.5729 52.3466 80.3474 52.3909 80.137 52.4776C79.9265 52.5642 79.7352 52.6915 79.574 52.8522C79.4189 53.0124 79.298 53.2024 79.2187 53.4108C79.1393 53.6191 79.1031 53.8414 79.1123 54.0642V67.8147C79.0664 68.0583 79.0761 68.3091 79.1408 68.5484C79.2055 68.7876 79.3234 69.0092 79.4857 69.1965C79.648 69.3838 79.8506 69.532 80.0783 69.6301C80.3059 69.7281 80.5528 69.7734 80.8004 69.7626H81.3343V72.8214L80.8437 72.9224C80.449 72.9969 80.0478 73.0307 79.6462 73.0234C78.1395 73.0984 76.6635 72.5804 75.534 71.5806C75.1207 71.9903 74.6303 72.314 74.0911 72.5329C73.3489 72.896 72.5365 73.0929 71.7104 73.11V73.11ZM71.5661 71.8547C72.2614 71.8749 72.9521 71.7367 73.5861 71.4507C74.1724 71.2496 74.6783 70.8651 75.029 70.3541L75.4907 69.6183L76.039 70.2964C76.4805 70.8306 77.0438 71.2509 77.6816 71.5221C78.3193 71.7932 79.0129 71.9073 79.7039 71.8547H80.1512V70.888C79.4694 70.7335 78.8668 70.3368 78.4555 69.7716C78.0442 69.2063 77.852 68.5109 77.9147 67.8147V54.0209C77.9005 53.3478 78.122 52.6909 78.5409 52.1639C78.9599 51.637 79.5499 51.273 80.2089 51.1352V49.9664C79.5015 49.7776 78.7556 49.7896 78.0547 50.0012C77.3538 50.2127 76.7257 50.6154 76.241 51.164L75.7937 51.7267L75.3031 51.2073C74.6075 50.4371 73.6404 49.9664 72.605 49.8943L74.5096 51.8133C75.0096 52.3732 75.3399 53.0638 75.4618 53.8045C75.6562 54.4753 75.7582 55.1694 75.7648 55.8678V66.3718C75.765 66.9648 75.6524 67.5524 75.433 68.1033C75.3242 68.441 75.1366 68.748 74.8857 68.9988C74.6348 69.2497 74.3278 69.4373 73.9901 69.5461L72.8647 69.9213C72.5161 70.3564 72.0347 70.6655 71.494 70.8014L71.5661 71.8547ZM71.2198 51.0775C71.7582 51.1327 72.2643 51.3605 72.6627 51.7267C73.0367 52.1398 73.3198 52.6268 73.4938 53.1562C73.6678 53.6856 73.7287 54.2456 73.6727 54.8V67.7858C73.7699 67.1607 73.8134 66.5283 73.8026 65.8957V54.8289C73.8809 54.0451 73.7721 53.2539 73.4851 52.5203L71.8403 49.851C71.6061 49.866 71.3741 49.9047 71.1477 49.9664L71.2198 51.0775Z" fill="white"/>
<path d="M91.7085 73.3842C90.434 73.3523 89.1786 73.0678 88.0148 72.5473L86.7162 71.9991L86.8172 72.7061H83.1379L82.7483 63.2264L86.0813 62.9811L86.2112 63.4717C86.6844 64.8711 87.4632 66.1476 88.4909 67.2087C88.8901 67.7567 89.3941 68.22 89.9737 68.5717C90.5532 68.9234 91.1969 69.1565 91.8672 69.2576C92.6112 69.2662 93.3297 68.987 93.8728 68.4785C94.1408 68.249 94.3547 67.9632 94.4994 67.6414C94.6441 67.3196 94.7159 66.9699 94.7097 66.6172C94.7097 66.1554 94.7097 64.7559 91.9827 63.9767C86.1246 62.2886 86.0236 62.2453 85.9371 62.202C84.8025 61.6318 83.8625 60.7381 83.2358 59.6337C82.6092 58.5294 82.3241 57.2641 82.4165 55.9977C82.4076 54.9435 82.6381 53.9011 83.0904 52.9489C83.5428 51.9966 84.2053 51.1595 85.028 50.5004L85.1579 50.3994L85.3743 49.2595V50.2118C88.2601 48.0763 92.5165 47.9032 96.7153 49.9232L97.0038 48.9998L99.8896 49.3893L100.294 58.0465L97.2636 58.2918L97.1481 57.758C96.3113 54.0787 94.7385 52.2751 92.3145 52.2751C91.9301 52.2767 91.5507 52.3614 91.202 52.5233C90.8534 52.6851 90.5438 52.9204 90.2945 53.2129C89.7766 53.772 89.4792 54.5 89.4576 55.2618C89.4576 55.8678 90.2801 56.3151 90.9005 56.5748L94.8684 57.6858C96.2876 58.0081 97.6027 58.683 98.692 59.6481C99.4399 60.3544 100.039 61.2036 100.452 62.1454C100.866 63.0872 101.087 64.1024 101.102 65.131C101.115 66.3027 100.851 67.4608 100.332 68.5113C99.8129 69.5618 99.0533 70.475 98.1148 71.1766C96.3062 72.6444 94.0374 73.4262 91.7085 73.3842V73.3842ZM86.8316 70.7005C86.8316 70.7005 87.1202 70.8448 88.5054 71.4219C90.4612 72.3143 92.6894 72.4023 94.7097 71.6672L95.5177 68.4496C95.1554 69.098 94.6253 69.6371 93.9831 70.0103C93.3408 70.3834 92.61 70.577 91.8672 70.5706C91.0097 70.4862 90.1801 70.2199 89.4337 69.7894C88.6873 69.359 88.0412 68.7743 87.5386 68.0745C86.5017 66.985 85.6837 65.7066 85.129 64.3086L83.9892 64.3952L84.2922 71.4796H85.4465C85.4841 71.2688 85.5734 71.0705 85.7062 70.9025C85.7629 70.8334 85.8313 70.7748 85.9082 70.7293V70.5706H86.5719V71.1766L86.8316 70.7005ZM85.4032 51.7701V55.3051C85.39 55.9487 85.5115 56.588 85.76 57.1819C86.0085 57.7757 86.3784 58.3111 86.8461 58.7535C87.7932 59.7078 89.0326 60.3174 90.3667 60.485C95.056 61.1487 97.4367 62.909 97.4367 65.6793C97.4179 66.5178 97.1844 67.3375 96.7585 68.06L94.7674 71.6095C95.6562 71.2704 96.4808 70.7824 97.2058 70.1666C98.0037 69.5841 98.6505 68.8191 99.0923 67.9355C99.5341 67.052 99.758 66.0755 99.7453 65.0877C99.731 64.2187 99.5408 63.3615 99.1862 62.568C98.8316 61.7744 98.3199 61.0609 97.682 60.4706C96.7411 59.6656 95.6161 59.1056 94.4067 58.8401L90.5109 57.7147C88.9238 57.1231 88.1446 56.2718 88.1446 55.233C88.1377 54.1105 88.5671 53.0293 89.3422 52.2174C89.698 51.7988 90.1401 51.4622 90.6382 51.2306C91.1363 50.999 91.6786 50.8779 92.2279 50.8755C95.1137 50.8755 97.1337 52.8667 98.1437 56.8057H98.9084L98.6054 50.4426L97.8551 50.3272L97.4511 51.6835L96.773 51.3228C92.6175 49.1008 88.4332 49.2018 85.7783 51.4094L85.4032 51.7701ZM93.4688 63.313C93.6708 63.3996 93.8584 63.5006 94.046 63.6016C93.8814 63.4451 93.6843 63.3269 93.4688 63.2553V63.313ZM84.725 52.5925C84.0241 53.6093 83.6607 54.8207 83.6862 56.0554C83.6015 57.0958 83.8313 58.1376 84.3458 59.0458C84.8604 59.954 85.6359 60.6866 86.5719 61.1487L87.1491 61.3218C86.7184 61.0949 86.3122 60.8241 85.9371 60.5138C85.3591 60.0341 84.8986 59.4283 84.591 58.743C84.2834 58.0577 84.1367 57.3111 84.1623 56.5604C84.1604 56.0764 84.2038 55.5934 84.2922 55.1175L84.725 52.5925Z" fill="white"/>
<path d="M115.429 73.0667C114.798 73.0921 114.168 72.9888 113.577 72.7631C112.987 72.5374 112.449 72.194 111.995 71.7537C110.51 72.8454 108.654 73.3069 106.83 73.0378H106.267V69.7625L106.772 69.676C107.212 69.6067 107.615 69.3875 107.912 69.0555C108.193 68.7266 108.342 68.305 108.33 67.8724V54.4537C108.33 53.2562 107.796 53.1552 107.291 53.1552C106.786 53.1552 105.849 53.1552 105.113 55.2617C104.66 56.458 104.407 57.7204 104.362 58.9988V59.9943L101.001 58.2196V49.5624L103.064 48.7833L103.352 49.1007C103.539 49.2908 103.765 49.4382 104.014 49.5328C104.263 49.6274 104.529 49.6671 104.795 49.649C105.485 49.575 106.155 49.3744 106.772 49.0574L107.061 48.942L106.772 48.4658L107.219 48.8843C107.866 48.6139 108.554 48.4577 109.254 48.4226C109.743 48.4022 110.231 48.4855 110.687 48.667C111.142 48.8486 111.553 49.1242 111.894 49.4758C112.289 49.2151 112.716 49.0066 113.164 48.8554C113.888 48.5285 114.682 48.3851 115.474 48.438C116.267 48.4908 117.035 48.7383 117.709 49.1584C118.142 49.4564 118.634 49.6582 119.152 49.75C119.267 49.75 119.354 49.75 119.383 49.3893V48.7256L122.038 49.2306V57.8877L118.589 59.8212L118.503 58.8689C118.424 57.6779 118.275 56.4926 118.055 55.3194C117.536 53.184 116.699 53.184 116.41 53.184C115.998 53.201 115.607 53.3707 115.314 53.6602C115.165 53.7757 115.043 53.9218 114.956 54.0886C114.869 54.2554 114.819 54.439 114.809 54.6269V67.3385C114.839 67.9077 115.057 68.4509 115.429 68.8824C115.537 69.0869 115.702 69.2549 115.905 69.3654C116.108 69.4758 116.339 69.5236 116.569 69.5028H117.233V72.7781L116.786 72.9224C116.342 73.0338 115.886 73.0824 115.429 73.0667ZM112.082 69.8635L112.529 70.4695C112.859 70.9178 113.296 71.2765 113.8 71.5133C114.304 71.7502 114.859 71.8576 115.415 71.8258H115.992V70.7004C115.662 70.6378 115.349 70.5066 115.073 70.3152C114.797 70.1238 114.565 69.8765 114.39 69.5894C113.942 68.915 113.71 68.1195 113.727 67.3097V54.598C113.734 54.2383 113.819 53.8845 113.976 53.5607C114.133 53.237 114.358 52.951 114.636 52.7223C115.164 52.2274 115.859 51.9493 116.584 51.9431C118.026 51.9431 118.935 52.9676 119.469 55.002C119.63 55.8982 119.726 56.8047 119.758 57.7146L120.898 57.0797V50.255L120.494 50.1684C120.061 51.1351 119.051 51.3371 117.103 50.255C116.585 49.9183 115.989 49.7202 115.373 49.6798C114.756 49.6393 114.14 49.7579 113.582 50.0241C113.107 50.129 112.674 50.3755 112.341 50.7311L111.822 51.5536L111.288 50.7311C111.079 50.3813 110.776 50.0963 110.415 49.9078C110.053 49.7194 109.646 49.6348 109.239 49.6634C108.886 49.6806 108.537 49.7436 108.2 49.851L110.422 51.9431C110.895 52.5021 111.249 53.1505 111.465 53.8497C111.681 54.5488 111.753 55.2842 111.678 56.012V66.5594C111.678 68.3485 111.101 69.4451 109.961 69.7914L108.374 70.2964C108.111 70.495 107.819 70.6509 107.508 70.7581V71.8114C108.251 71.8886 109.001 71.7992 109.705 71.5496C110.409 71.3 111.049 70.8965 111.577 70.3685L112.082 69.8635ZM107.291 51.9431C108.734 51.9431 109.571 52.8666 109.571 54.4826V67.8147C109.586 67.9634 109.586 68.1132 109.571 68.262C109.76 67.5176 109.838 66.7494 109.802 65.9822V55.0453C109.881 54.2627 109.777 53.4725 109.499 52.7367L107.782 50.0097L107.306 50.1973C106.557 50.5642 105.743 50.7799 104.911 50.8321C104.143 50.8695 103.387 50.6344 102.775 50.1684L102.285 50.356V57.4693L103.194 57.9743C103.29 56.9006 103.523 55.8436 103.886 54.8289C104.694 52.881 105.82 51.9431 107.291 51.9431Z" fill="white"/>
<path d="M150.058 73.0667C148.51 73.1516 146.981 72.6978 145.729 71.7826C145.12 72.227 144.429 72.5459 143.695 72.7204C142.371 73.0557 140.998 73.1534 139.641 73.009H139.078V69.5606H139.655C140.389 69.5087 141.075 69.1784 141.574 68.6371C142.07 68.0837 142.334 67.3601 142.31 66.6171V59.9944L136.25 68.0888L130.045 59.0276V66.7903C130.045 68.1466 130.796 69.0123 132.412 69.5028L132.845 69.6327V72.9369L132.296 73.009C131.864 73.0347 131.43 73.0347 130.998 73.009C129.753 73.1015 128.517 72.7373 127.52 71.9846C126.898 72.4232 126.196 72.7344 125.453 72.9003C124.71 73.0663 123.941 73.0836 123.192 72.9513L122.644 72.8792V69.2576H123.221C123.865 69.2219 124.474 68.9555 124.938 68.5073C125.147 68.2844 125.307 68.0206 125.409 67.7325C125.511 67.4444 125.552 67.1383 125.529 66.8335V55.2906C125.615 54.4776 125.377 53.6635 124.866 53.0253C124.461 52.6911 123.947 52.5166 123.423 52.5348H122.644V48.8699H131.301L137.346 58.0032L144.099 48.8699H151.313V52.9243H150.664C150.446 52.9041 150.226 52.9339 150.021 53.0114C149.816 53.0889 149.631 53.2121 149.481 53.3716C149.162 53.7323 148.996 54.2035 149.019 54.6846V66.7758C148.978 67.4403 149.196 68.0949 149.626 68.603C150.056 69.1111 150.666 69.4334 151.328 69.5028L151.818 69.6183V72.8936L151.313 72.9802C150.898 73.0408 150.478 73.0697 150.058 73.0667V73.0667ZM145.729 70.0223L146.206 70.5129C146.725 70.99 147.339 71.3533 148.007 71.5794C148.676 71.8055 149.384 71.8895 150.087 71.8259C150.322 71.8412 150.558 71.8412 150.794 71.8259V70.5994C149.958 70.3868 149.223 69.8909 148.712 69.1962C148.202 68.5015 147.948 67.6511 147.995 66.7903V54.6702C147.977 53.8788 148.26 53.1102 148.788 52.5203C149.168 52.0973 149.674 51.8087 150.231 51.6979V50.1107H144.792L137.361 60.2108L130.709 50.1107H123.928V51.3805C124.593 51.455 125.216 51.7437 125.702 52.2029C126.447 53.0744 126.815 54.2056 126.727 55.3483V66.8913C126.74 67.3678 126.654 67.8419 126.475 68.2838C126.297 68.7258 126.029 69.126 125.688 69.4596C125.16 69.9751 124.493 70.3259 123.769 70.4696V71.9124C124.375 71.9685 124.986 71.8889 125.558 71.6792C126.129 71.4696 126.647 71.1352 127.073 70.7004L127.607 70.1521L128.04 70.787C128.406 71.1724 128.859 71.4651 129.361 71.6407C129.863 71.8163 130.399 71.8699 130.926 71.797H131.532V70.5273C130.717 70.2982 130 69.8062 129.494 69.1277C128.988 68.4492 128.72 67.6223 128.732 66.7758V55.0165L136.235 65.9534L143.45 56.2573V66.5594C143.476 67.3759 143.265 68.1826 142.844 68.8824C143.248 68.529 143.557 68.0792 143.741 67.5748C143.925 67.0703 143.979 66.5275 143.897 65.9967V55.4061L145.729 52.9676V66.4873C145.733 67.2838 145.485 68.0612 145.022 68.7093C144.569 69.3854 143.904 69.8927 143.132 70.1521L142.685 69.0988L142.396 69.4451C141.831 70.0857 141.07 70.5218 140.232 70.686V71.8403C141.261 71.9046 142.293 71.8072 143.291 71.5517C144.003 71.4077 144.659 71.0622 145.181 70.5561L145.729 70.0223ZM136.091 65.2753L128.054 53.386L129.338 53.487C129.691 53.521 130.032 53.6347 130.334 53.8197C130.637 54.0047 130.893 54.256 131.084 54.5548L137.39 63.8468L136.091 65.2753Z" fill="white"/>
<path d="M179.103 73.1677C177.495 73.2788 175.907 72.7615 174.673 71.7248C173.276 72.7253 171.586 73.2329 169.869 73.1677C169.494 73.19 169.118 73.19 168.743 73.1677L168.209 73.0955V69.6904H168.815C169.34 69.6956 169.862 69.6127 170.359 69.4451C170.821 69.2864 171.052 69.1132 171.052 68.8968C170.963 68.464 170.792 68.0524 170.547 67.6848L169.926 66.6026H160.966C160.682 67.1881 160.478 67.8094 160.36 68.4495C160.348 68.5992 160.367 68.7498 160.417 68.8915C160.466 69.0332 160.545 69.1629 160.649 69.2719C161.226 69.6567 161.923 69.8207 162.611 69.7337H163.246V72.9657L162.755 73.0667C162.361 73.1458 161.96 73.1844 161.558 73.1821C160.294 73.2334 159.057 72.8057 158.095 71.9845C157.004 72.741 155.714 73.1577 154.387 73.1821C153.836 73.1823 153.291 73.0693 152.785 72.8502L152.424 72.6915V69.6182H153.016C153.572 69.6386 154.12 69.4858 154.586 69.1807C155.051 68.8757 155.41 68.4336 155.613 67.9156C156.738 65.2896 157.893 62.6492 159.033 60.0087C160.157 57.6844 161.088 55.2715 161.817 52.7944C161.817 52.6357 161.817 52.4481 161.182 52.4481H159.74V48.8843L160.201 48.7688C160.747 48.6575 161.303 48.6043 161.861 48.6101C162.65 48.5592 163.442 48.6712 164.187 48.9393C164.932 49.2074 165.613 49.6258 166.189 50.1684C166.679 49.7161 167.253 49.3633 167.877 49.1295C169.152 48.6063 170.552 48.4708 171.903 48.74L172.408 48.841V52.2173H171.802C171.439 52.2208 171.084 52.3258 170.778 52.5203C170.653 52.5815 170.549 52.6759 170.475 52.7931C170.401 52.9102 170.361 53.0455 170.359 53.184C170.381 53.4589 170.465 53.7252 170.604 53.9631L177.79 67.8146C178.266 68.7092 178.973 69.7769 179.709 69.6759H180.416V73.0234L179.94 73.1388C179.663 73.1839 179.382 73.1936 179.103 73.1677V73.1677ZM174.774 69.9068L175.207 70.4262C175.696 70.9532 176.302 71.3582 176.976 71.6088C177.65 71.8594 178.374 71.9485 179.088 71.8691V71.8691V70.8302C178.208 70.6282 177.371 69.7914 176.621 68.3485L169.493 54.5547C169.256 54.1407 169.122 53.6753 169.104 53.1984C169.103 52.8534 169.194 52.5144 169.366 52.2155C169.538 51.9166 169.786 51.6683 170.085 51.4958C170.41 51.2855 170.773 51.1387 171.153 51.063V49.9231C170.172 49.8021 169.177 49.9414 168.267 50.3271C167.615 50.5533 167.044 50.9644 166.622 51.5103L166.132 52.2173L165.627 51.5247C165.173 50.963 164.588 50.5208 163.924 50.2366C163.26 49.9525 162.537 49.8349 161.817 49.8943C161.519 49.8784 161.221 49.8784 160.923 49.8943V51.2073H161.081C162.813 51.2073 162.957 52.4337 162.957 52.8088C162.957 53.184 162.957 53.689 160.071 60.4416C158.932 63.0965 157.777 65.7225 156.652 68.3485C156.395 68.9851 155.974 69.5423 155.431 69.963C154.889 70.3838 154.245 70.6532 153.564 70.7437V71.7825C153.798 71.8523 154.041 71.8864 154.286 71.8835C155.528 71.838 156.722 71.3927 157.691 70.6138L158.152 70.2819L158.715 70.7004C159.08 71.0977 159.527 71.4097 160.026 71.6142C160.525 71.8188 161.063 71.9107 161.601 71.8835H162.048V70.9312C161.229 70.946 160.433 70.6584 159.812 70.1232C159.59 69.9006 159.416 69.6344 159.302 69.3414C159.188 69.0483 159.135 68.7349 159.148 68.4206C159.287 67.4753 159.579 66.559 160.014 65.7081L160.172 65.3329H170.691L170.879 65.6503C171.138 66.1265 171.412 66.5882 171.687 67.0932C172.034 67.6439 172.256 68.2647 172.336 68.9112C172.336 69.4595 172.076 70.2098 170.893 70.6282C170.461 70.785 170.009 70.8821 169.551 70.9168V71.8258H169.97C171.324 71.8866 172.666 71.5398 173.822 70.8302L164.458 52.4048L166.16 53.2706C166.8 53.542 167.343 53.9995 167.719 54.5836L173.36 65.8812C173.736 66.6794 173.923 67.5531 173.909 68.4351V70.7725C174.081 70.6494 174.245 70.5144 174.399 70.3685L174.774 69.9068ZM169.421 63.2696H161.11L164.79 54.0497L169.421 63.2696ZM162.957 62.0432H167.372L164.891 57.0942L162.957 62.0432Z" fill="white"/>
<path d="M189.621 73.3841C188.352 73.3518 187.101 73.0674 185.942 72.5473L184.643 71.999L184.744 72.706H181.051L180.647 63.2264L183.98 62.9811L184.124 63.4716C184.591 64.8737 185.371 66.1515 186.404 67.2087C186.803 67.7566 187.307 68.2199 187.887 68.5716C188.466 68.9233 189.11 69.1564 189.78 69.2575C190.519 69.2624 191.232 68.9835 191.771 68.4784C192.039 68.2489 192.253 67.9631 192.398 67.6413C192.542 67.3196 192.614 66.9698 192.608 66.6171C192.608 66.1554 192.608 64.7558 189.881 63.9766C184.023 62.2885 183.936 62.2452 183.85 62.2019C182.715 61.6318 181.775 60.738 181.149 59.6337C180.522 58.5293 180.237 57.264 180.329 55.9976C180.301 54.9217 180.521 53.8537 180.974 52.8774C181.428 51.9011 182.101 51.043 182.941 50.3704C182.972 50.3294 183.012 50.2951 183.056 50.2694L183.273 49.1007V50.0963C186.158 47.9464 190.415 47.7733 194.628 49.7933L194.917 48.8698L197.802 49.2594L198.192 57.9166L195.176 58.1619L195.061 57.628C194.224 53.9487 192.637 52.1451 190.227 52.1451C189.843 52.1459 189.463 52.2301 189.114 52.392C188.765 52.554 188.456 52.7897 188.207 53.083C187.638 53.6649 187.322 54.4479 187.327 55.2617C187.327 55.8677 188.15 56.315 188.77 56.5747L192.738 57.6857C194.161 58.0093 195.48 58.6839 196.576 59.648C197.319 60.3571 197.914 61.2071 198.325 62.1485C198.736 63.0899 198.956 64.1038 198.971 65.1309C198.982 66.3038 198.717 67.4628 198.195 68.5134C197.673 69.564 196.911 70.4765 195.97 71.1765C194.177 72.6315 191.93 73.4125 189.621 73.3841V73.3841ZM184.687 70.7004C184.687 70.7004 184.975 70.8447 186.36 71.4218C188.316 72.3142 190.545 72.4023 192.565 71.6671L193.373 68.4495C193.159 68.8351 192.881 69.1815 192.55 69.474C191.766 70.1978 190.732 70.5906 189.665 70.5705C188.807 70.4852 187.978 70.2185 187.232 69.7881C186.486 69.3578 185.839 68.7736 185.336 68.0744C184.304 66.9891 183.491 65.7155 182.941 64.3229L181.801 64.4095L182.09 71.494H183.258C183.284 71.2795 183.374 71.078 183.518 70.9168C183.57 70.8482 183.633 70.7895 183.706 70.7437V70.585H184.211V71.191L184.687 70.7004ZM183.258 51.77V55.305C183.246 55.9485 183.368 56.5875 183.616 57.1813C183.865 57.775 184.234 58.3105 184.701 58.7535C185.648 59.7078 186.888 60.3173 188.222 60.4849C192.911 61.1486 195.277 62.9089 195.277 65.6792C195.265 66.5187 195.031 67.34 194.599 68.0599L192.623 71.6094C193.51 71.2671 194.334 70.7794 195.061 70.1665C195.857 69.5833 196.502 68.8178 196.941 67.9341C197.38 67.0505 197.602 66.0744 197.586 65.0876C197.574 64.2195 197.387 63.3627 197.035 62.5691C196.683 61.7755 196.173 61.0616 195.537 60.4705C194.591 59.6659 193.461 59.1061 192.247 58.84L188.409 57.7146C186.822 57.123 186.043 56.2717 186.043 55.2329C186.036 54.1104 186.466 53.0292 187.241 52.2173C187.598 51.8002 188.04 51.4646 188.538 51.2332C189.036 51.0017 189.577 50.8797 190.126 50.8754C193.012 50.8754 195.032 52.8666 196.042 56.8056H196.792L196.504 50.4426L195.754 50.3271L195.335 51.6834L194.671 51.3227C190.516 49.1007 186.332 49.2017 183.677 51.4093L183.258 51.77ZM191.31 63.3129C191.512 63.3975 191.71 63.4939 191.901 63.6015C191.748 63.4515 191.567 63.3338 191.367 63.2552L191.31 63.3129ZM182.652 52.6069C181.925 53.6285 181.55 54.8593 181.585 56.113C181.496 57.154 181.724 58.1974 182.239 59.1064C182.754 60.0154 183.532 60.7474 184.47 61.2063L185.033 61.3795C184.605 61.1561 184.203 60.885 183.835 60.5715C183.256 60.0924 182.793 59.4872 182.483 58.802C182.173 58.1168 182.024 57.3698 182.046 56.618C182.04 56.1332 182.088 55.6491 182.191 55.1752L182.652 52.6069Z" fill="white"/>
<path d="M77.1067 42.5934V44.2238C76.7918 44.2742 76.4733 44.2983 76.1544 44.296C75.591 44.354 75.0217 44.2941 74.4827 44.1203C73.9437 43.9464 73.4467 43.6623 73.0234 43.286C72.5903 43.71 72.0443 44.0005 71.4507 44.1228C70.8529 44.2829 70.2371 44.3653 69.6182 44.3681C69.3108 44.3892 69.0023 44.3892 68.6948 44.3681V42.6223C69.3365 42.5779 69.9362 42.2875 70.369 41.8117C70.8018 41.3359 71.0342 40.7114 71.0178 40.0684V33.9939L66.2275 40.4003L61.3073 33.1859V40.1983C61.3101 40.7678 61.5145 41.3179 61.8843 41.7511C62.254 42.1843 62.7653 42.4725 63.3274 42.5646V44.2094C63.0345 44.2344 62.7401 44.2344 62.4472 44.2094C61.9905 44.2694 61.526 44.2151 61.0954 44.0514C60.6648 43.8877 60.2815 43.6198 59.9799 43.2716C59.6535 43.5909 59.2644 43.8391 58.8373 44.0005C58.4102 44.1619 57.9542 44.2331 57.4982 44.2094C57.2822 44.2302 57.0648 44.2302 56.8489 44.2094V42.4347C57.4082 42.424 57.9453 42.2142 58.3639 41.8431C58.5654 41.6472 58.7235 41.411 58.8279 41.15C58.9323 40.889 58.9807 40.609 58.9699 40.3281V32.0028C58.9699 30.3723 58.2918 29.5643 56.9643 29.5788V27.7896H62.5049L67.0644 34.6288L72.1433 27.7896H76.7171V29.8096C76.4954 29.789 76.272 29.8199 76.0642 29.9C75.8564 29.9801 75.67 30.1072 75.5196 30.2713C75.2166 30.6121 75.0564 31.0565 75.0723 31.5122V40.1694C75.0316 40.7582 75.221 41.3398 75.6004 41.7919C75.9798 42.244 76.5198 42.5313 77.1067 42.5934V42.5934ZM66.5017 38.034L62.1731 31.6565C62.0716 31.4978 61.9361 31.3637 61.7764 31.2639C61.6166 31.1641 61.4367 31.101 61.2496 31.0793L66.1409 38.4235L66.5017 38.034ZM72.6483 39.9963V31.6132L72.1865 32.1904V39.7077C72.2537 40.1825 72.1865 40.6666 71.9927 41.1052C71.7989 41.5438 71.4862 41.9194 71.09 42.1894C71.5476 42.0431 71.9435 41.7487 72.2154 41.3525C72.4972 40.9565 72.6485 40.4824 72.6483 39.9963V39.9963Z" fill="#DBDBDB"/>
<path d="M92.6752 38.8275L92.3434 44.296H91.1314L90.4532 43.286C89.268 43.9512 87.9311 44.2991 86.5719 44.296C85.2803 44.3262 84.0261 43.8616 83.0657 42.9974C82.2632 43.7993 81.1843 44.2639 80.0502 44.296C79.7958 44.294 79.5431 44.2552 79.2999 44.1806V42.5068C79.5434 42.4979 79.7778 42.4121 79.9696 42.2618C80.1614 42.1115 80.3007 41.9043 80.3676 41.67C80.5682 41.2159 80.6667 40.7234 80.6562 40.2271V32.0172C80.6797 31.3743 80.546 30.7354 80.2666 30.1559C80.1507 29.8589 79.9338 29.6122 79.6541 29.4592C79.3745 29.3061 79.0498 29.2565 78.7372 29.319V27.6886H79.1844C81.0313 27.6886 82.0702 28.0205 82.4453 28.8429C83.5042 28.093 84.7694 27.6898 86.0669 27.6886C86.7054 27.7149 87.3369 27.8315 87.9426 28.0349C88.4695 28.2181 89.0172 28.3344 89.5731 28.3812C90.1214 28.3812 90.4532 28.1503 90.5398 27.6886L91.7807 28.2946V31.7575L90.4965 32.1615C90.424 31.7843 90.2768 31.4253 90.0638 31.1057C89.8507 30.7861 89.5759 30.5122 89.2556 30.3002C88.6361 29.8596 87.8949 29.6226 87.1346 29.622C86.7154 29.5721 86.2903 29.6292 85.8992 29.7882C85.5081 29.9472 85.1637 30.2028 84.8982 30.531C84.5602 31.205 84.4107 31.9578 84.4653 32.7098V33.6476C84.4653 34.0516 84.4653 34.3691 84.4653 34.5855C84.7402 34.7154 85.0415 34.7796 85.3455 34.7731C86.3699 34.7731 86.9038 34.0228 86.9615 32.5366L88.5486 32.6088C88.5571 32.7626 88.5571 32.9167 88.5486 33.0705C88.5486 34.5134 88.2168 35.3935 87.5531 35.5522C87.9274 35.8603 88.2279 36.2483 88.4327 36.6877C88.6374 37.1272 88.7411 37.6069 88.7362 38.0917H86.9759C86.848 37.7146 86.6631 37.3594 86.4276 37.0384C86.1012 36.7798 85.6882 36.6559 85.2733 36.6921C85.1284 36.6799 84.9826 36.7038 84.8492 36.7617C84.7157 36.8196 84.5987 36.9097 84.5086 37.0239C84.4765 38.0942 84.5296 39.1653 84.6673 40.2271C84.9559 41.5834 85.6485 42.2615 86.7451 42.2615C87.7886 42.3073 88.8135 41.9742 89.6308 41.3237C90.0247 40.986 90.3419 40.568 90.5609 40.0976C90.7799 39.6273 90.8957 39.1155 90.9005 38.5967L92.6752 38.8275ZM82.0702 32.5943C82.065 32.1323 82.0069 31.6724 81.897 31.2236C81.8044 30.782 81.6119 30.3674 81.3343 30.0116C81.5554 30.6158 81.6439 31.2604 81.594 31.9018V39.7942C81.6961 40.5825 81.5391 41.3827 81.1467 42.074C81.7672 41.8864 82.0702 41.2515 82.0702 40.1838V32.5943Z" fill="#DBDBDB"/>
<path d="M110.552 41.6555C110.559 42.0223 110.482 42.3859 110.327 42.7185C110.172 43.0511 109.943 43.3438 109.658 43.5745C109.068 44.0702 108.322 44.3412 107.551 44.3392C106.906 44.3648 106.267 44.2112 105.704 43.8954C105.141 43.5795 104.677 43.1138 104.362 42.55L103.035 39.2314C102.525 38.0868 101.847 37.5144 101.001 37.5144C100.731 37.5117 100.464 37.571 100.221 37.6876C100.09 37.744 99.9773 37.8361 99.8957 37.9534C99.8141 38.0707 99.767 38.2086 99.7597 38.3513V40.3713C99.7546 40.8964 99.9332 41.4069 100.265 41.8142C100.411 42.0186 100.604 42.1853 100.827 42.3007C101.05 42.4161 101.298 42.4768 101.549 42.4779V44.2382C101.196 44.3001 100.839 44.3291 100.481 44.3248C100.003 44.3877 99.517 44.3108 99.0818 44.1034C98.6465 43.896 98.2806 43.5669 98.0283 43.156C97.7203 43.5598 97.3195 43.8834 96.8598 44.0994C96.4002 44.3154 95.8953 44.4175 95.3878 44.3969C94.9544 44.3936 94.5249 44.3155 94.1181 44.166V42.7232C94.5826 42.671 95.0078 42.4377 95.3013 42.0739C95.5988 41.7185 95.7577 41.2675 95.7485 40.8042V31.4688C95.7485 30.2424 95.3445 29.622 94.551 29.622C94.3839 29.6251 94.2184 29.6543 94.0604 29.7085V27.9482C94.6208 27.7071 95.225 27.5843 95.8351 27.5875C96.3676 27.5721 96.8947 27.6974 97.3634 27.9507C97.832 28.2041 98.2256 28.5765 98.5044 29.0304C99.0424 28.526 99.6819 28.1423 100.38 27.9049C101.057 27.6157 101.78 27.4496 102.516 27.4144C103.246 27.391 103.974 27.5201 104.652 27.7933C105.33 28.0666 105.944 28.478 106.455 29.0015C106.966 29.5278 107.366 30.1516 107.631 30.8357C107.897 31.5199 108.021 32.2504 107.998 32.9838C108.023 33.8848 107.719 34.7641 107.143 35.4572C106.567 36.1503 105.758 36.6098 104.867 36.7497C105.612 37.1476 106.224 37.7544 106.628 38.4956C106.931 39.1449 107.234 39.7653 107.537 40.3713C107.84 40.9773 108.186 41.2947 108.561 41.2947C108.936 41.2947 109.557 40.833 110.004 39.8519C110.347 40.3924 110.536 41.0157 110.552 41.6555V41.6555ZM97.2635 40.2126V32.45C97.2559 31.991 97.188 31.535 97.0615 31.0937C96.9465 30.6474 96.7402 30.2298 96.4555 29.8672C96.6574 30.4706 96.7311 31.1095 96.672 31.743V39.7653C96.774 40.5536 96.6171 41.3537 96.2247 42.045C96.3994 41.9628 96.5558 41.8464 96.6847 41.7027C96.8135 41.5589 96.9123 41.3908 96.975 41.2082C97.1423 40.8806 97.2406 40.522 97.2635 40.1549V40.2126ZM104.233 32.248C104.265 31.6748 104.108 31.1068 103.785 30.632C103.623 30.4025 103.406 30.2175 103.154 30.094C102.902 29.9704 102.623 29.9123 102.342 29.925C100.726 29.925 99.904 30.6175 99.904 32.0027V35.6099C100.186 35.6888 100.477 35.7276 100.77 35.7253C101.235 35.7456 101.7 35.6717 102.137 35.5081C102.573 35.3445 102.972 35.0944 103.309 34.773C103.635 34.4311 103.886 34.0245 104.045 33.5796C104.204 33.1347 104.268 32.6614 104.233 32.1903V32.248ZM106.772 43.0262C105.994 42.3202 105.429 41.4105 105.142 40.4002C104.637 39.0439 104.074 38.2503 103.439 38.0339C103.84 38.4811 104.123 39.0218 104.261 39.6066C104.515 40.3732 104.824 41.1206 105.185 41.843C105.618 42.6366 106.123 43.0262 106.772 43.0262ZM105.877 32.1325C105.847 31.6845 105.698 31.2526 105.444 30.8821C105.19 30.5116 104.842 30.2159 104.435 30.026C104.979 30.7201 105.265 31.5824 105.243 32.4644C105.244 33.1939 105.028 33.9073 104.622 34.5133C104.982 34.2263 105.275 33.865 105.482 33.454C105.688 33.0431 105.804 32.5923 105.82 32.1325H105.877Z" fill="#DBDBDB"/>
<path d="M128.328 41.6555C128.334 42.0265 128.251 42.3935 128.088 42.7269C127.925 43.0602 127.686 43.3506 127.391 43.5745C126.801 44.0703 126.054 44.3412 125.284 44.3392C124.641 44.3638 124.004 44.2096 123.444 43.8937C122.883 43.5779 122.422 43.1127 122.11 42.5501C121.648 41.4391 121.215 40.3281 120.768 39.2315C120.321 38.1349 119.628 37.5145 118.791 37.5145C118.517 37.5116 118.246 37.5708 117.998 37.6876C117.868 37.7448 117.757 37.8374 117.678 37.9549C117.599 38.0723 117.555 38.2098 117.55 38.3514V40.3714C117.54 40.8949 117.713 41.4055 118.041 41.8142C118.188 42.0178 118.381 42.1839 118.604 42.2992C118.827 42.4145 119.074 42.4757 119.325 42.478V44.2382C118.977 44.3 118.625 44.329 118.272 44.3248C117.791 44.3888 117.303 44.3125 116.865 44.1051C116.427 43.8978 116.059 43.5682 115.804 43.1561C115.499 43.5627 115.099 43.8883 114.638 44.1046C114.178 44.3209 113.672 44.4212 113.164 44.397C112.735 44.3949 112.31 44.3168 111.909 44.1661V42.7232C112.368 42.6674 112.787 42.4345 113.077 42.0739C113.375 41.7186 113.534 41.2676 113.525 40.8042V31.4689C113.525 30.2424 113.135 29.622 112.327 29.622C112.16 29.6262 111.995 29.6554 111.836 29.7086V27.9483C112.402 27.7087 113.011 27.586 113.626 27.5876C114.156 27.5733 114.681 27.6992 115.147 27.9525C115.613 28.2058 116.004 28.5777 116.281 29.0304C116.821 28.5292 117.46 28.1459 118.156 27.905C118.838 27.6156 119.566 27.4495 120.306 27.4144C121.035 27.3922 121.76 27.5218 122.435 27.7951C123.111 28.0683 123.722 28.4792 124.231 29.0016C124.744 29.5271 125.146 30.1505 125.414 30.8346C125.682 31.5187 125.809 32.2496 125.789 32.9839C125.818 33.8928 125.514 34.7811 124.935 35.4823C124.356 36.1835 123.542 36.6496 122.644 36.7931C123.388 37.1909 124 37.7978 124.404 38.5389C124.707 39.1882 125.01 39.8086 125.327 40.4147C125.645 41.0207 125.977 41.3381 126.352 41.3381C126.727 41.3381 127.347 40.8764 127.795 39.8952C128.125 40.4246 128.309 41.0319 128.328 41.6555V41.6555ZM115.04 40.2127V32.45C115.032 31.991 114.964 31.535 114.838 31.0937C114.737 30.6423 114.529 30.2216 114.232 29.8673C114.455 30.466 114.549 31.1054 114.506 31.743V39.7654C114.595 40.5713 114.412 41.3839 113.986 42.0739C114.161 41.9917 114.317 41.8753 114.446 41.7316C114.575 41.5878 114.674 41.4197 114.737 41.2371C114.913 40.9018 115.016 40.533 115.04 40.1549V40.2127ZM122.009 32.248C122.041 31.6748 121.884 31.1069 121.561 30.632C121.4 30.4026 121.183 30.2176 120.93 30.0941C120.678 29.9705 120.399 29.9124 120.119 29.925C118.503 29.925 117.695 30.6176 117.695 32.0027V35.6099C117.971 35.6906 118.258 35.7296 118.546 35.7253C119.012 35.7473 119.477 35.6742 119.914 35.5105C120.35 35.3468 120.749 35.0959 121.085 34.773C121.411 34.4311 121.662 34.0246 121.821 33.5797C121.98 33.1348 122.044 32.6615 122.009 32.1903V32.248ZM124.49 43.084C123.724 42.3549 123.179 41.4248 122.918 40.4002C122.427 39.0439 121.85 38.2504 121.23 38.0339C121.619 38.4872 121.896 39.0261 122.038 39.6066C122.288 40.3978 122.597 41.1694 122.961 41.9152C123.394 42.6367 123.913 43.0262 124.49 43.0262V43.084ZM123.596 32.1903C123.566 31.7422 123.416 31.3104 123.162 30.9399C122.908 30.5694 122.56 30.2737 122.153 30.0837C122.702 30.7765 122.992 31.6386 122.975 32.5222C122.972 33.253 122.751 33.9663 122.341 34.571C122.718 34.2836 123.027 33.9155 123.244 33.4937C123.461 33.0718 123.581 32.6068 123.596 32.1326V32.1903Z" fill="#DBDBDB"/>
<path d="M143.089 27.6885V29.4921C142.463 29.5424 141.87 29.7957 141.401 30.2136C140.917 30.6004 140.494 31.0576 140.146 31.5698L136.61 36.995V41.1505C136.614 41.3633 136.67 41.572 136.773 41.7582C136.876 41.9444 137.024 42.1023 137.202 42.2182C137.588 42.4929 138.057 42.6255 138.53 42.5933V44.0362C138.062 44.1814 137.576 44.2544 137.087 44.2526C136.614 44.3004 136.138 44.2083 135.717 43.9877C135.296 43.7671 134.95 43.4277 134.72 43.0118C134.37 43.4296 133.926 43.7595 133.425 43.975C132.924 44.1905 132.379 44.2856 131.835 44.2526C131.345 44.2562 130.858 44.1832 130.392 44.0362V42.5933H130.493C130.937 42.6136 131.375 42.4812 131.734 42.2182C131.906 42.0942 132.044 41.9286 132.135 41.7368C132.225 41.5451 132.266 41.3334 132.253 41.1216V37.3269L128.761 31.4544L127.997 30.1847C127.866 29.979 127.69 29.8059 127.483 29.6784C127.275 29.5509 127.041 29.4723 126.799 29.4488H126.525V27.7462C126.998 27.6395 127.482 27.5862 127.968 27.5875C128.464 27.52 128.97 27.5891 129.43 27.7874C129.89 27.9857 130.287 28.3057 130.579 28.713C130.875 28.3247 131.265 28.0178 131.711 27.821C132.158 27.6242 132.647 27.5438 133.133 27.5875C133.468 27.5869 133.801 27.6207 134.129 27.6885V29.4488C133.937 29.3331 133.718 29.2685 133.494 29.2613C133.061 29.2613 132.845 29.42 132.845 29.7374C133.122 30.5426 133.51 31.3051 133.999 32.0027L135.442 34.3113L136.885 32.3923C137.422 31.7514 137.793 30.9884 137.967 30.1703C137.967 29.5546 137.447 29.2949 136.408 29.3911V27.7751C136.885 27.6964 137.368 27.6578 137.851 27.6597C139.107 27.6597 139.871 27.9771 140.16 28.612C140.902 27.966 141.861 27.6256 142.844 27.6597L143.089 27.6885ZM133.754 40.6743V36.6343L130.19 30.5743C129.99 30.2665 129.753 29.9853 129.483 29.7374C129.242 29.4739 128.932 29.2838 128.588 29.1891C129.594 30.2247 130.413 31.4253 131.012 32.7386L133.321 36.8363C133.321 37.6924 133.321 38.2984 133.321 38.6543C133.321 40.7176 133.133 41.8863 132.729 42.146C133.029 42.0553 133.29 41.8698 133.475 41.6174C133.66 41.3649 133.758 41.0593 133.754 40.7465V40.6743Z" fill="#DBDBDB"/>
<path d="M108.532 20.128L103.511 12.3654L105.863 12.4664L101.967 6.16104L103.67 6.23318L99.8751 0.606003L99.4279 0L99.096 0.649289L95.3734 6.26204L97.076 6.17546L93.238 12.5241L95.5754 12.3942L90.6264 20.2145L93.0937 20.1713L92.329 21.4266L99.5866 21.3977H99.601L106.844 21.3544L106.065 20.1135L108.532 20.128Z" fill="#DBDBDB"/>
<path d="M122.99 20.4455L119.657 15.28L121.215 15.3521L118.618 11.1534L119.758 11.1967L117.233 7.45967L116.93 7.05566L116.713 7.48852L114.246 11.2255L115.386 11.1678L112.818 15.381L114.376 15.2944L111.086 20.4887L112.731 20.4743L112.226 21.2967L117.045 21.2823H117.06L121.864 21.2535L121.359 20.431L122.99 20.4455Z" fill="#DBDBDB"/>
<path d="M88.1014 20.4455L84.7683 15.28L86.3266 15.3521L83.7295 11.1534L84.8693 11.1967L82.3443 7.45967L82.0413 7.05566L81.8249 7.48852L79.3576 11.2255L80.483 11.1678L77.9291 15.381L79.4874 15.2944L76.1977 20.4887L77.8426 20.4743L77.3376 21.2967L82.1567 21.2823H82.1712L86.9759 21.2535L86.4565 20.431L88.1014 20.4455Z" fill="#DBDBDB"/>
</g>
<defs>
<clipPath id="clip0">
<rect width="199" height="73.8314" fill="white"/>
</clipPath>
</defs>
</svg>
